<?xml version="1.0" standalone="no"?>
<!DOCTYPE svg PUBLIC "-//W3C//DTD SVG 1.1//EN" "http://www.w3.org/Graphics/SVG/1.1/DTD/svg11.dtd" >
<svg xmlns="http://www.w3.org/2000/svg" xmlns:xlink="http://www.w3.org/1999/xlink" version="1.1">
<metadata>
Created by FontForge 20190801 at Sat Aug  4 03:42:31 2018
 By root
Copyright \(c\) 2015 by Commercial Type, Inc.. All rights reserved. |DCNT
</metadata>
<defs>
<font id="DrukTextCyr-Bold" horiz-adv-x="500" >
  <font-face 
    font-family="Druk Text Cyr"
    font-weight="700"
    font-stretch="normal"
    units-per-em="1000"
    panose-1="0 0 0 0 0 0 0 0 0 0"
    ascent="800"
    descent="-200"
    x-height="551"
    cap-height="744"
    bbox="-35 -238 1447 1135"
    underline-thickness="84"
    underline-position="-20"
    stemh="103"
    stemv="127"
    unicode-range="U+000D-FB02"
  />
<missing-glyph horiz-adv-x="160" 
 />
    <glyph glyph-name="f_i" unicode="fi" horiz-adv-x="618" 
d="M568 740v-137h-153v137h153zM568 551v-551h-153v551h153zM343 757v-111h-48c-29 0 -36 -9 -36 -36v-59h84v-121h-84v-430h-152v430h-85v121h85v95c0 72 38 111 118 111h118z" />
    <glyph glyph-name="f_l" unicode="fl" horiz-adv-x="618" 
d="M343 757v-111h-48c-29 0 -36 -9 -36 -36v-59h84v-121h-84v-430h-152v430h-85v121h85v95c0 72 38 111 118 111h118zM568 757v-757h-153v757h153z" />
    <glyph glyph-name="f_f" unicode="ff" horiz-adv-x="679" 
d="M259 0h-152v430h-85v121h85v95c0 72 38 111 118 111h123v-111h-53c-29 0 -36 -9 -36 -36v-59h156v95c0 72 38 111 118 111h123v-111h-53c-28 0 -36 -9 -36 -36v-59h89v-121h-89v-430h-152v430h-156v-430z" />
    <glyph glyph-name="f_f_t" unicode="fft" horiz-adv-x="996" 
d="M259 0h-152v430h-85v121h85v95c0 72 38 111 118 111h123v-111h-53c-29 0 -36 -9 -36 -36v-59h156v95c0 72 38 111 118 111h113v-111h-43c-28 0 -36 -9 -36 -36v-59h157v177h152v-177h90v-121h-90v-278c0 -23 5 -30 29 -30h61v-122h-147c-63 0 -95 31 -95 94v336h-157
v-430h-152v430h-156v-430z" />
    <glyph glyph-name="f_t" unicode="ft" horiz-adv-x="688" 
d="M259 0h-152v430h-85v121h85v95c0 72 38 111 118 111h112v-111h-42c-29 0 -36 -9 -36 -36v-59h156v177h153v-177h90v-121h-90v-278c0 -23 5 -30 29 -30h61v-122h-147c-64 0 -96 31 -96 94v336h-156v-430z" />
    <glyph glyph-name="emdash.alt" unicode="&#x2014;&#x2014;" horiz-adv-x="1491" 
d="M1447 349v-96h-1403v96h1403z" />
    <glyph glyph-name=".notdef" horiz-adv-x="160" 
 />
    <glyph glyph-name="NULL" horiz-adv-x="0" 
 />
    <glyph glyph-name="NULL" horiz-adv-x="0" 
 />
    <glyph glyph-name="CR" unicode="&#xd;" horiz-adv-x="160" 
 />
    <glyph glyph-name="space" unicode=" " horiz-adv-x="160" 
 />
    <glyph glyph-name="exclam" unicode="!" horiz-adv-x="254" 
d="M43 744h168l-47 -528h-75zM205 167v-167h-158v167h158z" />
    <glyph glyph-name="quotedbl" unicode="&#x22;" horiz-adv-x="405" 
d="M359 744v-246h-127v246h127zM173 744v-246h-127v246h127z" />
    <glyph glyph-name="numbersign" unicode="#" horiz-adv-x="526" 
d="M295 328l16 125h-81l-16 -125h81zM254 0l29 237h-80l-30 -237h-100l29 237h-84l12 91h84l15 125h-84l12 91h84l24 200h101l-25 -200h81l25 200h101l-25 -200h84l-11 -91h-85l-15 -125h84l-12 -91h-84l-30 -237h-100z" />
    <glyph glyph-name="dollar" unicode="$" horiz-adv-x="510" 
d="M183 581v-4c0 -35 14 -54 47 -81v144c-35 -5 -47 -23 -47 -59zM328 178v7c0 43 -14 64 -49 94v-168c33 7 49 29 49 67zM279 -75h-49v66c-144 3 -194 70 -194 177v97h145v-86c0 -40 13 -61 49 -68v206l-82 59c-72 51 -112 102 -112 190v19c0 104 59 164 194 167v60h49v-60
c141 -3 187 -62 187 -167v-68h-141v53c0 41 -10 63 -46 70v-182l89 -66c79 -58 112 -112 112 -196v-17c0 -109 -61 -185 -201 -188v-66z" />
    <glyph glyph-name="percent" unicode="%" horiz-adv-x="792" 
d="M333 616v-125c0 -85 -47 -134 -139 -134h-15c-92 0 -139 46 -139 134v125c0 88 46 134 139 134h15c92 0 139 -46 139 -134zM535 744h95l-372 -744h-96zM186 447c26 0 39 15 39 44v126c0 30 -13 45 -39 45c-25 0 -38 -15 -38 -45v-126c0 -29 13 -44 38 -44zM752 254v-125
c0 -85 -46 -134 -138 -134h-15c-93 0 -140 46 -140 134v125c0 88 47 134 140 134h15c92 0 138 -46 138 -134zM606 85c25 0 38 15 38 44v126c0 30 -13 45 -38 45s-38 -15 -38 -45v-126c0 -29 13 -44 38 -44z" />
    <glyph glyph-name="ampersand" unicode="&#x26;" horiz-adv-x="629" 
d="M620 112l-52 -128c-59 3 -101 13 -141 46c-28 -19 -73 -39 -145 -39h-5c-159 0 -247 78 -247 206v16c0 98 62 155 133 195c-40 61 -72 112 -72 180v9c0 95 57 155 186 155h17c139 0 182 -65 182 -153v-6c0 -85 -54 -141 -146 -196l108 -172c7 53 11 113 11 197h141
c-3 -121 -26 -212 -65 -291c32 -16 64 -16 95 -19zM238 595v-4c0 -35 12 -66 43 -117c40 44 52 70 52 114v5c0 43 -16 58 -47 58c-32 0 -48 -16 -48 -56zM303 104c21 0 39 4 54 11l-140 211c-19 -23 -36 -52 -36 -97v-6c0 -72 46 -119 122 -119z" />
    <glyph glyph-name="quotesingle" unicode="'" horiz-adv-x="221" 
d="M176 744v-246h-130v246h130z" />
    <glyph glyph-name="parenleft" unicode="(" horiz-adv-x="288" 
d="M38 342c0 213 72 362 136 466h98c-48 -101 -101 -264 -101 -464s56 -368 104 -475h-98c-61 99 -139 255 -139 473z" />
    <glyph glyph-name="parenright" unicode=")" horiz-adv-x="288" 
d="M249 342c0 -218 -79 -373 -138 -473h-98c48 107 104 275 104 475s-53 363 -101 464h98c64 -104 135 -253 135 -466z" />
    <glyph glyph-name="asterisk" unicode="*" horiz-adv-x="431" 
d="M166 757h100l-18 -122l104 73l44 -84l-127 -45l127 -45l-44 -84l-104 74l18 -124h-100l18 124l-104 -74l-44 84l127 45l-127 45l44 84l104 -73z" />
    <glyph glyph-name="plus" unicode="+" horiz-adv-x="479" 
d="M441 255h-145v-156h-113v156h-145v102h145v156h113v-156h145v-102z" />
    <glyph glyph-name="comma" unicode="," horiz-adv-x="244" 
d="M163 -138h-92c11 27 33 88 39 138h-67v167h158v-128c0 -77 -27 -149 -38 -177z" />
    <glyph glyph-name="hyphen" unicode="-" horiz-adv-x="330" 
d="M44 367h242v-132h-242v132z" />
    <glyph glyph-name="period" unicode="." horiz-adv-x="244" 
d="M201 167v-167h-158v167h158z" />
    <glyph glyph-name="slash" unicode="/" horiz-adv-x="307" 
d="M280 808l-157 -939h-108l157 939h108z" />
    <glyph glyph-name="zero" unicode="0" horiz-adv-x="527" 
d="M477 546v-351c0 -136 -69 -205 -200 -205h-26c-137 0 -201 72 -201 205v351c0 132 59 207 200 207h27c141 0 200 -76 200 -207zM318 197v349c0 51 -18 72 -55 72s-54 -21 -54 -72v-349c0 -45 16 -71 55 -71s54 26 54 71z" />
    <glyph glyph-name="one" unicode="1" horiz-adv-x="344" 
d="M133 537h-109v123c96 0 124 24 137 84h129v-744h-157v537z" />
    <glyph glyph-name="two" unicode="2" horiz-adv-x="495" 
d="M458 0h-425v71c0 86 15 141 116 263c24 29 57 69 80 98c43 57 60 81 60 129v10c0 40 -12 57 -47 57s-47 -18 -47 -57v-84h-145v101c0 93 44 164 180 164h22c146 0 197 -65 197 -173v-11c0 -85 -25 -135 -84 -202c-28 -31 -61 -65 -92 -96c-85 -85 -100 -122 -100 -143
h142v118h143v-245z" />
    <glyph glyph-name="three" unicode="3" horiz-adv-x="486" 
d="M189 519h-143v66c0 93 35 167 179 167h17c148 0 192 -60 192 -164v-54c0 -73 -38 -107 -70 -118c34 -11 80 -38 80 -114v-131c0 -105 -56 -181 -194 -181h-23c-148 0 -187 76 -187 176v99h149v-87c0 -35 14 -56 49 -56c33 0 47 21 47 56v104c0 35 -10 45 -43 45h-89v135
h82c33 0 44 11 44 46v66c0 36 -10 54 -45 54c-33 0 -45 -18 -45 -54v-55z" />
    <glyph glyph-name="four" unicode="4" horiz-adv-x="492" 
d="M24 162v117c53 114 158 350 206 469h155v-455h85v-131h-85v-162h-150v162h-211zM235 293v248l-105 -248h105z" />
    <glyph glyph-name="five" unicode="5" horiz-adv-x="490" 
d="M199 335h-147v409h382v-135h-236v-139c11 17 51 66 124 66h5c84 0 122 -56 122 -140v-225c0 -101 -58 -181 -191 -181h-25c-142 0 -189 71 -189 167v106h151v-91c0 -32 16 -51 47 -51s47 19 47 51v186c0 31 -12 52 -44 52c-35 0 -46 -21 -46 -52v-23z" />
    <glyph glyph-name="six" unicode="6" horiz-adv-x="509" 
d="M338 477h5c85 0 126 -60 126 -143v-154c0 -110 -64 -190 -198 -190h-24c-141 0 -198 78 -198 190v387c0 111 56 185 191 185h24c140 0 190 -68 190 -176v-50h-157v39c0 41 -13 57 -45 57c-31 0 -45 -17 -45 -57v-153c14 16 54 65 131 65zM207 296v-113
c0 -43 20 -61 52 -61c35 0 52 20 52 61v111c0 41 -17 62 -52 62s-52 -20 -52 -60z" />
    <glyph glyph-name="seven" unicode="7" horiz-adv-x="466" 
d="M41 744h388v-120c-8 -33 -26 -95 -60 -243c-29 -129 -50 -228 -50 -319v-62h-177v46c0 86 17 160 68 302c77 203 89 247 89 275h-119v-107h-139v228z" />
    <glyph glyph-name="eight" unicode="8" horiz-adv-x="504" 
d="M455 583v-50c0 -92 -53 -121 -78 -132c25 -11 88 -41 88 -135v-94c0 -107 -56 -182 -200 -182h-28c-148 0 -198 75 -198 182v94c0 94 61 124 86 135c-25 11 -77 40 -77 132v50c0 103 47 169 192 169h23c141 0 192 -66 192 -169zM305 516v54c0 40 -18 60 -53 60
s-53 -20 -53 -60v-54c0 -41 18 -61 53 -61c39 0 53 21 53 61zM307 185v85c0 40 -16 64 -55 64s-54 -23 -54 -64v-85c0 -41 15 -64 54 -64c37 0 55 21 55 64z" />
    <glyph glyph-name="nine" unicode="9" horiz-adv-x="509" 
d="M302 446v113c0 43 -20 61 -53 61c-34 0 -51 -20 -51 -61v-111c0 -41 17 -62 52 -62c32 0 52 19 52 60zM180 265h-6c-89 0 -134 60 -134 152v148c0 111 45 187 197 187h24c145 0 198 -75 198 -190v-387c0 -108 -50 -185 -190 -185h-25c-147 0 -189 66 -189 174v52h157v-42
c0 -37 11 -54 44 -54s46 17 46 56v154c-11 -16 -50 -65 -122 -65z" />
    <glyph glyph-name="colon" unicode=":" horiz-adv-x="254" 
d="M206 464v-167h-158v167h158zM206 167v-167h-158v167h158z" />
    <glyph glyph-name="semicolon" unicode=";" horiz-adv-x="254" 
d="M168 -138h-92c11 27 33 88 39 138h-67v167h158v-128c0 -77 -27 -149 -38 -177zM206 464v-167h-158v167h158z" />
    <glyph glyph-name="less" unicode="&#x3c;" horiz-adv-x="431" 
d="M386 108l-344 142v107l344 142v-110l-227 -86l227 -86v-109z" />
    <glyph glyph-name="equal" unicode="=" horiz-adv-x="476" 
d="M43 433h390v-98h-390v98zM43 263h390v-98h-390v98z" />
    <glyph glyph-name="greater" unicode="&#x3e;" horiz-adv-x="431" 
d="M45 108v110l226 86l-226 87v108l344 -142v-107z" />
    <glyph glyph-name="question" unicode="?" horiz-adv-x="456" 
d="M271 216h-120v53c0 62 8 87 47 137l39 52c25 33 30 53 30 92v28c0 39 -12 54 -44 54c-29 0 -43 -18 -43 -54v-90h-142v96c0 96 38 169 171 169h27c135 0 183 -65 183 -165v-39c0 -64 -18 -103 -58 -150l-52 -61c-32 -37 -38 -51 -38 -94v-28zM290 167v-167h-157v167h157z
" />
    <glyph glyph-name="at" unicode="@" horiz-adv-x="794" 
d="M624 18l53 -65c-30 -33 -117 -94 -268 -94h-8c-168 0 -358 57 -358 417v45c0 271 121 407 362 407h12c221 0 335 -104 335 -340v-44c0 -240 -79 -306 -185 -306h-3c-87 0 -115 45 -123 64c-11 -17 -46 -64 -113 -64h-4c-73 0 -121 54 -114 147l15 221
c7 91 39 137 111 137h4c68 0 102 -47 110 -60l3 55h140l-25 -386c-1 -21 6 -32 23 -32c33 0 68 46 68 222v46c0 210 -98 259 -242 259h-12c-163 0 -265 -88 -265 -328v-42c0 -307 153 -337 261 -337h8c118 0 186 49 215 78zM430 187l13 201c3 39 -11 55 -39 55
s-36 -22 -39 -54l-13 -200c-3 -27 5 -53 36 -53c29 0 39 20 42 51z" />
    <glyph glyph-name="A" unicode="A" horiz-adv-x="489" 
d="M214 394l-22 -145h90l-22 145c-12 80 -19 136 -23 180c-4 -44 -12 -101 -23 -180zM320 0l-19 124h-128l-19 -124h-137l122 744h202l131 -744h-152z" />
    <glyph glyph-name="B" unicode="B" horiz-adv-x="517" 
d="M52 0v744h256c113 0 158 -46 158 -151v-57c0 -83 -41 -117 -73 -128c37 -13 87 -44 87 -139v-99c0 -108 -55 -170 -168 -170h-260zM258 630h-52v-178h53c39 0 55 20 55 65v51c0 45 -13 62 -56 62zM261 334h-55v-215h56c43 0 58 19 58 66v82c0 47 -16 67 -59 67z" />
    <glyph glyph-name="C" unicode="C" horiz-adv-x="510" 
d="M260 124c40 0 54 27 54 71v118h152v-127c0 -104 -50 -196 -192 -196h-27c-143 0 -199 80 -199 205v355c0 125 56 202 196 202h27c141 0 195 -68 195 -192v-95h-152v86c0 45 -13 71 -54 71c-39 0 -52 -24 -52 -71v-355c0 -47 13 -72 52 -72z" />
    <glyph glyph-name="D" unicode="D" horiz-adv-x="524" 
d="M52 0v744h242c125 0 180 -51 180 -182v-377c0 -129 -54 -185 -179 -185h-243zM211 621v-492h44c44 0 59 22 59 73v347c0 51 -15 72 -58 72h-45z" />
    <glyph glyph-name="E" unicode="E" horiz-adv-x="439" 
d="M52 744h348v-135h-195v-156h164v-138h-164v-178h201v-137h-354v744z" />
    <glyph glyph-name="F" unicode="F" horiz-adv-x="430" 
d="M52 0v744h347v-135h-194v-156h163v-138h-163v-315h-153z" />
    <glyph glyph-name="G" unicode="G" horiz-adv-x="517" 
d="M212 -10h-7c-104 0 -157 81 -157 185v380c0 115 51 197 198 197h24c149 0 192 -78 192 -186v-57h-149v44c0 44 -15 69 -54 69c-35 0 -53 -23 -53 -69v-359c0 -47 16 -75 59 -75s59 30 59 75v122h-68v124h213v-440h-99c-3 11 -15 46 -24 71c-13 -24 -51 -81 -134 -81z" />
    <glyph glyph-name="H" unicode="H" horiz-adv-x="532" 
d="M52 0v744h159v-281h111v281h159v-744h-159v311h-111v-311h-159z" />
    <glyph glyph-name="I" unicode="I" horiz-adv-x="262" 
d="M211 744v-744h-159v744h159z" />
    <glyph glyph-name="J" unicode="J" horiz-adv-x="484" 
d="M38 331h146v-148c0 -41 13 -58 45 -58h2c32 0 43 19 43 58v561h160v-572c0 -116 -54 -180 -182 -180h-42c-120 0 -172 55 -172 170v169z" />
    <glyph glyph-name="K" unicode="K" horiz-adv-x="509" 
d="M208 0h-156v744h156v-317l126 317h156l-139 -341l149 -403h-162l-130 347v-347z" />
    <glyph glyph-name="L" unicode="L" horiz-adv-x="413" 
d="M52 744h158v-601h175v-143h-333v744z" />
    <glyph glyph-name="M" unicode="M" horiz-adv-x="651" 
d="M427 331l-68 -331h-72l-66 327c-21 101 -33 166 -42 226c3 -73 3 -142 3 -246v-307h-131v744h198l49 -258c15 -79 22 -127 29 -174c7 47 14 94 29 174l50 258h193v-744h-134v307c0 103 2 171 5 246c-11 -59 -23 -123 -43 -222z" />
    <glyph glyph-name="N" unicode="N" horiz-adv-x="529" 
d="M205 744l100 -310c21 -68 34 -109 43 -148c-3 48 -4 85 -4 181v277h133v-744h-136l-117 338c-21 61 -35 109 -44 146c4 -39 6 -90 6 -181v-303h-134v744h153z" />
    <glyph glyph-name="O" unicode="O" horiz-adv-x="530" 
d="M482 545v-345c0 -133 -65 -210 -204 -210h-25c-143 0 -205 79 -205 210v345c0 132 61 208 204 208h25c143 0 205 -77 205 -208zM322 200v343c0 53 -20 75 -57 75c-39 0 -57 -22 -57 -75v-343c0 -49 19 -74 57 -74s57 25 57 74z" />
    <glyph glyph-name="P" unicode="P" horiz-adv-x="499" 
d="M299 289h-88v-289h-159v744h247c109 0 166 -43 166 -164v-124c0 -117 -59 -167 -166 -167zM211 626v-214h41c41 0 55 16 55 69v77c0 52 -14 68 -55 68h-41z" />
    <glyph glyph-name="Q" unicode="Q" horiz-adv-x="530" 
d="M207 -155v149c-111 15 -159 89 -159 206v345c0 132 61 208 204 208h25c143 0 205 -77 205 -208v-345c0 -113 -48 -186 -151 -205l68 -150h-192zM322 200v343c0 53 -21 75 -57 75c-39 0 -57 -22 -57 -75v-343c0 -49 19 -74 57 -74s57 25 57 74z" />
    <glyph glyph-name="R" unicode="R" horiz-adv-x="513" 
d="M207 630v-190h49c39 0 55 21 55 64v64c0 45 -14 62 -55 62h-49zM207 318v-318h-155v744h265c97 0 149 -45 149 -145v-69c0 -76 -36 -113 -77 -128c44 -17 77 -51 77 -124v-196c0 -36 5 -61 12 -77v-5h-154c-7 11 -13 32 -13 75v176c0 47 -15 67 -54 67h-50z" />
    <glyph glyph-name="S" unicode="S" horiz-adv-x="489" 
d="M253 -9h-24c-133 0 -195 61 -195 161v113h152v-91c0 -37 18 -55 55 -55c35 0 53 21 53 64v8c0 47 -17 69 -56 101l-98 79c-65 51 -100 103 -100 189v21c0 115 66 172 198 172h23c131 0 189 -53 189 -152v-87h-150v63c0 40 -15 57 -50 57c-36 0 -53 -15 -53 -54v-5
c0 -40 15 -60 54 -92l98 -80c72 -61 109 -105 109 -201v-21c0 -106 -58 -190 -205 -190z" />
    <glyph glyph-name="T" unicode="T" horiz-adv-x="449" 
d="M147 0v609h-119v135h393v-135h-119v-609h-155z" />
    <glyph glyph-name="U" unicode="U" horiz-adv-x="522" 
d="M273 -10h-26c-145 0 -198 79 -198 191v563h158v-551c0 -40 15 -64 54 -64s54 23 54 64v551h157v-563c0 -109 -59 -191 -199 -191z" />
    <glyph glyph-name="V" unicode="V" horiz-adv-x="493" 
d="M148 0l-130 744h161l73 -532l72 532h151l-125 -744h-202z" />
    <glyph glyph-name="W" unicode="W" horiz-adv-x="749" 
d="M436 0l-36 260c-15 96 -22 156 -25 196c-3 -40 -13 -100 -26 -196l-36 -260h-168l-126 744h157l44 -335c11 -88 20 -163 23 -199c3 37 12 114 24 199l45 335h133l46 -334c11 -87 21 -164 24 -200c3 36 11 111 23 199l44 335h148l-126 -744h-168z" />
    <glyph glyph-name="X" unicode="X" horiz-adv-x="494" 
d="M167 0h-156l128 394l-117 350h163l66 -236l65 236h154l-114 -354l127 -390h-159l-78 260z" />
    <glyph glyph-name="Y" unicode="Y" horiz-adv-x="460" 
d="M150 0v281l-141 463h159l67 -281l66 281h150l-136 -466v-278h-165z" />
    <glyph glyph-name="Z" unicode="Z" horiz-adv-x="463" 
d="M430 0h-393v121l209 490h-200v133h374v-119l-212 -490h222v-135z" />
    <glyph glyph-name="bracketleft" unicode="[" horiz-adv-x="275" 
d="M47 -131v939h203v-100h-82v-739h82v-100h-203z" />
    <glyph glyph-name="backslash" unicode="\" horiz-adv-x="307" 
d="M291 -131h-107l-157 939h107z" />
    <glyph glyph-name="bracketright" unicode="]" horiz-adv-x="275" 
d="M25 -131v100h81v739h-81v100h202v-939h-202z" />
    <glyph glyph-name="asciicircum" unicode="^" horiz-adv-x="370" 
d="M242 392l-58 233l-56 -233h-107l99 352h131l98 -352h-107z" />
    <glyph glyph-name="underscore" unicode="_" horiz-adv-x="461" 
d="M22 -121v101h417v-101h-417z" />
    <glyph glyph-name="grave" unicode="`" horiz-adv-x="400" 
d="M293 603h-130l-56 154h135z" />
    <glyph glyph-name="a" unicode="a" horiz-adv-x="477" 
d="M276 155v123c-17 -9 -47 -25 -62 -36c-21 -15 -32 -27 -32 -60v-30c0 -31 14 -51 45 -51s49 23 49 54zM36 123v65c0 75 31 108 100 136c35 14 94 35 123 48c15 7 17 12 17 29v5c0 35 -11 51 -48 51h-2c-35 0 -46 -17 -46 -52v-33h-137v46c0 85 41 144 177 144h18
c136 0 184 -51 184 -144v-266c0 -20 4 -28 27 -28h12v-124h-122c-36 0 -56 24 -60 63c-17 -22 -55 -68 -120 -68h-2c-75 0 -121 53 -121 128z" />
    <glyph glyph-name="b" unicode="b" horiz-adv-x="498" 
d="M49 757h153v-269c13 19 54 67 123 67h5c80 0 124 -51 124 -136v-272c0 -91 -52 -154 -140 -154h-3c-78 0 -115 54 -131 78c-7 -20 -12 -55 -13 -71h-118v757zM251 106c33 0 49 21 49 63v207c0 45 -16 67 -49 67s-49 -24 -49 -67v-206c0 -43 18 -64 49 -64z" />
    <glyph glyph-name="c" unicode="c" horiz-adv-x="472" 
d="M254 -11h-25c-131 0 -186 66 -186 170v228c0 109 55 175 187 175h24c131 0 178 -61 178 -162v-57h-143v47c0 41 -11 59 -46 59c-33 0 -46 -19 -46 -59v-226c0 -37 13 -60 45 -60c35 0 47 23 47 60v65h143v-75c0 -92 -49 -165 -178 -165z" />
    <glyph glyph-name="d" unicode="d" horiz-adv-x="499" 
d="M247 106c35 0 51 24 51 64v207c0 41 -15 65 -51 65c-35 0 -48 -24 -48 -65v-207c0 -43 16 -64 48 -64zM298 757h152v-757h-152v62c-13 -24 -52 -69 -118 -69h-4c-84 0 -131 59 -131 147v274c0 85 44 141 125 141h4c72 0 107 -41 124 -60v262z" />
    <glyph glyph-name="e" unicode="e" horiz-adv-x="475" 
d="M192 404v-54h98v54c0 37 -17 56 -50 56c-32 0 -48 -19 -48 -56zM434 205v-48c0 -108 -63 -168 -184 -168h-25c-117 0 -182 57 -182 170v231c0 109 59 172 184 172h27c111 0 180 -49 180 -173v-131h-242v-101c0 -33 12 -57 48 -57c35 0 49 24 49 56v49h145z" />
    <glyph glyph-name="f" unicode="f" horiz-adv-x="371" 
d="M348 757v-111h-53c-29 0 -36 -9 -36 -36v-59h89v-121h-89v-430h-152v430h-85v121h85v95c0 72 38 111 118 111h123z" />
    <glyph glyph-name="g" unicode="g" horiz-adv-x="501" 
d="M248 107c33 0 50 25 50 65v204c0 41 -18 65 -51 65c-35 0 -48 -22 -48 -65v-205c0 -39 14 -64 49 -64zM298 -37v99c-13 -20 -54 -66 -119 -66h-2c-85 0 -132 54 -132 150v253c0 96 39 156 127 156h2c72 0 111 -43 126 -66v62h152v-595c0 -84 -45 -153 -188 -153h-33
c-141 0 -179 55 -179 140v21h147v-6c0 -31 11 -46 48 -46h3c35 0 48 16 48 51z" />
    <glyph glyph-name="h" unicode="h" horiz-adv-x="504" 
d="M49 0v757h153v-270c8 13 48 69 124 69h6c83 0 124 -51 124 -126v-430h-154v377c0 36 -14 62 -50 62s-50 -26 -50 -65v-374h-153z" />
    <glyph glyph-name="i" unicode="i" horiz-adv-x="252" 
d="M202 740v-137h-153v137h153zM202 551v-551h-153v551h153z" />
    <glyph glyph-name="j" unicode="j" horiz-adv-x="253" 
d="M203 740v-137h-153v137h153zM-35 -59h53c25 0 32 9 32 34v576h153v-626c0 -68 -32 -111 -100 -111h-138v127z" />
    <glyph glyph-name="k" unicode="k" horiz-adv-x="488" 
d="M202 0h-153v757h153v-422l112 216h158l-130 -244l143 -307h-163l-120 264v-264z" />
    <glyph glyph-name="l" unicode="l" horiz-adv-x="251" 
d="M202 757v-757h-153v757h153z" />
    <glyph glyph-name="m" unicode="m" horiz-adv-x="748" 
d="M202 0h-153v551h151v-67c11 19 50 72 125 72h5c61 0 97 -29 112 -68c17 22 59 68 132 68h5c81 0 121 -50 121 -123v-433h-152v378c0 36 -16 60 -49 60s-48 -24 -48 -60v-378h-153v378c0 35 -13 60 -48 60s-48 -24 -48 -63v-375z" />
    <glyph glyph-name="n" unicode="n" horiz-adv-x="504" 
d="M49 0v551h151v-67c8 16 50 73 126 73h6c83 0 124 -52 124 -127v-430h-154v377c0 36 -14 62 -50 62s-50 -26 -50 -65v-374h-153z" />
    <glyph glyph-name="o" unicode="o" horiz-adv-x="495" 
d="M262 -11h-29c-136 0 -190 71 -190 178v217c0 108 57 178 190 178h29c132 0 190 -67 190 -178v-216c0 -108 -62 -179 -190 -179zM247 105c36 0 51 23 51 62v218c0 41 -17 62 -51 62c-33 0 -50 -21 -50 -62v-218c0 -39 15 -62 50 -62z" />
    <glyph glyph-name="p" unicode="p" horiz-adv-x="498" 
d="M251 106c33 0 49 21 49 64v208c0 40 -14 64 -49 64s-49 -25 -49 -64v-207c0 -43 16 -65 49 -65zM49 551h153v-64c17 22 51 68 124 68h3c84 0 125 -53 125 -141v-269c0 -92 -53 -150 -129 -150h-4c-65 0 -102 32 -119 55v-236h-153v737z" />
    <glyph glyph-name="q" unicode="q" horiz-adv-x="499" 
d="M341 551h109v-737h-152v250c-21 -31 -66 -68 -125 -68h-3c-75 0 -125 62 -125 145v265c0 84 42 149 134 149h5c88 0 123 -58 136 -77c8 19 17 50 21 73zM247 106c31 0 51 23 51 66v204c0 41 -18 66 -51 66c-35 0 -48 -25 -48 -66v-204c0 -44 16 -66 48 -66z" />
    <glyph glyph-name="r" unicode="r" horiz-adv-x="455" 
d="M202 382v-382h-153v551h151v-66c9 14 40 71 114 71h4c77 0 105 -47 105 -120v-152h-141v98c0 39 -11 56 -40 56s-40 -17 -40 -56z" />
    <glyph glyph-name="s" unicode="s" horiz-adv-x="440" 
d="M232 -11h-30c-124 0 -172 59 -172 143v61h139v-43c0 -35 13 -53 48 -53s48 18 48 46v1c0 31 -12 43 -45 62l-86 50c-67 39 -100 79 -100 156v7c0 88 51 142 176 142h24c128 0 170 -48 170 -135v-45h-135v29c0 39 -14 50 -49 50c-30 0 -45 -13 -45 -39
c0 -31 16 -39 43 -56l94 -58c75 -45 99 -84 99 -159v-6c0 -85 -52 -153 -179 -153z" />
    <glyph glyph-name="t" unicode="t" horiz-adv-x="378" 
d="M348 0h-146c-64 0 -96 31 -96 94v336h-84v121h84v177h152v-177h90v-121h-90v-278c0 -23 5 -30 29 -30h61v-122z" />
    <glyph glyph-name="u" unicode="u" horiz-adv-x="498" 
d="M449 551v-551h-150v67c-16 -27 -62 -72 -126 -72h-6c-75 0 -119 50 -119 122v434h154v-384c0 -35 15 -57 46 -57c32 0 49 21 49 60v381h152z" />
    <glyph glyph-name="v" unicode="v" horiz-adv-x="449" 
d="M131 0l-118 551h154l60 -387l60 387h149l-115 -551h-190z" />
    <glyph glyph-name="w" unicode="w" horiz-adv-x="684" 
d="M343 326c-4 -28 -11 -68 -27 -151l-34 -175h-153l-116 551h153l30 -199c13 -79 19 -123 24 -163c5 40 12 85 27 164l35 198h129l36 -198c16 -82 21 -124 26 -164c4 40 11 80 23 163l31 199h143l-111 -551h-153l-36 175c-16 83 -23 123 -27 151z" />
    <glyph glyph-name="x" unicode="x" horiz-adv-x="448" 
d="M155 0h-148l114 288l-111 263h155l60 -177l61 177h148l-107 -262l114 -289h-152l-67 190z" />
    <glyph glyph-name="y" unicode="y" horiz-adv-x="454" 
d="M46 -186v123h69c19 0 26 4 30 16c3 8 4 16 4 23c0 15 -4 31 -12 64l-124 511h155l63 -372l60 372h149l-144 -642c-15 -64 -44 -95 -108 -95h-142z" />
    <glyph glyph-name="z" unicode="z" horiz-adv-x="407" 
d="M374 0h-341v109l166 322h-158v120h327v-107l-166 -321h172v-123z" />
    <glyph glyph-name="braceleft" unicode="{" horiz-adv-x="295" 
d="M271 -131h-75c-92 0 -138 36 -138 108c0 69 58 205 58 266c0 30 -16 45 -48 45h-32v106h29c36 0 51 13 51 40c0 62 -58 197 -58 266c0 73 47 108 138 108h75v-98h-46c-32 0 -44 -14 -44 -38c0 -45 51 -174 51 -237c0 -48 -18 -79 -78 -94c60 -15 78 -49 78 -98
c0 -64 -51 -195 -51 -238c0 -24 12 -38 44 -38h46v-98z" />
    <glyph glyph-name="bar" unicode="|" horiz-adv-x="228" 
d="M167 808v-939h-105v939h105z" />
    <glyph glyph-name="braceright" unicode="}" horiz-adv-x="295" 
d="M98 -131h-73v98h46c32 0 44 14 44 38c0 43 -51 174 -51 238c0 49 18 83 78 98c-60 15 -78 46 -78 94c0 63 51 192 51 237c0 24 -12 38 -44 38h-46v98h73c91 0 139 -36 139 -109c0 -69 -57 -204 -57 -265c0 -27 14 -40 50 -40h29v-106h-32c-31 0 -47 -15 -47 -45
c0 -61 57 -196 57 -265c0 -73 -48 -109 -139 -109z" />
    <glyph glyph-name="asciitilde" unicode="~" horiz-adv-x="410" 
d="M113 507c44 0 68 -19 103 -54c36 -38 41 -44 50 -44s13 6 13 18v81h102v-124c0 -64 -25 -102 -84 -102c-44 0 -70 19 -103 54c-37 37 -41 43 -51 43c-8 0 -12 -6 -12 -18v-81h-102v124c0 64 25 103 84 103z" />
    <glyph glyph-name="exclamdown" unicode="&#xa1;" horiz-adv-x="252" 
d="M210 -194h-166l47 528h74zM50 383v167h156v-167h-156z" />
    <glyph glyph-name="cent" unicode="&#xa2;" horiz-adv-x="477" 
d="M270 -76h-50v65c-139 5 -177 85 -177 177v219c0 92 37 169 177 174v63h50v-63c129 -3 167 -73 167 -160v-55h-126v37c0 43 -9 62 -41 69v-349c32 7 39 28 39 69v57h128v-78c0 -77 -42 -155 -167 -160v-65zM179 381v-211c0 -41 10 -62 41 -69v349c-32 -7 -41 -26 -41 -69z
" />
    <glyph glyph-name="sterling" unicode="&#xa3;" horiz-adv-x="558" 
d="M521 242v-242h-491v93c47 10 99 56 99 132v1c0 27 -3 57 -8 90h-91v103h77c-7 43 -10 86 -10 126v31c0 109 51 176 196 176h23c149 0 182 -74 182 -166v-90h-144v69c0 43 -14 62 -49 62c-36 0 -49 -20 -49 -63v-40c0 -33 1 -70 4 -105h163v-103h-156c0 -16 1 -31 1 -44
c0 -83 -33 -127 -65 -151h174v121h144z" />
    <glyph glyph-name="yen" unicode="&#xa5;" horiz-adv-x="492" 
d="M169 0v206h-127v76h127v51h-127v76h104l-126 335h159l72 -239l72 239h144l-117 -335h107v-76h-128v-51h129v-76h-129v-206h-160z" />
    <glyph glyph-name="section" unicode="&#xa7;" horiz-adv-x="538" 
d="M230 258l98 -63c16 7 34 20 34 49v4c0 31 -13 46 -60 77l-100 60c-16 -7 -31 -21 -31 -46v-4c0 -31 16 -48 59 -77zM270 -195h-23c-135 0 -182 60 -182 160v85h149v-68c0 -40 15 -57 48 -57c31 0 46 19 46 58v4c0 45 -10 60 -69 97l-106 65c-77 48 -106 86 -106 160v12
c0 70 45 104 100 120c-31 35 -49 77 -49 137v14c0 93 50 160 190 160h22c142 0 183 -56 183 -156v-68h-147v55c0 35 -12 51 -47 51s-47 -16 -47 -48v-4c0 -37 18 -57 63 -85l107 -65c85 -53 108 -88 108 -159v-12c0 -76 -54 -109 -100 -123c45 -41 56 -80 56 -144v-14
c0 -104 -56 -175 -196 -175z" />
    <glyph glyph-name="dieresis" unicode="&#xa8;" horiz-adv-x="400" 
d="M351 729v-126h-131v126h131zM181 729v-126h-132v126h132z" />
    <glyph glyph-name="copyright" unicode="&#xa9;" horiz-adv-x="705" 
d="M657 485v-223c0 -187 -108 -274 -290 -274h-29c-183 0 -290 85 -290 273v224c0 181 106 271 291 271h27c181 0 291 -91 291 -271zM340 60h25c140 0 210 68 210 203v219c0 137 -65 202 -210 202h-25c-145 0 -210 -65 -210 -202v-219c0 -135 70 -203 210 -203zM320 487
v-229c0 -29 8 -46 35 -46c25 0 35 18 35 46v77h117v-83c0 -77 -37 -140 -144 -140h-18c-109 0 -150 58 -150 147v227c0 89 42 146 149 146h18c105 0 145 -53 145 -138v-59h-119v52c0 33 -7 47 -34 47c-25 0 -34 -14 -34 -47z" />
    <glyph glyph-name="ordfeminine" unicode="&#xaa;" horiz-adv-x="386" 
d="M220 461v79c-12 -7 -36 -18 -47 -25c-19 -11 -26 -22 -26 -46v-12c0 -23 11 -38 35 -38s38 19 38 42zM326 641v-193c0 -11 5 -16 15 -16h12v-88h-94c-24 0 -37 16 -39 47c-11 -19 -43 -52 -87 -52h-2c-56 0 -91 42 -91 94v45c0 53 24 78 75 98l91 32c13 5 14 10 14 25v5
c0 21 -9 34 -37 34h-1c-27 0 -36 -12 -36 -36v-24h-101v29c0 65 31 108 130 108h12c105 0 139 -37 139 -108z" />
    <glyph glyph-name="guillemotleft" unicode="&#xab;" horiz-adv-x="447" 
d="M157 286l70 -173h-120l-62 139v68l60 139h121zM342 286l68 -173h-121l-70 173l70 173h121z" />
    <glyph glyph-name="registered" unicode="&#xae;" horiz-adv-x="465" 
d="M425 584v-95c0 -113 -62 -174 -183 -174h-19c-121 0 -184 61 -184 174v95c0 113 59 172 184 172h19c125 0 183 -59 183 -172zM374 497v80c0 96 -36 134 -133 134h-17c-97 0 -133 -38 -133 -134v-80c0 -91 34 -136 133 -136h17c99 0 133 45 133 136zM213 508v-106h-67v270
h110c47 0 67 -19 67 -63v-17c0 -36 -22 -47 -33 -50c13 -4 32 -16 32 -48v-59c0 -17 3 -22 6 -29v-4h-66c-3 4 -6 11 -6 30v51c0 17 -7 25 -22 25h-21zM213 622v-62h21c15 0 22 6 22 27v9c0 21 -7 26 -22 26h-21z" />
    <glyph glyph-name="macron" unicode="&#xaf;" horiz-adv-x="400" 
d="M76 616v103h246v-103h-246z" />
    <glyph glyph-name="degree" unicode="&#xb0;" horiz-adv-x="405" 
d="M203 755c99 0 166 -68 166 -159c0 -92 -67 -161 -166 -161c-100 0 -167 69 -167 161c0 91 67 159 167 159zM203 528c39 0 64 29 64 68s-25 66 -64 66s-64 -27 -64 -66s25 -68 64 -68z" />
    <glyph glyph-name="acute" unicode="&#xb4;" horiz-adv-x="400" 
d="M107 603l51 154h135l-56 -154h-130z" />
    <glyph glyph-name="paragraph" unicode="&#xb6;" horiz-adv-x="503" 
d="M188 0v345h-12c-104 0 -148 47 -148 155v95c0 105 43 149 148 149h315v-98h-50v-646h-95v646h-62v-646h-96z" />
    <glyph glyph-name="periodcentered" unicode="&#xb7;" horiz-adv-x="244" 
d="M201 396v-168h-158v168h158z" />
    <glyph glyph-name="cedilla" unicode="&#xb8;" horiz-adv-x="400" 
d="M311 -132v-3c0 -57 -40 -86 -120 -86h-92v77h69c18 0 27 7 27 20s-9 20 -27 20h-50v104h81v-45h6c71 0 106 -29 106 -87z" />
    <glyph glyph-name="ordmasculine" unicode="&#xba;" horiz-adv-x="390" 
d="M201 339h-11c-104 0 -145 51 -145 134v142c0 83 41 134 145 134h11c103 0 144 -53 144 -134v-142c0 -83 -41 -134 -144 -134zM195 660c-26 0 -39 -15 -39 -46v-139c0 -30 13 -45 39 -45s39 15 39 45v139c0 31 -13 46 -39 46z" />
    <glyph glyph-name="guillemotright" unicode="&#xbb;" horiz-adv-x="448" 
d="M106 286l-69 173h122l69 -173l-68 -173h-123zM291 286l-69 173h119l62 -139v-68l-60 -139h-121z" />
    <glyph glyph-name="questiondown" unicode="&#xbf;" horiz-adv-x="465" 
d="M190 334h125v-53c0 -62 -7 -87 -49 -137l-41 -52c-25 -33 -31 -53 -31 -92v-28c0 -39 13 -54 46 -54c30 0 45 18 45 54v90h148v-96c0 -96 -38 -169 -178 -169h-29c-140 0 -191 65 -191 165v39c0 64 20 103 61 150l54 61c34 37 40 52 40 94v28zM170 383v167h164v-167h-164
z" />
    <glyph glyph-name="Agrave" unicode="&#xc0;" horiz-adv-x="489" 
d="M214 394l-22 -145h90l-22 145c-12 80 -19 136 -23 180c-4 -44 -12 -101 -23 -180zM320 0l-19 124h-128l-19 -124h-137l122 744h202l131 -744h-152zM307 791h-136l-53 131h140z" />
    <glyph glyph-name="Aacute" unicode="&#xc1;" horiz-adv-x="489" 
d="M214 394l-22 -145h90l-22 145c-12 80 -19 136 -23 180c-4 -44 -12 -101 -23 -180zM320 0l-19 124h-128l-19 -124h-137l122 744h202l131 -744h-152zM170 791l49 131h140l-53 -131h-136z" />
    <glyph glyph-name="Acircumflex" unicode="&#xc2;" horiz-adv-x="489" 
d="M214 394l-22 -145h90l-22 145c-12 80 -19 136 -23 180c-4 -44 -12 -101 -23 -180zM320 0l-19 124h-128l-19 -124h-137l122 744h202l131 -744h-152zM315 922l82 -133h-121l-38 65l-38 -65h-120l82 133h153z" />
    <glyph glyph-name="Atilde" unicode="&#xc3;" horiz-adv-x="489" 
d="M214 394l-22 -145h90l-22 145c-12 80 -19 136 -23 180c-4 -44 -12 -101 -23 -180zM320 0l-19 124h-128l-19 -124h-137l122 744h202l131 -744h-152zM380 932v-66c0 -45 -22 -72 -58 -72h-2c-27 0 -46 8 -81 23c-20 8 -35 15 -42 15c-6 0 -9 -4 -9 -12v-29h-91v65
c0 47 22 72 58 72h2c27 0 46 -8 81 -23c20 -8 35 -15 42 -15c6 0 9 4 9 12v30h91z" />
    <glyph glyph-name="Adieresis" unicode="&#xc4;" horiz-adv-x="489" 
d="M214 394l-22 -145h90l-22 145c-12 80 -19 136 -23 180c-4 -44 -12 -101 -23 -180zM320 0l-19 124h-128l-19 -124h-137l122 744h202l131 -744h-152zM391 917v-126h-132v126h132zM218 917v-126h-132v126h132z" />
    <glyph glyph-name="Aring" unicode="&#xc5;" horiz-adv-x="489" 
d="M214 394l-22 -145h90l-22 145c-12 80 -19 136 -23 180c-4 -44 -12 -101 -23 -180zM320 0l-19 124h-128l-19 -124h-137l122 744h202l131 -744h-152zM238 784c-63 0 -102 38 -102 97c0 57 39 96 102 96s102 -39 102 -96c0 -59 -39 -97 -102 -97zM238 839c25 0 41 17 41 42
c0 24 -16 41 -41 41c-24 0 -40 -17 -40 -41c0 -25 16 -42 40 -42z" />
    <glyph glyph-name="AE" unicode="&#xc6;" horiz-adv-x="678" 
d="M307 259v366l-89 -366h89zM307 0v130h-121l-31 -130h-151l195 744h441v-135h-180v-156h149v-138h-149v-178h186v-137h-339z" />
    <glyph glyph-name="Ccedilla" unicode="&#xc7;" horiz-adv-x="510" 
d="M253 -221h-92v77h69c18 0 27 7 27 20s-9 20 -27 20h-50v101c-95 23 -132 94 -132 198v355c0 125 56 202 196 202h27c141 0 195 -68 195 -192v-95h-152v86c0 45 -13 71 -54 71c-39 0 -52 -24 -52 -71v-355c0 -47 13 -72 52 -72c40 0 54 27 54 71v118h152v-127
c0 -104 -50 -196 -192 -196h-13v-35h6c68 0 106 -28 106 -87v-3c0 -57 -40 -86 -120 -86z" />
    <glyph glyph-name="Egrave" unicode="&#xc8;" horiz-adv-x="439" 
d="M294 791h-136l-53 131h140zM52 744h348v-135h-195v-156h164v-138h-164v-178h201v-137h-354v744z" />
    <glyph glyph-name="Eacute" unicode="&#xc9;" horiz-adv-x="439" 
d="M157 791l49 131h140l-53 -131h-136zM52 744h348v-135h-195v-156h164v-138h-164v-178h201v-137h-354v744z" />
    <glyph glyph-name="Ecircumflex" unicode="&#xca;" horiz-adv-x="439" 
d="M302 922l82 -133h-121l-38 65l-38 -65h-120l82 133h153zM52 744h348v-135h-195v-156h164v-138h-164v-178h201v-137h-354v744z" />
    <glyph glyph-name="Edieresis" unicode="&#xcb;" horiz-adv-x="439" 
d="M52 744h348v-135h-195v-156h164v-138h-164v-178h201v-137h-354v744zM378 917v-126h-132v126h132zM205 917v-126h-132v126h132z" />
    <glyph glyph-name="Igrave" unicode="&#xcc;" horiz-adv-x="262" 
d="M211 744v-744h-159v744h159zM200 791h-136l-53 131h140z" />
    <glyph glyph-name="Iacute" unicode="&#xcd;" horiz-adv-x="262" 
d="M211 744v-744h-159v744h159zM63 791l49 131h140l-53 -131h-136z" />
    <glyph glyph-name="Icircumflex" unicode="&#xce;" horiz-adv-x="262" 
d="M211 744v-744h-159v744h159zM208 922l82 -133h-121l-38 65l-38 -65h-120l82 133h153z" />
    <glyph glyph-name="Idieresis" unicode="&#xcf;" horiz-adv-x="262" 
d="M211 744v-744h-159v744h159zM284 917v-126h-132v126h132zM111 917v-126h-132v126h132z" />
    <glyph glyph-name="Ntilde" unicode="&#xd1;" horiz-adv-x="529" 
d="M406 932v-66c0 -45 -22 -72 -58 -72h-2c-27 0 -46 8 -81 23c-20 8 -35 15 -42 15c-6 0 -9 -4 -9 -12v-29h-91v65c0 47 22 72 58 72h2c27 0 46 -8 81 -23c20 -8 35 -15 42 -15c6 0 9 4 9 12v30h91zM205 744l100 -310c21 -68 34 -109 43 -148c-3 48 -4 85 -4 181v277h133
v-744h-136l-117 338c-21 61 -35 109 -44 146c4 -39 6 -90 6 -181v-303h-134v744h153z" />
    <glyph glyph-name="Ograve" unicode="&#xd2;" horiz-adv-x="530" 
d="M333 791h-136l-53 131h140zM482 545v-345c0 -133 -65 -210 -204 -210h-25c-143 0 -205 79 -205 210v345c0 132 61 208 204 208h25c143 0 205 -77 205 -208zM322 200v343c0 53 -20 75 -57 75c-39 0 -57 -22 -57 -75v-343c0 -49 19 -74 57 -74s57 25 57 74z" />
    <glyph glyph-name="Oacute" unicode="&#xd3;" horiz-adv-x="530" 
d="M196 791l49 131h140l-53 -131h-136zM482 545v-345c0 -133 -65 -210 -204 -210h-25c-143 0 -205 79 -205 210v345c0 132 61 208 204 208h25c143 0 205 -77 205 -208zM322 200v343c0 53 -20 75 -57 75c-39 0 -57 -22 -57 -75v-343c0 -49 19 -74 57 -74s57 25 57 74z" />
    <glyph glyph-name="Ocircumflex" unicode="&#xd4;" horiz-adv-x="530" 
d="M341 922l82 -133h-121l-38 65l-38 -65h-120l82 133h153zM482 545v-345c0 -133 -65 -210 -204 -210h-25c-143 0 -205 79 -205 210v345c0 132 61 208 204 208h25c143 0 205 -77 205 -208zM322 200v343c0 53 -20 75 -57 75c-39 0 -57 -22 -57 -75v-343c0 -49 19 -74 57 -74
s57 25 57 74z" />
    <glyph glyph-name="Otilde" unicode="&#xd5;" horiz-adv-x="530" 
d="M406 932v-66c0 -45 -22 -72 -58 -72h-2c-27 0 -46 8 -81 23c-20 8 -35 15 -42 15c-6 0 -9 -4 -9 -12v-29h-91v65c0 47 22 72 58 72h2c27 0 46 -8 81 -23c20 -8 35 -15 42 -15c6 0 9 4 9 12v30h91zM482 545v-345c0 -133 -65 -210 -204 -210h-25c-143 0 -205 79 -205 210
v345c0 132 61 208 204 208h25c143 0 205 -77 205 -208zM322 200v343c0 53 -20 75 -57 75c-39 0 -57 -22 -57 -75v-343c0 -49 19 -74 57 -74s57 25 57 74z" />
    <glyph glyph-name="Odieresis" unicode="&#xd6;" horiz-adv-x="530" 
d="M417 917v-126h-132v126h132zM244 917v-126h-132v126h132zM482 545v-345c0 -133 -65 -210 -204 -210h-25c-143 0 -205 79 -205 210v345c0 132 61 208 204 208h25c143 0 205 -77 205 -208zM322 200v343c0 53 -20 75 -57 75c-39 0 -57 -22 -57 -75v-343c0 -49 19 -74 57 -74
s57 25 57 74z" />
    <glyph glyph-name="Oslash" unicode="&#xd8;" horiz-adv-x="528" 
d="M277 -10h-23c-67 0 -103 19 -127 39l-16 -29h-86l47 89c-16 29 -24 66 -24 111v345c0 132 62 208 203 208h24c64 0 102 -17 126 -38l15 29h86l-45 -89c15 -28 24 -63 24 -110v-345c0 -133 -67 -210 -204 -210zM200 540v-78c0 -53 -1 -103 -3 -152l127 265
c-8 32 -29 46 -60 46c-41 0 -64 -22 -64 -81zM264 124c43 0 64 26 64 79v79c0 56 0 106 3 155l-128 -264c8 -33 28 -49 61 -49z" />
    <glyph glyph-name="Ugrave" unicode="&#xd9;" horiz-adv-x="522" 
d="M329 791h-136l-53 131h140zM273 -10h-26c-145 0 -198 79 -198 191v563h158v-551c0 -40 15 -64 54 -64s54 23 54 64v551h157v-563c0 -109 -59 -191 -199 -191z" />
    <glyph glyph-name="Uacute" unicode="&#xda;" horiz-adv-x="522" 
d="M192 791l49 131h140l-53 -131h-136zM273 -10h-26c-145 0 -198 79 -198 191v563h158v-551c0 -40 15 -64 54 -64s54 23 54 64v551h157v-563c0 -109 -59 -191 -199 -191z" />
    <glyph glyph-name="Ucircumflex" unicode="&#xdb;" horiz-adv-x="522" 
d="M337 922l82 -133h-121l-38 65l-38 -65h-120l82 133h153zM273 -10h-26c-145 0 -198 79 -198 191v563h158v-551c0 -40 15 -64 54 -64s54 23 54 64v551h157v-563c0 -109 -59 -191 -199 -191z" />
    <glyph glyph-name="Udieresis" unicode="&#xdc;" horiz-adv-x="522" 
d="M273 -10h-26c-145 0 -198 79 -198 191v563h158v-551c0 -40 15 -64 54 -64s54 23 54 64v551h157v-563c0 -109 -59 -191 -199 -191zM413 917v-126h-132v126h132zM240 917v-126h-132v126h132z" />
    <glyph glyph-name="germandbls" unicode="&#xdf;" horiz-adv-x="504" 
d="M380 449c26 -8 83 -27 83 -123v-180c0 -97 -44 -146 -144 -146h-74v126h22c31 0 39 12 39 43v142c0 35 -8 44 -39 44h-22v125h20c31 0 38 13 38 46v68c0 36 -13 58 -49 58h-3c-36 0 -49 -22 -49 -58v-594h-153v602c0 96 47 167 187 167h30c143 0 182 -65 182 -156v-59
c0 -72 -45 -97 -68 -105z" />
    <glyph glyph-name="agrave" unicode="&#xe0;" horiz-adv-x="477" 
d="M276 155v123c-17 -9 -47 -25 -62 -36c-21 -15 -32 -27 -32 -60v-30c0 -31 14 -51 45 -51s49 23 49 54zM36 123v65c0 75 31 108 100 136c35 14 94 35 123 48c15 7 17 12 17 29v5c0 35 -11 51 -48 51h-2c-35 0 -46 -17 -46 -52v-33h-137v46c0 85 41 144 177 144h18
c136 0 184 -51 184 -144v-266c0 -20 4 -28 27 -28h12v-124h-122c-36 0 -56 24 -60 63c-17 -22 -55 -68 -120 -68h-2c-75 0 -121 53 -121 128zM293 603h-130l-56 154h135z" />
    <glyph glyph-name="aacute" unicode="&#xe1;" horiz-adv-x="477" 
d="M276 155v123c-17 -9 -47 -25 -62 -36c-21 -15 -32 -27 -32 -60v-30c0 -31 14 -51 45 -51s49 23 49 54zM36 123v65c0 75 31 108 100 136c35 14 94 35 123 48c15 7 17 12 17 29v5c0 35 -11 51 -48 51h-2c-35 0 -46 -17 -46 -52v-33h-137v46c0 85 41 144 177 144h18
c136 0 184 -51 184 -144v-266c0 -20 4 -28 27 -28h12v-124h-122c-36 0 -56 24 -60 63c-17 -22 -55 -68 -120 -68h-2c-75 0 -121 53 -121 128zM161 603l51 154h135l-56 -154h-130z" />
    <glyph glyph-name="acircumflex" unicode="&#xe2;" horiz-adv-x="477" 
d="M276 155v123c-17 -9 -47 -25 -62 -36c-21 -15 -32 -27 -32 -60v-30c0 -31 14 -51 45 -51s49 23 49 54zM36 123v65c0 75 31 108 100 136c35 14 94 35 123 48c15 7 17 12 17 29v5c0 35 -11 51 -48 51h-2c-35 0 -46 -17 -46 -52v-33h-137v46c0 85 41 144 177 144h18
c136 0 184 -51 184 -144v-266c0 -20 4 -28 27 -28h12v-124h-122c-36 0 -56 24 -60 63c-17 -22 -55 -68 -120 -68h-2c-75 0 -121 53 -121 128zM304 757l76 -155h-116l-37 84l-37 -84h-115l76 155h153z" />
    <glyph glyph-name="atilde" unicode="&#xe3;" horiz-adv-x="477" 
d="M276 155v123c-17 -9 -47 -25 -62 -36c-21 -15 -32 -27 -32 -60v-30c0 -31 14 -51 45 -51s49 23 49 54zM36 123v65c0 75 31 108 100 136c35 14 94 35 123 48c15 7 17 12 17 29v5c0 35 -11 51 -48 51h-2c-35 0 -46 -17 -46 -52v-33h-137v46c0 85 41 144 177 144h18
c136 0 184 -51 184 -144v-266c0 -20 4 -28 27 -28h12v-124h-122c-36 0 -56 24 -60 63c-17 -22 -55 -68 -120 -68h-2c-75 0 -121 53 -121 128zM366 753v-76c0 -45 -22 -72 -59 -72h-1c-27 0 -47 7 -79 26c-25 15 -34 20 -41 20c-5 0 -8 -4 -8 -12v-36h-89v75
c0 45 22 72 59 72h1c27 0 48 -7 79 -26c25 -15 34 -20 41 -20c5 0 8 4 8 13v36h89z" />
    <glyph glyph-name="adieresis" unicode="&#xe4;" horiz-adv-x="477" 
d="M276 155v123c-17 -9 -47 -25 -62 -36c-21 -15 -32 -27 -32 -60v-30c0 -31 14 -51 45 -51s49 23 49 54zM36 123v65c0 75 31 108 100 136c35 14 94 35 123 48c15 7 17 12 17 29v5c0 35 -11 51 -48 51h-2c-35 0 -46 -17 -46 -52v-33h-137v46c0 85 41 144 177 144h18
c136 0 184 -51 184 -144v-266c0 -20 4 -28 27 -28h12v-124h-122c-36 0 -56 24 -60 63c-17 -22 -55 -68 -120 -68h-2c-75 0 -121 53 -121 128zM382 729v-126h-131v126h131zM212 729v-126h-132v126h132z" />
    <glyph glyph-name="aring" unicode="&#xe5;" horiz-adv-x="477" 
d="M276 155v123c-17 -9 -47 -25 -62 -36c-21 -15 -32 -27 -32 -60v-30c0 -31 14 -51 45 -51s49 23 49 54zM36 123v65c0 75 31 108 100 136c35 14 94 35 123 48c15 7 17 12 17 29v5c0 35 -11 51 -48 51h-2c-35 0 -46 -17 -46 -52v-33h-137v46c0 85 41 144 177 144h18
c136 0 184 -51 184 -144v-266c0 -20 4 -28 27 -28h12v-124h-122c-36 0 -56 24 -60 63c-17 -22 -55 -68 -120 -68h-2c-75 0 -121 53 -121 128zM227 598c-63 0 -102 39 -102 96c0 59 39 96 102 96s102 -37 102 -96c0 -57 -39 -96 -102 -96zM227 653c25 0 41 17 41 41
c0 25 -16 41 -41 41c-24 0 -40 -16 -40 -41c0 -24 16 -41 40 -41z" />
    <glyph glyph-name="ae" unicode="&#xe6;" horiz-adv-x="706" 
d="M423 403v-53h98v53c0 37 -16 56 -48 56c-33 0 -50 -19 -50 -56zM275 152v117c-17 -9 -47 -25 -62 -36c-20 -15 -31 -29 -31 -60v-24c0 -31 13 -51 44 -51s49 23 49 54zM665 206v-50c0 -108 -65 -168 -182 -168h-24c-77 0 -134 28 -159 75c-21 -31 -62 -72 -133 -72h-2
c-84 0 -129 56 -129 129v60c0 73 31 107 100 135c35 16 93 35 122 48c15 7 17 12 17 29v15c0 33 -11 50 -48 50h-2c-35 0 -46 -18 -46 -51v-42h-136v54c0 87 43 144 169 144h18c77 0 112 -26 125 -42c13 15 46 41 109 41h24c105 0 177 -49 177 -173v-129h-242v-103
c0 -33 13 -56 50 -56c33 0 46 23 46 56v50h146z" />
    <glyph glyph-name="ccedilla" unicode="&#xe7;" horiz-adv-x="472" 
d="M237 -221h-92v77h69c18 0 27 7 27 20s-9 20 -27 20h-49v99c-85 19 -122 79 -122 164v228c0 109 55 175 187 175h24c131 0 178 -61 178 -162v-57h-143v47c0 41 -11 59 -46 59c-33 0 -46 -19 -46 -59v-226c0 -37 13 -60 45 -60c35 0 47 23 47 60v65h143v-75
c0 -92 -49 -165 -178 -165h-9v-34h7c68 0 105 -28 105 -87v-3c0 -57 -40 -86 -120 -86z" />
    <glyph glyph-name="egrave" unicode="&#xe8;" horiz-adv-x="475" 
d="M192 404v-54h98v54c0 37 -17 56 -50 56c-32 0 -48 -19 -48 -56zM434 205v-48c0 -108 -63 -168 -184 -168h-25c-117 0 -182 57 -182 170v231c0 109 59 172 184 172h27c111 0 180 -49 180 -173v-131h-242v-101c0 -33 12 -57 48 -57c35 0 49 24 49 56v49h145zM305 603h-130
l-56 154h135z" />
    <glyph glyph-name="eacute" unicode="&#xe9;" horiz-adv-x="475" 
d="M174 603l51 154h135l-56 -154h-130zM192 404v-54h98v54c0 37 -17 56 -50 56c-32 0 -48 -19 -48 -56zM434 205v-48c0 -108 -63 -168 -184 -168h-25c-117 0 -182 57 -182 170v231c0 109 59 172 184 172h27c111 0 180 -49 180 -173v-131h-242v-101c0 -33 12 -57 48 -57
c35 0 49 24 49 56v49h145z" />
    <glyph glyph-name="ecircumflex" unicode="&#xea;" horiz-adv-x="475" 
d="M316 757l76 -155h-116l-37 84l-37 -84h-115l76 155h153zM192 404v-54h98v54c0 37 -17 56 -50 56c-32 0 -48 -19 -48 -56zM434 205v-48c0 -108 -63 -168 -184 -168h-25c-117 0 -182 57 -182 170v231c0 109 59 172 184 172h27c111 0 180 -49 180 -173v-131h-242v-101
c0 -33 12 -57 48 -57c35 0 49 24 49 56v49h145z" />
    <glyph glyph-name="edieresis" unicode="&#xeb;" horiz-adv-x="475" 
d="M390 729v-126h-131v126h131zM220 729v-126h-132v126h132zM192 404v-54h98v54c0 37 -17 56 -50 56c-32 0 -48 -19 -48 -56zM434 205v-48c0 -108 -63 -168 -184 -168h-25c-117 0 -182 57 -182 170v231c0 109 59 172 184 172h27c111 0 180 -49 180 -173v-131h-242v-101
c0 -33 12 -57 48 -57c35 0 49 24 49 56v49h145z" />
    <glyph glyph-name="igrave" unicode="&#xec;" horiz-adv-x="252" 
d="M191 603h-130l-53 154h135zM202 551v-551h-153v551h153z" />
    <glyph glyph-name="iacute" unicode="&#xed;" horiz-adv-x="252" 
d="M61 603l48 154h135l-53 -154h-130zM202 551v-551h-153v551h153z" />
    <glyph glyph-name="icircumflex" unicode="&#xee;" horiz-adv-x="252" 
d="M205 757l70 -155h-114l-35 87l-35 -87h-113l70 155h157zM202 551v-551h-153v551h153z" />
    <glyph glyph-name="idieresis" unicode="&#xef;" horiz-adv-x="252" 
d="M264 729v-126h-120v126h120zM107 729v-126h-121v126h121zM202 551v-551h-153v551h153z" />
    <glyph glyph-name="ntilde" unicode="&#xf1;" horiz-adv-x="504" 
d="M49 0v551h151v-67c8 16 50 73 126 73h6c83 0 124 -52 124 -127v-430h-154v377c0 36 -14 62 -50 62s-50 -26 -50 -65v-374h-153zM390 753v-76c0 -45 -22 -72 -59 -72h-1c-27 0 -47 7 -79 26c-25 15 -34 20 -41 20c-5 0 -8 -4 -8 -12v-36h-89v75c0 45 22 72 59 72h1
c27 0 48 -7 79 -26c25 -15 34 -20 41 -20c5 0 8 4 8 13v36h89z" />
    <glyph glyph-name="ograve" unicode="&#xf2;" horiz-adv-x="495" 
d="M262 -11h-29c-136 0 -190 71 -190 178v217c0 108 57 178 190 178h29c132 0 190 -67 190 -178v-216c0 -108 -62 -179 -190 -179zM247 105c36 0 51 23 51 62v218c0 41 -17 62 -51 62c-33 0 -50 -21 -50 -62v-218c0 -39 15 -62 50 -62zM311 603h-130l-56 154h135z" />
    <glyph glyph-name="oacute" unicode="&#xf3;" horiz-adv-x="495" 
d="M181 603l51 154h135l-56 -154h-130zM262 -11h-29c-136 0 -190 71 -190 178v217c0 108 57 178 190 178h29c132 0 190 -67 190 -178v-216c0 -108 -62 -179 -190 -179zM247 105c36 0 51 23 51 62v218c0 41 -17 62 -51 62c-33 0 -50 -21 -50 -62v-218c0 -39 15 -62 50 -62z
" />
    <glyph glyph-name="ocircumflex" unicode="&#xf4;" horiz-adv-x="495" 
d="M323 757l76 -155h-116l-37 84l-37 -84h-115l76 155h153zM262 -11h-29c-136 0 -190 71 -190 178v217c0 108 57 178 190 178h29c132 0 190 -67 190 -178v-216c0 -108 -62 -179 -190 -179zM247 105c36 0 51 23 51 62v218c0 41 -17 62 -51 62c-33 0 -50 -21 -50 -62v-218
c0 -39 15 -62 50 -62z" />
    <glyph glyph-name="otilde" unicode="&#xf5;" horiz-adv-x="495" 
d="M262 -11h-29c-136 0 -190 71 -190 178v217c0 108 57 178 190 178h29c132 0 190 -67 190 -178v-216c0 -108 -62 -179 -190 -179zM247 105c36 0 51 23 51 62v218c0 41 -17 62 -51 62c-33 0 -50 -21 -50 -62v-218c0 -39 15 -62 50 -62zM385 753v-76c0 -45 -22 -72 -59 -72
h-1c-27 0 -47 7 -79 26c-25 15 -34 20 -41 20c-5 0 -8 -4 -8 -12v-36h-89v75c0 45 22 72 59 72h1c27 0 48 -7 79 -26c25 -15 34 -20 41 -20c5 0 8 4 8 13v36h89z" />
    <glyph glyph-name="odieresis" unicode="&#xf6;" horiz-adv-x="495" 
d="M397 729v-126h-131v126h131zM227 729v-126h-132v126h132zM262 -11h-29c-136 0 -190 71 -190 178v217c0 108 57 178 190 178h29c132 0 190 -67 190 -178v-216c0 -108 -62 -179 -190 -179zM247 105c36 0 51 23 51 62v218c0 41 -17 62 -51 62c-33 0 -50 -21 -50 -62v-218
c0 -39 15 -62 50 -62z" />
    <glyph glyph-name="divide" unicode="&#xf7;" horiz-adv-x="476" 
d="M308 548v-132h-140v132h140zM38 359h400v-105h-400v105zM308 193v-132h-140v132h140z" />
    <glyph glyph-name="oslash" unicode="&#xf8;" horiz-adv-x="492" 
d="M261 -11h-29c-52 0 -89 15 -116 34l-16 -23h-75l45 66c-16 25 -27 58 -27 101v217c0 108 57 178 188 178h29c55 0 91 -15 114 -34l16 23h77l-45 -66c16 -25 27 -58 27 -101v-216c0 -108 -64 -179 -188 -179zM186 379v-18c0 -57 -1 -96 -2 -131l116 188
c-10 20 -28 30 -54 30c-40 0 -60 -23 -60 -69zM246 105c43 0 60 27 60 68v18c0 56 1 96 2 131l-115 -187c9 -20 27 -30 53 -30z" />
    <glyph glyph-name="ugrave" unicode="&#xf9;" horiz-adv-x="498" 
d="M449 551v-551h-150v67c-16 -27 -62 -72 -126 -72h-6c-75 0 -119 50 -119 122v434h154v-384c0 -35 15 -57 46 -57c32 0 49 21 49 60v381h152zM312 603h-130l-56 154h135z" />
    <glyph glyph-name="uacute" unicode="&#xfa;" horiz-adv-x="498" 
d="M183 603l51 154h135l-56 -154h-130zM449 551v-551h-150v67c-16 -27 -62 -72 -126 -72h-6c-75 0 -119 50 -119 122v434h154v-384c0 -35 15 -57 46 -57c32 0 49 21 49 60v381h152z" />
    <glyph glyph-name="ucircumflex" unicode="&#xfb;" horiz-adv-x="498" 
d="M324 757l76 -155h-116l-37 84l-37 -84h-115l76 155h153zM449 551v-551h-150v67c-16 -27 -62 -72 -126 -72h-6c-75 0 -119 50 -119 122v434h154v-384c0 -35 15 -57 46 -57c32 0 49 21 49 60v381h152z" />
    <glyph glyph-name="udieresis" unicode="&#xfc;" horiz-adv-x="498" 
d="M398 729v-126h-131v126h131zM228 729v-126h-132v126h132zM449 551v-551h-150v67c-16 -27 -62 -72 -126 -72h-6c-75 0 -119 50 -119 122v434h154v-384c0 -35 15 -57 46 -57c32 0 49 21 49 60v381h152z" />
    <glyph glyph-name="ydieresis" unicode="&#xff;" horiz-adv-x="454" 
d="M46 -186v123h69c19 0 26 4 30 16c3 8 4 16 4 23c0 15 -4 31 -12 64l-124 511h155l63 -372l60 372h149l-144 -642c-15 -64 -44 -95 -108 -95h-142zM378 729v-126h-131v126h131zM208 729v-126h-132v126h132z" />
    <glyph glyph-name="dotlessi" unicode="&#x131;" horiz-adv-x="252" 
d="M202 551v-551h-153v551h153z" />
    <glyph glyph-name="OE" unicode="&#x152;" horiz-adv-x="690" 
d="M658 0h-429c-125 0 -179 56 -179 185v377c0 131 55 182 180 182h422v-135h-180v-156h149v-138h-149v-178h186v-137zM313 138v471h-45c-43 0 -58 -21 -58 -72v-326c0 -51 15 -73 59 -73h44z" />
    <glyph glyph-name="oe" unicode="&#x153;" horiz-adv-x="733" 
d="M449 404v-54h98v54c0 37 -16 56 -49 56s-49 -19 -49 -56zM246 105c36 0 52 23 52 62v218c0 41 -17 62 -52 62c-33 0 -49 -21 -49 -62v-218c0 -39 16 -62 49 -62zM250 -11h-27c-124 0 -180 71 -180 178v217c0 108 57 178 182 178h27c67 0 103 -23 122 -42
c19 19 54 42 119 42h25c100 0 173 -49 173 -173v-131h-242v-101c0 -33 13 -57 49 -57c35 0 48 24 48 56v49h145v-48c0 -108 -65 -168 -174 -168h-24c-68 0 -102 26 -121 47c-19 -21 -54 -47 -122 -47z" />
    <glyph glyph-name="Ydieresis" unicode="&#x178;" horiz-adv-x="460" 
d="M150 0v281l-141 463h159l67 -281l66 281h150l-136 -466v-278h-165zM386 917v-126h-132v126h132zM213 917v-126h-132v126h132z" />
    <glyph glyph-name="circumflex" unicode="&#x2c6;" horiz-adv-x="400" 
d="M276 757l76 -155h-116l-37 84l-37 -84h-115l76 155h153z" />
    <glyph glyph-name="caron" unicode="&#x2c7;" horiz-adv-x="400" 
d="M125 603l-77 154h114l38 -83l38 83h113l-77 -154h-149z" />
    <glyph glyph-name="breve" unicode="&#x2d8;" horiz-adv-x="400" 
d="M203 600h-3c-91 0 -133 46 -133 126v13h104v-10c0 -27 10 -41 31 -41c23 0 30 14 30 41v10h104v-13c0 -80 -42 -126 -133 -126z" />
    <glyph glyph-name="dotaccent" unicode="&#x2d9;" horiz-adv-x="400" 
d="M276 740v-137h-154v137h154z" />
    <glyph glyph-name="ring" unicode="&#x2da;" horiz-adv-x="400" 
d="M200 598c-63 0 -102 39 -102 96c0 59 39 96 102 96s102 -37 102 -96c0 -57 -39 -96 -102 -96zM200 653c25 0 41 17 41 41c0 25 -16 41 -41 41c-24 0 -40 -16 -40 -41c0 -24 16 -41 40 -41z" />
    <glyph glyph-name="ogonek" unicode="&#x2db;" horiz-adv-x="400" 
d="M105 -118v5c0 45 41 78 101 113h69c-32 -36 -48 -59 -48 -78v-2c0 -16 13 -24 33 -24h23v-83h-80c-63 0 -98 24 -98 69z" />
    <glyph glyph-name="tilde" unicode="&#x2dc;" horiz-adv-x="400" 
d="M338 753v-76c0 -45 -22 -72 -59 -72h-1c-27 0 -47 7 -79 26c-25 15 -34 20 -41 20c-5 0 -8 -4 -8 -12v-36h-89v75c0 45 22 72 59 72h1c27 0 48 -7 79 -26c25 -15 34 -20 41 -20c5 0 8 4 8 13v36h89z" />
    <glyph glyph-name="hungarumlaut" unicode="&#x2dd;" horiz-adv-x="400" 
d="M194 603l50 154h116l-52 -154h-114zM40 603l45 154h117l-48 -154h-114z" />
    <glyph glyph-name="endash" unicode="&#x2013;" horiz-adv-x="526" 
d="M44 349h438v-96h-438v96z" />
    <glyph glyph-name="emdash" unicode="&#x2014;" horiz-adv-x="789" 
d="M44 349h701v-96h-701v96z" />
    <glyph glyph-name="quoteleft" unicode="&#x2018;" horiz-adv-x="240" 
d="M79 743h91c-15 -36 -31 -91 -38 -139h65v-153h-154v113c0 81 25 152 36 179z" />
    <glyph glyph-name="quoteright" unicode="&#x2019;" horiz-adv-x="240" 
d="M161 452h-91c15 36 31 91 38 139h-65v153h154v-113c0 -81 -25 -152 -36 -179z" />
    <glyph glyph-name="quotesinglbase" unicode="&#x201a;" horiz-adv-x="240" 
d="M161 -139h-91c15 36 31 91 38 139h-65v153h154v-113c0 -81 -25 -152 -36 -179z" />
    <glyph glyph-name="quotedblleft" unicode="&#x201c;" horiz-adv-x="445" 
d="M284 743h91c-15 -36 -31 -91 -38 -139h65v-153h-154v113c0 81 25 152 36 179zM79 743h91c-15 -36 -31 -91 -38 -139h65v-153h-154v113c0 81 25 152 36 179z" />
    <glyph glyph-name="quotedblright" unicode="&#x201d;" horiz-adv-x="445" 
d="M366 452h-91c15 36 31 91 38 139h-65v153h154v-113c0 -81 -25 -152 -36 -179zM161 452h-91c15 36 31 91 38 139h-65v153h154v-113c0 -81 -25 -152 -36 -179z" />
    <glyph glyph-name="quotedblbase" unicode="&#x201e;" horiz-adv-x="446" 
d="M366 -139h-91c15 36 31 91 38 139h-65v153h154v-113c0 -81 -25 -152 -36 -179zM161 -139h-91c15 36 31 91 38 139h-65v153h154v-113c0 -81 -25 -152 -36 -179z" />
    <glyph glyph-name="dagger" unicode="&#x2020;" horiz-adv-x="375" 
d="M115 0v474h-83v127h83v143h145v-143h83v-127h-83v-474h-145z" />
    <glyph glyph-name="daggerdbl" unicode="&#x2021;" horiz-adv-x="385" 
d="M265 0h-145v147h-83v127h83v200h-83v127h83v143h145v-143h83v-127h-83v-200h83v-127h-83v-147z" />
    <glyph glyph-name="bullet" unicode="&#x2022;" horiz-adv-x="341" 
d="M170 195c-76 0 -135 57 -135 134c0 79 59 135 135 135c78 0 135 -56 135 -135c0 -77 -57 -134 -135 -134z" />
    <glyph glyph-name="ellipsis" unicode="&#x2026;" horiz-adv-x="732" 
d="M201 167v-167h-158v167h158zM444 167v-167h-158v167h158zM688 167v-167h-158v167h158z" />
    <glyph glyph-name="perthousand" unicode="&#x2030;" horiz-adv-x="1144" 
d="M1104 254v-125c0 -85 -46 -134 -138 -134h-15c-93 0 -140 46 -140 134v125c0 88 47 134 140 134h15c92 0 138 -46 138 -134zM958 85c25 0 38 15 38 44v126c0 30 -13 45 -38 45s-38 -15 -38 -45v-126c0 -29 13 -44 38 -44zM333 616v-125c0 -85 -47 -134 -139 -134h-15
c-92 0 -139 46 -139 134v125c0 88 46 134 139 134h15c92 0 139 -46 139 -134zM535 744h95l-372 -744h-96zM186 447c26 0 39 15 39 44v126c0 30 -13 45 -39 45c-25 0 -38 -15 -38 -45v-126c0 -29 13 -44 38 -44zM752 254v-125c0 -85 -46 -134 -138 -134h-15
c-93 0 -140 46 -140 134v125c0 88 47 134 140 134h15c92 0 138 -46 138 -134zM606 85c25 0 38 15 38 44v126c0 30 -13 45 -38 45s-38 -15 -38 -45v-126c0 -29 13 -44 38 -44z" />
    <glyph glyph-name="guilsinglleft" unicode="&#x2039;" horiz-adv-x="275" 
d="M161 286l77 -173h-125l-68 139v68l68 139h125z" />
    <glyph glyph-name="guilsinglright" unicode="&#x203a;" horiz-adv-x="275" 
d="M115 286l-78 173h126l67 -139v-68l-67 -139h-126z" />
    <glyph glyph-name="fraction" unicode="&#x2044;" horiz-adv-x="547" 
d="M442 744h95l-433 -744h-95z" />
    <glyph glyph-name="Euro" unicode="&#x20ac;" horiz-adv-x="556" 
d="M319 -10h-27c-141 0 -202 76 -202 205v87h-70v77h70v51h-70v75h70v65c0 127 55 202 199 202h27c144 0 199 -68 199 -192v-35h-153v27c0 45 -15 70 -56 70c-40 0 -56 -25 -56 -70v-67h163v-75h-163v-51h164v-77h-164v-87c0 -47 16 -71 56 -71c41 0 56 26 56 70v47h153v-55
c0 -108 -49 -196 -196 -196z" />
    <glyph glyph-name="trademark" unicode="&#x2122;" horiz-adv-x="596" 
d="M230 666h-54v-258h-94v258h-54v78h202v-78zM265 408v336h112l33 -171l32 171h108v-336h-77v209l-44 -209h-44l-44 209v-209h-76z" />
    <glyph glyph-name="uni0192" unicode="&#x192;" horiz-adv-x="397" 
d="M361 360h-103l-36 -547h-148l36 547h-84v119h92l9 151c7 77 38 114 125 114h110v-117h-48c-31 0 -38 -8 -41 -39l-7 -109h95v-119z" />
    <glyph glyph-name="brokenbar" unicode="&#xa6;" horiz-adv-x="228" 
d="M167 808v-400h-105v400h105zM167 317v-448h-105v448h105z" />
    <glyph glyph-name="onequarter" unicode="&#xbc;" horiz-adv-x="705" 
d="M98 613h-71v82c60 0 79 15 90 50h90v-402h-109v270zM499 744h95l-433 -744h-95zM376 78v76c37 63 108 181 143 248h107v-234h59v-90h-59v-78h-107v78h-143zM519 168v123l-69 -123h69z" />
    <glyph glyph-name="onehalf" unicode="&#xbd;" horiz-adv-x="744" 
d="M499 744h95l-433 -744h-95zM98 613h-71v82c60 0 79 15 90 50h90v-402h-109v270zM713 0h-296v43c0 47 3 76 76 141l61 53c33 28 39 37 39 57v1c0 20 -8 33 -33 33c-24 0 -32 -12 -32 -39v-29h-102v39c0 59 28 106 128 106h14c107 0 138 -45 138 -106v-4
c0 -48 -20 -75 -59 -104c-24 -19 -45 -31 -68 -46c-57 -39 -67 -54 -67 -63h100v52h101v-134z" />
    <glyph glyph-name="threequarters" unicode="&#xbe;" horiz-adv-x="785" 
d="M580 744h95l-433 -744h-95zM141 621h-101v25c0 51 16 102 124 102h14c107 0 137 -40 137 -96v-12c0 -48 -31 -63 -52 -68c21 -5 58 -22 58 -78v-44c0 -61 -36 -112 -137 -112h-17c-108 0 -132 48 -132 108v36h105v-24c0 -21 8 -33 35 -33c25 0 34 12 34 33v23
c0 21 -6 28 -29 28h-64v86h61c24 0 28 8 28 27v17c0 19 -6 31 -33 31c-25 0 -31 -12 -31 -31v-18zM457 78v76c37 63 108 181 143 248h107v-234h59v-90h-59v-78h-107v78h-143zM600 168v123l-69 -123h69z" />
    <glyph glyph-name="Eth" unicode="&#xd0;" horiz-adv-x="540" 
d="M227 129h44c44 0 59 22 59 73v347c0 51 -15 72 -58 72h-45v-176h57v-122h-57v-194zM68 0v323h-52v122h52v299h242c127 0 181 -51 181 -182v-377c0 -129 -55 -185 -180 -185h-243z" />
    <glyph glyph-name="multiply" unicode="&#xd7;" horiz-adv-x="446" 
d="M340 113l-118 118l-115 -118l-73 68l117 121l-118 117l73 75l117 -118l115 118l74 -70l-118 -120l119 -119z" />
    <glyph glyph-name="Yacute" unicode="&#xdd;" horiz-adv-x="460" 
d="M150 0v281l-141 463h159l67 -281l66 281h150l-136 -466v-278h-165zM165 791l49 131h140l-53 -131h-136z" />
    <glyph glyph-name="Thorn" unicode="&#xde;" horiz-adv-x="505" 
d="M313 167h-104v-167h-157v744h157v-149h104c105 0 158 -45 158 -156v-110c0 -108 -53 -162 -158 -162zM209 477v-187h50c39 0 54 18 54 65v60c0 47 -17 62 -54 62h-50z" />
    <glyph glyph-name="eth" unicode="&#xf0;" horiz-adv-x="496" 
d="M259 -11h-24c-148 0 -191 82 -191 178v232c0 93 45 152 121 152h3c56 0 94 -22 125 -57l-78 117l-117 -41v74l77 27l-57 86h156l29 -42l104 37v-74l-63 -22l47 -69c45 -67 61 -112 61 -213v-206c0 -94 -51 -179 -193 -179zM248 105c39 0 51 27 51 62v219
c0 39 -16 60 -51 60s-50 -21 -50 -60v-219c0 -35 14 -62 50 -62z" />
    <glyph glyph-name="yacute" unicode="&#xfd;" horiz-adv-x="454" 
d="M46 -186v123h69c19 0 26 4 30 16c3 8 4 16 4 23c0 15 -4 31 -12 64l-124 511h155l63 -372l60 372h149l-144 -642c-15 -64 -44 -95 -108 -95h-142zM164 603l51 154h135l-56 -154h-130z" />
    <glyph glyph-name="thorn" unicode="&#xfe;" horiz-adv-x="498" 
d="M251 106c33 0 49 21 49 64v206c0 45 -16 67 -49 67s-49 -22 -49 -67v-205c0 -43 16 -65 49 -65zM454 416v-271c0 -92 -52 -150 -128 -150h-4c-65 0 -102 32 -119 55v-236h-154v943h153v-269c14 20 55 67 123 67h5c79 0 124 -48 124 -139z" />
    <glyph glyph-name="Lslash" unicode="&#x141;" horiz-adv-x="429" 
d="M67 744h158v-296l123 74v-115l-123 -72v-192h175v-143h-333v244l-64 -37v108l64 38v391z" />
    <glyph glyph-name="lslash" unicode="&#x142;" horiz-adv-x="295" 
d="M223 418v-418h-153v342l-63 -31v102l63 32v312h153v-235l65 33v-104z" />
    <glyph glyph-name="Scaron" unicode="&#x160;" horiz-adv-x="489" 
d="M169 791l-81 131h122l37 -64l38 64h120l-81 -131h-155zM253 -9h-24c-133 0 -195 61 -195 161v113h152v-91c0 -37 18 -55 55 -55c35 0 53 21 53 64v8c0 47 -17 69 -56 101l-98 79c-65 51 -100 103 -100 189v21c0 115 66 172 198 172h23c131 0 189 -53 189 -152v-87h-150
v63c0 40 -15 57 -50 57c-36 0 -53 -15 -53 -54v-5c0 -40 15 -60 54 -92l98 -80c72 -61 109 -105 109 -201v-21c0 -106 -58 -190 -205 -190z" />
    <glyph glyph-name="scaron" unicode="&#x161;" horiz-adv-x="440" 
d="M145 603l-77 154h114l38 -83l38 83h113l-77 -154h-149zM232 -11h-30c-124 0 -172 59 -172 143v61h139v-43c0 -35 13 -53 48 -53s48 18 48 46v1c0 31 -12 43 -45 62l-86 50c-67 39 -100 79 -100 156v7c0 88 51 142 176 142h24c128 0 170 -48 170 -135v-45h-135v29
c0 39 -14 50 -49 50c-30 0 -45 -13 -45 -39c0 -31 16 -39 43 -56l94 -58c75 -45 99 -84 99 -159v-6c0 -85 -52 -153 -179 -153z" />
    <glyph glyph-name="Zcaron" unicode="&#x17d;" horiz-adv-x="463" 
d="M155 791l-81 131h122l37 -64l38 64h120l-81 -131h-155zM430 0h-393v121l209 490h-200v133h374v-119l-212 -490h222v-135z" />
    <glyph glyph-name="zcaron" unicode="&#x17e;" horiz-adv-x="407" 
d="M129 603l-77 154h114l38 -83l38 83h113l-77 -154h-149zM374 0h-341v109l166 322h-158v120h327v-107l-166 -321h172v-123z" />
    <glyph glyph-name="minus" unicode="&#x2212;" horiz-adv-x="466" 
d="M38 359h390v-105h-390v105z" />
    <glyph glyph-name="Dcroat" unicode="&#x110;" horiz-adv-x="540" 
d="M227 129h44c44 0 59 22 59 73v347c0 51 -15 72 -58 72h-45v-176h57v-122h-57v-194zM68 0v323h-52v122h52v299h242c127 0 181 -51 181 -182v-377c0 -129 -55 -185 -180 -185h-243z" />
    <glyph glyph-name="Eng" unicode="&#x14a;" horiz-adv-x="529" 
d="M272 -187v120h36c27 0 34 9 34 36v31l-156 450v-450h-134v744h151l140 -427v427h134v-798c0 -88 -31 -133 -123 -133h-82z" />
    <glyph glyph-name="IJ" unicode="&#x132;" horiz-adv-x="746" 
d="M211 744v-744h-159v744h159zM300 331h146v-148c0 -41 13 -58 45 -58h2c32 0 43 19 43 58v561h160v-572c0 -116 -54 -180 -182 -180h-42c-120 0 -172 55 -172 170v169z" />
    <glyph glyph-name="dcroat" unicode="&#x111;" horiz-adv-x="499" 
d="M181 602v91h327v-91h-327zM247 106c35 0 51 24 51 64v207c0 41 -15 65 -51 65c-35 0 -48 -24 -48 -65v-207c0 -43 16 -64 48 -64zM298 757h152v-757h-152v62c-13 -24 -52 -69 -118 -69h-4c-84 0 -131 59 -131 147v274c0 85 44 141 125 141h4c72 0 107 -41 124 -60v262z
" />
    <glyph glyph-name="eng" unicode="&#x14b;" horiz-adv-x="504" 
d="M216 -59h54c25 0 33 9 33 34v402c0 36 -15 62 -51 62s-50 -26 -50 -65v-374h-153v551h151v-67c8 16 50 72 126 72h6c83 0 124 -50 124 -126v-505c0 -68 -33 -111 -101 -111h-139v127z" />
    <glyph glyph-name="ij" unicode="&#x133;" horiz-adv-x="505" 
d="M202 740v-137h-153v137h153zM202 551v-551h-153v551h153zM454 740v-137h-153v137h153zM216 -59h53c25 0 32 9 32 34v576h153v-626c0 -68 -32 -111 -100 -111h-138v127z" />
    <glyph glyph-name="Abreve" unicode="&#x102;" horiz-adv-x="489" 
d="M214 394l-22 -145h90l-22 145c-12 80 -19 136 -23 180c-4 -44 -12 -101 -23 -180zM320 0l-19 124h-128l-19 -124h-137l122 744h202l131 -744h-152zM240 787h-3c-91 0 -134 48 -134 125v6h104v-4c0 -27 10 -40 31 -40s32 13 32 40v4h105v-6c0 -77 -44 -125 -135 -125z" />
    <glyph glyph-name="Amacron" unicode="&#x100;" horiz-adv-x="489" 
d="M214 394l-22 -145h90l-22 145c-12 80 -19 136 -23 180c-4 -44 -12 -101 -23 -180zM320 0l-19 124h-128l-19 -124h-137l122 744h202l131 -744h-152zM115 802v103h246v-103h-246z" />
    <glyph glyph-name="Aogonek" unicode="&#x104;" horiz-adv-x="489" 
d="M214 394l-22 -145h90l-22 145c-12 80 -19 136 -23 180c-4 -44 -12 -101 -23 -180zM320 0l-19 124h-128l-19 -124h-137l122 744h202l131 -744h-152zM302 -118v5c0 45 41 78 101 113h69c-32 -36 -48 -59 -48 -78v-2c0 -16 13 -24 33 -24h23v-83h-80c-63 0 -98 24 -98 69z
" />
    <glyph glyph-name="Aringacute" unicode="&#x1fa;" horiz-adv-x="489" 
d="M214 394l-22 -145h90l-22 145c-12 80 -19 136 -23 180c-4 -44 -12 -101 -23 -180zM320 0l-19 124h-128l-19 -124h-137l122 744h202l131 -744h-152zM170 1004l49 131h140l-53 -131h-136zM238 784c-63 0 -102 38 -102 97c0 57 39 96 102 96s102 -39 102 -96
c0 -59 -39 -97 -102 -97zM238 839c25 0 41 17 41 42c0 24 -16 41 -41 41c-24 0 -40 -17 -40 -41c0 -25 16 -42 40 -42z" />
    <glyph glyph-name="AEacute" unicode="&#x1fc;" horiz-adv-x="678" 
d="M351 791l49 131h140l-53 -131h-136zM307 259v366l-89 -366h89zM307 0v130h-121l-31 -130h-151l195 744h441v-135h-180v-156h149v-138h-149v-178h186v-137h-339z" />
    <glyph glyph-name="Cacute" unicode="&#x106;" horiz-adv-x="510" 
d="M260 124c40 0 54 27 54 71v118h152v-127c0 -104 -50 -196 -192 -196h-27c-143 0 -199 80 -199 205v355c0 125 56 202 196 202h27c141 0 195 -68 195 -192v-95h-152v86c0 45 -13 71 -54 71c-39 0 -52 -24 -52 -71v-355c0 -47 13 -72 52 -72zM189 791l49 131h140l-53 -131
h-136z" />
    <glyph glyph-name="Ccaron" unicode="&#x10c;" horiz-adv-x="510" 
d="M179 791l-81 131h122l37 -64l38 64h120l-81 -131h-155zM260 124c40 0 54 27 54 71v118h152v-127c0 -104 -50 -196 -192 -196h-27c-143 0 -199 80 -199 205v355c0 125 56 202 196 202h27c141 0 195 -68 195 -192v-95h-152v86c0 45 -13 71 -54 71c-39 0 -52 -24 -52 -71
v-355c0 -47 13 -72 52 -72z" />
    <glyph glyph-name="Ccircumflex" unicode="&#x108;" horiz-adv-x="510" 
d="M334 922l82 -133h-121l-38 65l-38 -65h-120l82 133h153zM260 124c40 0 54 27 54 71v118h152v-127c0 -104 -50 -196 -192 -196h-27c-143 0 -199 80 -199 205v355c0 125 56 202 196 202h27c141 0 195 -68 195 -192v-95h-152v86c0 45 -13 71 -54 71c-39 0 -52 -24 -52 -71
v-355c0 -47 13 -72 52 -72z" />
    <glyph glyph-name="Cdotaccent" unicode="&#x10a;" horiz-adv-x="510" 
d="M260 124c40 0 54 27 54 71v118h152v-127c0 -104 -50 -196 -192 -196h-27c-143 0 -199 80 -199 205v355c0 125 56 202 196 202h27c141 0 195 -68 195 -192v-95h-152v86c0 45 -13 71 -54 71c-39 0 -52 -24 -52 -71v-355c0 -47 13 -72 52 -72zM334 928v-137h-154v137h154z
" />
    <glyph glyph-name="Dcaron" unicode="&#x10e;" horiz-adv-x="524" 
d="M160 791l-81 131h122l37 -64l38 64h120l-81 -131h-155zM52 0v744h242c125 0 180 -51 180 -182v-377c0 -129 -54 -185 -179 -185h-243zM211 621v-492h44c44 0 59 22 59 73v347c0 51 -15 72 -58 72h-45z" />
    <glyph glyph-name="Ebreve" unicode="&#x114;" horiz-adv-x="439" 
d="M52 744h348v-135h-195v-156h164v-138h-164v-178h201v-137h-354v744zM227 787h-3c-91 0 -134 48 -134 125v6h104v-4c0 -27 10 -40 31 -40s32 13 32 40v4h105v-6c0 -77 -44 -125 -135 -125z" />
    <glyph glyph-name="Ecaron" unicode="&#x11a;" horiz-adv-x="439" 
d="M147 791l-81 131h122l37 -64l38 64h120l-81 -131h-155zM52 744h348v-135h-195v-156h164v-138h-164v-178h201v-137h-354v744z" />
    <glyph glyph-name="Edotaccent" unicode="&#x116;" horiz-adv-x="439" 
d="M302 928v-137h-154v137h154zM52 744h348v-135h-195v-156h164v-138h-164v-178h201v-137h-354v744z" />
    <glyph glyph-name="Emacron" unicode="&#x112;" horiz-adv-x="439" 
d="M52 744h348v-135h-195v-156h164v-138h-164v-178h201v-137h-354v744zM102 802v103h246v-103h-246z" />
    <glyph glyph-name="Eogonek" unicode="&#x118;" horiz-adv-x="439" 
d="M178 -118v5c0 45 41 78 101 113h69c-32 -36 -48 -59 -48 -78v-2c0 -16 13 -24 33 -24h23v-83h-80c-63 0 -98 24 -98 69zM52 744h348v-135h-195v-156h164v-138h-164v-178h201v-137h-354v744z" />
    <glyph glyph-name="Gbreve" unicode="&#x11e;" horiz-adv-x="517" 
d="M259 787h-3c-91 0 -134 48 -134 125v6h104v-4c0 -27 10 -40 31 -40s32 13 32 40v4h105v-6c0 -77 -44 -125 -135 -125zM212 -10h-7c-104 0 -157 81 -157 185v380c0 115 51 197 198 197h24c149 0 192 -78 192 -186v-57h-149v44c0 44 -15 69 -54 69c-35 0 -53 -23 -53 -69
v-359c0 -47 16 -75 59 -75s59 30 59 75v122h-68v124h213v-440h-99c-3 11 -15 46 -24 71c-13 -24 -51 -81 -134 -81z" />
    <glyph glyph-name="Gcircumflex" unicode="&#x11c;" horiz-adv-x="517" 
d="M335 922l82 -133h-121l-38 65l-38 -65h-120l82 133h153zM212 -10h-7c-104 0 -157 81 -157 185v380c0 115 51 197 198 197h24c149 0 192 -78 192 -186v-57h-149v44c0 44 -15 69 -54 69c-35 0 -53 -23 -53 -69v-359c0 -47 16 -75 59 -75s59 30 59 75v122h-68v124h213v-440
h-99c-3 11 -15 46 -24 71c-13 -24 -51 -81 -134 -81z" />
    <glyph glyph-name="uni0122" unicode="&#x122;" horiz-adv-x="517" 
d="M303 -238h-83c13 27 22 53 27 78h-61v115h144v-77c0 -53 -15 -93 -27 -116zM212 -10h-7c-104 0 -157 81 -157 185v380c0 115 51 197 198 197h24c149 0 192 -78 192 -186v-57h-149v44c0 44 -15 69 -54 69c-35 0 -53 -23 -53 -69v-359c0 -47 16 -75 59 -75s59 30 59 75v122
h-68v124h213v-440h-99c-3 11 -15 46 -24 71c-13 -24 -51 -81 -134 -81z" />
    <glyph glyph-name="Gdotaccent" unicode="&#x120;" horiz-adv-x="517" 
d="M335 928v-137h-154v137h154zM212 -10h-7c-104 0 -157 81 -157 185v380c0 115 51 197 198 197h24c149 0 192 -78 192 -186v-57h-149v44c0 44 -15 69 -54 69c-35 0 -53 -23 -53 -69v-359c0 -47 16 -75 59 -75s59 30 59 75v122h-68v124h213v-440h-99c-3 11 -15 46 -24 71
c-13 -24 -51 -81 -134 -81z" />
    <glyph glyph-name="Hbar" unicode="&#x126;" horiz-adv-x="542" 
d="M327 555h-111v-92h111v92zM57 0v555h-54v95h54v94h159v-94h111v94h159v-94h53v-95h-53v-555h-159v311h-111v-311h-159z" />
    <glyph glyph-name="Hcircumflex" unicode="&#x124;" horiz-adv-x="532" 
d="M52 0v744h159v-281h111v281h159v-744h-159v311h-111v-311h-159zM342 922l82 -133h-121l-38 65l-38 -65h-120l82 133h153z" />
    <glyph glyph-name="Ibreve" unicode="&#x12c;" horiz-adv-x="262" 
d="M211 744v-744h-159v744h159zM133 787h-3c-91 0 -134 48 -134 125v6h104v-4c0 -27 10 -40 31 -40s32 13 32 40v4h105v-6c0 -77 -44 -125 -135 -125z" />
    <glyph glyph-name="Idotaccent" unicode="&#x130;" horiz-adv-x="262" 
d="M211 744v-744h-159v744h159zM208 928v-137h-154v137h154z" />
    <glyph glyph-name="Imacron" unicode="&#x12a;" horiz-adv-x="262" 
d="M211 744v-744h-159v744h159zM8 802v103h246v-103h-246z" />
    <glyph glyph-name="Iogonek" unicode="&#x12e;" horiz-adv-x="262" 
d="M211 744v-744h-159v744h159zM42 -118v5c0 45 41 78 101 113h69c-32 -36 -48 -59 -48 -78v-2c0 -16 13 -24 33 -24h23v-83h-80c-63 0 -98 24 -98 69z" />
    <glyph glyph-name="Itilde" unicode="&#x128;" horiz-adv-x="262" 
d="M211 744v-744h-159v744h159zM273 932v-66c0 -45 -22 -72 -58 -72h-2c-27 0 -46 8 -81 23c-20 8 -35 15 -42 15c-6 0 -9 -4 -9 -12v-29h-91v65c0 47 22 72 58 72h2c27 0 46 -8 81 -23c20 -8 35 -15 42 -15c6 0 9 4 9 12v30h91z" />
    <glyph glyph-name="Jcircumflex" unicode="&#x134;" horiz-adv-x="484" 
d="M428 922l82 -133h-121l-38 65l-38 -65h-120l82 133h153zM38 331h146v-148c0 -41 13 -58 45 -58h2c32 0 43 19 43 58v561h160v-572c0 -116 -54 -180 -182 -180h-42c-120 0 -172 55 -172 170v169z" />
    <glyph glyph-name="uni0136" unicode="&#x136;" horiz-adv-x="509" 
d="M319 -238h-83c13 27 22 53 27 78h-61v115h144v-77c0 -53 -15 -93 -27 -116zM208 0h-156v744h156v-317l126 317h156l-139 -341l149 -403h-162l-130 347v-347z" />
    <glyph glyph-name="Lacute" unicode="&#x139;" horiz-adv-x="413" 
d="M64 791l49 131h140l-53 -131h-136zM52 744h158v-601h175v-143h-333v744z" />
    <glyph glyph-name="Lcaron" unicode="&#x13d;" horiz-adv-x="413" 
d="M250 590l11 154h110l-17 -154h-104zM52 744h158v-601h175v-143h-333v744z" />
    <glyph glyph-name="uni013B" unicode="&#x13b;" horiz-adv-x="413" 
d="M263 -238h-83c13 27 22 53 27 78h-61v115h144v-77c0 -53 -15 -93 -27 -116zM52 744h158v-601h175v-143h-333v744z" />
    <glyph glyph-name="Ldot" unicode="&#x13f;" horiz-adv-x="461" 
d="M52 744h158v-601h175v-143h-333v744zM440 472v-168h-158v168h158z" />
    <glyph glyph-name="Nacute" unicode="&#x143;" horiz-adv-x="529" 
d="M196 791l49 131h140l-53 -131h-136zM205 744l100 -310c21 -68 34 -109 43 -148c-3 48 -4 85 -4 181v277h133v-744h-136l-117 338c-21 61 -35 109 -44 146c4 -39 6 -90 6 -181v-303h-134v744h153z" />
    <glyph glyph-name="Ncaron" unicode="&#x147;" horiz-adv-x="529" 
d="M186 791l-81 131h122l37 -64l38 64h120l-81 -131h-155zM205 744l100 -310c21 -68 34 -109 43 -148c-3 48 -4 85 -4 181v277h133v-744h-136l-117 338c-21 61 -35 109 -44 146c4 -39 6 -90 6 -181v-303h-134v744h153z" />
    <glyph glyph-name="uni0145" unicode="&#x145;" horiz-adv-x="529" 
d="M309 -238h-83c13 27 22 53 27 78h-61v115h144v-77c0 -53 -15 -93 -27 -116zM205 744l100 -310c21 -68 34 -109 43 -148c-3 48 -4 85 -4 181v277h133v-744h-136l-117 338c-21 61 -35 109 -44 146c4 -39 6 -90 6 -181v-303h-134v744h153z" />
    <glyph glyph-name="Obreve" unicode="&#x14e;" horiz-adv-x="530" 
d="M266 787h-3c-91 0 -134 48 -134 125v6h104v-4c0 -27 10 -40 31 -40s32 13 32 40v4h105v-6c0 -77 -44 -125 -135 -125zM482 545v-345c0 -133 -65 -210 -204 -210h-25c-143 0 -205 79 -205 210v345c0 132 61 208 204 208h25c143 0 205 -77 205 -208zM322 200v343
c0 53 -20 75 -57 75c-39 0 -57 -22 -57 -75v-343c0 -49 19 -74 57 -74s57 25 57 74z" />
    <glyph glyph-name="Ohungarumlaut" unicode="&#x150;" horiz-adv-x="530" 
d="M284 791l47 131h116l-49 -131h-114zM131 791l44 131h115l-45 -131h-114zM482 545v-345c0 -133 -65 -210 -204 -210h-25c-143 0 -205 79 -205 210v345c0 132 61 208 204 208h25c143 0 205 -77 205 -208zM322 200v343c0 53 -20 75 -57 75c-39 0 -57 -22 -57 -75v-343
c0 -49 19 -74 57 -74s57 25 57 74z" />
    <glyph glyph-name="Omacron" unicode="&#x14c;" horiz-adv-x="530" 
d="M141 802v103h246v-103h-246zM482 545v-345c0 -133 -65 -210 -204 -210h-25c-143 0 -205 79 -205 210v345c0 132 61 208 204 208h25c143 0 205 -77 205 -208zM322 200v343c0 53 -20 75 -57 75c-39 0 -57 -22 -57 -75v-343c0 -49 19 -74 57 -74s57 25 57 74z" />
    <glyph glyph-name="Oslashacute" unicode="&#x1fe;" horiz-adv-x="528" 
d="M277 -10h-23c-67 0 -103 19 -127 39l-16 -29h-86l47 89c-16 29 -24 66 -24 111v345c0 132 62 208 203 208h24c64 0 102 -17 126 -38l15 29h86l-45 -89c15 -28 24 -63 24 -110v-345c0 -133 -67 -210 -204 -210zM200 540v-78c0 -53 -1 -103 -3 -152l127 265
c-8 32 -29 46 -60 46c-41 0 -64 -22 -64 -81zM264 124c43 0 64 26 64 79v79c0 56 0 106 3 155l-128 -264c8 -33 28 -49 61 -49zM195 791l49 131h140l-53 -131h-136z" />
    <glyph glyph-name="Racute" unicode="&#x154;" horiz-adv-x="513" 
d="M183 791l49 131h140l-53 -131h-136zM207 630v-190h49c39 0 55 21 55 64v64c0 45 -14 62 -55 62h-49zM207 318v-318h-155v744h265c97 0 149 -45 149 -145v-69c0 -76 -36 -113 -77 -128c44 -17 77 -51 77 -124v-196c0 -36 5 -61 12 -77v-5h-154c-7 11 -13 32 -13 75v176
c0 47 -15 67 -54 67h-50z" />
    <glyph glyph-name="Rcaron" unicode="&#x158;" horiz-adv-x="513" 
d="M172 791l-81 131h122l37 -64l38 64h120l-81 -131h-155zM207 630v-190h49c39 0 55 21 55 64v64c0 45 -14 62 -55 62h-49zM207 318v-318h-155v744h265c97 0 149 -45 149 -145v-69c0 -76 -36 -113 -77 -128c44 -17 77 -51 77 -124v-196c0 -36 5 -61 12 -77v-5h-154
c-7 11 -13 32 -13 75v176c0 47 -15 67 -54 67h-50z" />
    <glyph glyph-name="uni0156" unicode="&#x156;" horiz-adv-x="513" 
d="M307 -238h-83c13 27 22 53 27 78h-61v115h144v-77c0 -53 -15 -93 -27 -116zM207 630v-190h49c39 0 55 21 55 64v64c0 45 -14 62 -55 62h-49zM207 318v-318h-155v744h265c97 0 149 -45 149 -145v-69c0 -76 -36 -113 -77 -128c44 -17 77 -51 77 -124v-196
c0 -36 5 -61 12 -77v-5h-154c-7 11 -13 32 -13 75v176c0 47 -15 67 -54 67h-50z" />
    <glyph glyph-name="Sacute" unicode="&#x15a;" horiz-adv-x="489" 
d="M253 -9h-24c-133 0 -195 61 -195 161v113h152v-91c0 -37 18 -55 55 -55c35 0 53 21 53 64v8c0 47 -17 69 -56 101l-98 79c-65 51 -100 103 -100 189v21c0 115 66 172 198 172h23c131 0 189 -53 189 -152v-87h-150v63c0 40 -15 57 -50 57c-36 0 -53 -15 -53 -54v-5
c0 -40 15 -60 54 -92l98 -80c72 -61 109 -105 109 -201v-21c0 -106 -58 -190 -205 -190zM180 791l49 131h140l-53 -131h-136z" />
    <glyph glyph-name="uni015E" unicode="&#x15e;" horiz-adv-x="489" 
d="M151 -221v77h69c18 0 27 7 27 20s-9 20 -27 20h-49v100c-93 16 -137 72 -137 156v113h152v-91c0 -37 18 -55 55 -55c35 0 53 21 53 64v8c0 47 -17 69 -56 101l-98 79c-65 51 -100 103 -100 189v21c0 115 66 172 198 172h23c131 0 189 -53 189 -152v-87h-150v63
c0 40 -15 57 -50 57c-36 0 -53 -15 -53 -54v-5c0 -40 15 -60 54 -92l98 -80c72 -61 109 -105 109 -201v-21c0 -106 -58 -190 -205 -190h-1v-36h6c68 0 105 -28 105 -87v-3c0 -56 -37 -86 -120 -86h-92z" />
    <glyph glyph-name="Scircumflex" unicode="&#x15c;" horiz-adv-x="489" 
d="M325 922l82 -133h-121l-38 65l-38 -65h-120l82 133h153zM253 -9h-24c-133 0 -195 61 -195 161v113h152v-91c0 -37 18 -55 55 -55c35 0 53 21 53 64v8c0 47 -17 69 -56 101l-98 79c-65 51 -100 103 -100 189v21c0 115 66 172 198 172h23c131 0 189 -53 189 -152v-87h-150
v63c0 40 -15 57 -50 57c-36 0 -53 -15 -53 -54v-5c0 -40 15 -60 54 -92l98 -80c72 -61 109 -105 109 -201v-21c0 -106 -58 -190 -205 -190z" />
    <glyph glyph-name="uni0218" unicode="&#x218;" horiz-adv-x="489" 
d="M293 -238h-83c13 27 22 53 27 78h-61v115h144v-77c0 -53 -15 -93 -27 -116zM253 -9h-24c-133 0 -195 61 -195 161v113h152v-91c0 -37 18 -55 55 -55c35 0 53 21 53 64v8c0 47 -17 69 -56 101l-98 79c-65 51 -100 103 -100 189v21c0 115 66 172 198 172h23
c131 0 189 -53 189 -152v-87h-150v63c0 40 -15 57 -50 57c-36 0 -53 -15 -53 -54v-5c0 -40 15 -60 54 -92l98 -80c72 -61 109 -105 109 -201v-21c0 -106 -58 -190 -205 -190z" />
    <glyph glyph-name="Tcaron" unicode="&#x164;" horiz-adv-x="449" 
d="M146 791l-81 131h122l37 -64l38 64h120l-81 -131h-155zM147 0v609h-119v135h393v-135h-119v-609h-155z" />
    <glyph glyph-name="Tcommaaccent" unicode="&#x162;" horiz-adv-x="449" 
d="M269 -238h-83c13 27 22 53 27 78h-61v115h144v-77c0 -53 -15 -93 -27 -116zM147 0v609h-119v135h393v-135h-119v-609h-155z" />
    <glyph glyph-name="uni021A" unicode="&#x21a;" horiz-adv-x="449" 
d="M269 -238h-83c13 27 22 53 27 78h-61v115h144v-77c0 -53 -15 -93 -27 -116zM147 0v609h-119v135h393v-135h-119v-609h-155z" />
    <glyph glyph-name="Tbar" unicode="&#x166;" horiz-adv-x="449" 
d="M59 354v103h331v-103h-331zM147 0v609h-119v135h393v-135h-119v-609h-155z" />
    <glyph glyph-name="Ubreve" unicode="&#x16c;" horiz-adv-x="522" 
d="M273 -10h-26c-145 0 -198 79 -198 191v563h158v-551c0 -40 15 -64 54 -64s54 23 54 64v551h157v-563c0 -109 -59 -191 -199 -191zM262 787h-3c-91 0 -134 48 -134 125v6h104v-4c0 -27 10 -40 31 -40s32 13 32 40v4h105v-6c0 -77 -44 -125 -135 -125z" />
    <glyph glyph-name="Uhungarumlaut" unicode="&#x170;" horiz-adv-x="522" 
d="M280 791l47 131h116l-49 -131h-114zM127 791l44 131h115l-45 -131h-114zM273 -10h-26c-145 0 -198 79 -198 191v563h158v-551c0 -40 15 -64 54 -64s54 23 54 64v551h157v-563c0 -109 -59 -191 -199 -191z" />
    <glyph glyph-name="Umacron" unicode="&#x16a;" horiz-adv-x="522" 
d="M273 -10h-26c-145 0 -198 79 -198 191v563h158v-551c0 -40 15 -64 54 -64s54 23 54 64v551h157v-563c0 -109 -59 -191 -199 -191zM137 802v103h246v-103h-246z" />
    <glyph glyph-name="Uogonek" unicode="&#x172;" horiz-adv-x="522" 
d="M395 -187h-79c-64 0 -98 24 -98 69v4c0 43 35 73 88 105c-11 -1 -22 -1 -33 -1h-26c-145 0 -198 79 -198 191v563h158v-551c0 -40 15 -64 54 -64s54 23 54 64v551h157v-563c0 -80 -26 -118 -74 -169c-39 -39 -59 -67 -59 -90v-2c0 -16 11 -24 33 -24h23v-83z" />
    <glyph glyph-name="Uring" unicode="&#x16e;" horiz-adv-x="522" 
d="M273 -10h-26c-145 0 -198 79 -198 191v563h158v-551c0 -40 15 -64 54 -64s54 23 54 64v551h157v-563c0 -109 -59 -191 -199 -191zM260 775c-63 0 -102 38 -102 97c0 57 39 96 102 96s102 -39 102 -96c0 -59 -39 -97 -102 -97zM260 830c25 0 41 17 41 42
c0 24 -16 41 -41 41c-24 0 -40 -17 -40 -41c0 -25 16 -42 40 -42z" />
    <glyph glyph-name="Utilde" unicode="&#x168;" horiz-adv-x="522" 
d="M273 -10h-26c-145 0 -198 79 -198 191v563h158v-551c0 -40 15 -64 54 -64s54 23 54 64v551h157v-563c0 -109 -59 -191 -199 -191zM402 932v-66c0 -45 -22 -72 -58 -72h-2c-27 0 -46 8 -81 23c-20 8 -35 15 -42 15c-6 0 -9 -4 -9 -12v-29h-91v65c0 47 22 72 58 72h2
c27 0 46 -8 81 -23c20 -8 35 -15 42 -15c6 0 9 4 9 12v30h91z" />
    <glyph glyph-name="Wacute" unicode="&#x1e82;" horiz-adv-x="749" 
d="M309 791l49 131h140l-53 -131h-136zM436 0l-36 260c-15 96 -22 156 -25 196c-3 -40 -13 -100 -26 -196l-36 -260h-168l-126 744h157l44 -335c11 -88 20 -163 23 -199c3 37 12 114 24 199l45 335h133l46 -334c11 -87 21 -164 24 -200c3 36 11 111 23 199l44 335h148
l-126 -744h-168z" />
    <glyph glyph-name="Wcircumflex" unicode="&#x174;" horiz-adv-x="749" 
d="M453 922l82 -133h-121l-38 65l-38 -65h-120l82 133h153zM436 0l-36 260c-15 96 -22 156 -25 196c-3 -40 -13 -100 -26 -196l-36 -260h-168l-126 744h157l44 -335c11 -88 20 -163 23 -199c3 37 12 114 24 199l45 335h133l46 -334c11 -87 21 -164 24 -200
c3 36 11 111 23 199l44 335h148l-126 -744h-168z" />
    <glyph glyph-name="Wdieresis" unicode="&#x1e84;" horiz-adv-x="749" 
d="M529 917v-126h-132v126h132zM356 917v-126h-132v126h132zM436 0l-36 260c-15 96 -22 156 -25 196c-3 -40 -13 -100 -26 -196l-36 -260h-168l-126 744h157l44 -335c11 -88 20 -163 23 -199c3 37 12 114 24 199l45 335h133l46 -334c11 -87 21 -164 24 -200
c3 36 11 111 23 199l44 335h148l-126 -744h-168z" />
    <glyph glyph-name="Wgrave" unicode="&#x1e80;" horiz-adv-x="749" 
d="M446 791h-136l-53 131h140zM436 0l-36 260c-15 96 -22 156 -25 196c-3 -40 -13 -100 -26 -196l-36 -260h-168l-126 744h157l44 -335c11 -88 20 -163 23 -199c3 37 12 114 24 199l45 335h133l46 -334c11 -87 21 -164 24 -200c3 36 11 111 23 199l44 335h148l-126 -744
h-168z" />
    <glyph glyph-name="Ycircumflex" unicode="&#x176;" horiz-adv-x="460" 
d="M150 0v281l-141 463h159l67 -281l66 281h150l-136 -466v-278h-165zM310 922l82 -133h-121l-38 65l-38 -65h-120l82 133h153z" />
    <glyph glyph-name="Ygrave" unicode="&#x1ef2;" horiz-adv-x="460" 
d="M150 0v281l-141 463h159l67 -281l66 281h150l-136 -466v-278h-165zM302 791h-136l-53 131h140z" />
    <glyph glyph-name="Zacute" unicode="&#x179;" horiz-adv-x="463" 
d="M165 791l49 131h140l-53 -131h-136zM430 0h-393v121l209 490h-200v133h374v-119l-212 -490h222v-135z" />
    <glyph glyph-name="Zdotaccent" unicode="&#x17b;" horiz-adv-x="463" 
d="M430 0h-393v121l209 490h-200v133h374v-119l-212 -490h222v-135zM310 928v-137h-154v137h154z" />
    <glyph glyph-name="abreve" unicode="&#x103;" horiz-adv-x="477" 
d="M276 155v123c-17 -9 -47 -25 -62 -36c-21 -15 -32 -27 -32 -60v-30c0 -31 14 -51 45 -51s49 23 49 54zM36 123v65c0 75 31 108 100 136c35 14 94 35 123 48c15 7 17 12 17 29v5c0 35 -11 51 -48 51h-2c-35 0 -46 -17 -46 -52v-33h-137v46c0 85 41 144 177 144h18
c136 0 184 -51 184 -144v-266c0 -20 4 -28 27 -28h12v-124h-122c-36 0 -56 24 -60 63c-17 -22 -55 -68 -120 -68h-2c-75 0 -121 53 -121 128zM229 600h-3c-91 0 -133 46 -133 126v13h104v-10c0 -27 10 -41 31 -41c23 0 30 14 30 41v10h104v-13c0 -80 -42 -126 -133 -126z
" />
    <glyph glyph-name="amacron" unicode="&#x101;" horiz-adv-x="477" 
d="M276 155v123c-17 -9 -47 -25 -62 -36c-21 -15 -32 -27 -32 -60v-30c0 -31 14 -51 45 -51s49 23 49 54zM36 123v65c0 75 31 108 100 136c35 14 94 35 123 48c15 7 17 12 17 29v5c0 35 -11 51 -48 51h-2c-35 0 -46 -17 -46 -52v-33h-137v46c0 85 41 144 177 144h18
c136 0 184 -51 184 -144v-266c0 -20 4 -28 27 -28h12v-124h-122c-36 0 -56 24 -60 63c-17 -22 -55 -68 -120 -68h-2c-75 0 -121 53 -121 128zM107 616v103h246v-103h-246z" />
    <glyph glyph-name="aogonek" unicode="&#x105;" horiz-adv-x="477" 
d="M276 155v123c-17 -9 -47 -25 -62 -36c-21 -15 -32 -27 -32 -60v-30c0 -31 14 -51 45 -51s49 23 49 54zM36 123v65c0 75 31 108 100 136c35 14 94 35 123 48c15 7 17 12 17 29v5c0 35 -11 51 -48 51h-2c-35 0 -46 -17 -46 -52v-33h-137v46c0 85 41 144 177 144h18
c136 0 184 -51 184 -144v-266c0 -20 4 -28 27 -28h12v-124h-122c-36 0 -56 24 -60 63c-17 -22 -55 -68 -120 -68h-2c-75 0 -121 53 -121 128zM291 -118v5c0 45 41 78 101 113h69c-32 -36 -48 -59 -48 -78v-2c0 -16 13 -24 33 -24h23v-83h-80c-63 0 -98 24 -98 69z" />
    <glyph glyph-name="aringacute" unicode="&#x1fb;" horiz-adv-x="477" 
d="M276 155v123c-17 -9 -47 -25 -62 -36c-21 -15 -32 -27 -32 -60v-30c0 -31 14 -51 45 -51s49 23 49 54zM36 123v65c0 75 31 108 100 136c35 14 94 35 123 48c15 7 17 12 17 29v5c0 35 -11 51 -48 51h-2c-35 0 -46 -17 -46 -52v-33h-137v46c0 85 41 144 177 144h18
c136 0 184 -51 184 -144v-266c0 -20 4 -28 27 -28h12v-124h-122c-36 0 -56 24 -60 63c-17 -22 -55 -68 -120 -68h-2c-75 0 -121 53 -121 128zM162 818l51 154h135l-56 -154h-130zM227 598c-63 0 -102 39 -102 96c0 59 39 96 102 96s102 -37 102 -96c0 -57 -39 -96 -102 -96z
M227 653c25 0 41 17 41 41c0 25 -16 41 -41 41c-24 0 -40 -16 -40 -41c0 -24 16 -41 40 -41z" />
    <glyph glyph-name="aeacute" unicode="&#x1fd;" horiz-adv-x="706" 
d="M288 603l51 154h135l-56 -154h-130zM423 403v-53h98v53c0 37 -16 56 -48 56c-33 0 -50 -19 -50 -56zM275 152v117c-17 -9 -47 -25 -62 -36c-20 -15 -31 -29 -31 -60v-24c0 -31 13 -51 44 -51s49 23 49 54zM665 206v-50c0 -108 -65 -168 -182 -168h-24
c-77 0 -134 28 -159 75c-21 -31 -62 -72 -133 -72h-2c-84 0 -129 56 -129 129v60c0 73 31 107 100 135c35 16 93 35 122 48c15 7 17 12 17 29v15c0 33 -11 50 -48 50h-2c-35 0 -46 -18 -46 -51v-42h-136v54c0 87 43 144 169 144h18c77 0 112 -26 125 -42c13 15 46 41 109 41
h24c105 0 177 -49 177 -173v-129h-242v-103c0 -33 13 -56 50 -56c33 0 46 23 46 56v50h146z" />
    <glyph glyph-name="cacute" unicode="&#x107;" horiz-adv-x="472" 
d="M176 603l51 154h135l-56 -154h-130zM254 -11h-25c-131 0 -186 66 -186 170v228c0 109 55 175 187 175h24c131 0 178 -61 178 -162v-57h-143v47c0 41 -11 59 -46 59c-33 0 -46 -19 -46 -59v-226c0 -37 13 -60 45 -60c35 0 47 23 47 60v65h143v-75
c0 -92 -49 -165 -178 -165z" />
    <glyph glyph-name="ccaron" unicode="&#x10d;" horiz-adv-x="472" 
d="M165 603l-77 154h114l38 -83l38 83h113l-77 -154h-149zM254 -11h-25c-131 0 -186 66 -186 170v228c0 109 55 175 187 175h24c131 0 178 -61 178 -162v-57h-143v47c0 41 -11 59 -46 59c-33 0 -46 -19 -46 -59v-226c0 -37 13 -60 45 -60c35 0 47 23 47 60v65h143v-75
c0 -92 -49 -165 -178 -165z" />
    <glyph glyph-name="ccircumflex" unicode="&#x109;" horiz-adv-x="472" 
d="M318 757l76 -155h-116l-37 84l-37 -84h-115l76 155h153zM254 -11h-25c-131 0 -186 66 -186 170v228c0 109 55 175 187 175h24c131 0 178 -61 178 -162v-57h-143v47c0 41 -11 59 -46 59c-33 0 -46 -19 -46 -59v-226c0 -37 13 -60 45 -60c35 0 47 23 47 60v65h143v-75
c0 -92 -49 -165 -178 -165z" />
    <glyph glyph-name="cdotaccent" unicode="&#x10b;" horiz-adv-x="472" 
d="M254 -11h-25c-131 0 -186 66 -186 170v228c0 109 55 175 187 175h24c131 0 178 -61 178 -162v-57h-143v47c0 41 -11 59 -46 59c-33 0 -46 -19 -46 -59v-226c0 -37 13 -60 45 -60c35 0 47 23 47 60v65h143v-75c0 -92 -49 -165 -178 -165zM312 740v-137h-154v137h154z" />
    <glyph glyph-name="dcaron" unicode="&#x10f;" horiz-adv-x="499" 
d="M489 603l11 154h110l-17 -154h-104zM247 106c35 0 51 24 51 64v207c0 41 -15 65 -51 65c-35 0 -48 -24 -48 -65v-207c0 -43 16 -64 48 -64zM298 757h152v-757h-152v62c-13 -24 -52 -69 -118 -69h-4c-84 0 -131 59 -131 147v274c0 85 44 141 125 141h4
c72 0 107 -41 124 -60v262z" />
    <glyph glyph-name="ebreve" unicode="&#x115;" horiz-adv-x="475" 
d="M192 404v-54h98v54c0 37 -17 56 -50 56c-32 0 -48 -19 -48 -56zM434 205v-48c0 -108 -63 -168 -184 -168h-25c-117 0 -182 57 -182 170v231c0 109 59 172 184 172h27c111 0 180 -49 180 -173v-131h-242v-101c0 -33 12 -57 48 -57c35 0 49 24 49 56v49h145zM241 600h-3
c-91 0 -133 46 -133 126v13h104v-10c0 -27 10 -41 31 -41c23 0 30 14 30 41v10h104v-13c0 -80 -42 -126 -133 -126z" />
    <glyph glyph-name="ecaron" unicode="&#x11b;" horiz-adv-x="475" 
d="M164 603l-77 154h114l38 -83l38 83h113l-77 -154h-149zM192 404v-54h98v54c0 37 -17 56 -50 56c-32 0 -48 -19 -48 -56zM434 205v-48c0 -108 -63 -168 -184 -168h-25c-117 0 -182 57 -182 170v231c0 109 59 172 184 172h27c111 0 180 -49 180 -173v-131h-242v-101
c0 -33 12 -57 48 -57c35 0 49 24 49 56v49h145z" />
    <glyph glyph-name="edotaccent" unicode="&#x117;" horiz-adv-x="475" 
d="M192 404v-54h98v54c0 37 -17 56 -50 56c-32 0 -48 -19 -48 -56zM434 205v-48c0 -108 -63 -168 -184 -168h-25c-117 0 -182 57 -182 170v231c0 109 59 172 184 172h27c111 0 180 -49 180 -173v-131h-242v-101c0 -33 12 -57 48 -57c35 0 49 24 49 56v49h145zM316 740v-137
h-154v137h154z" />
    <glyph glyph-name="emacron" unicode="&#x113;" horiz-adv-x="475" 
d="M192 404v-54h98v54c0 37 -17 56 -50 56c-32 0 -48 -19 -48 -56zM434 205v-48c0 -108 -63 -168 -184 -168h-25c-117 0 -182 57 -182 170v231c0 109 59 172 184 172h27c111 0 180 -49 180 -173v-131h-242v-101c0 -33 12 -57 48 -57c35 0 49 24 49 56v49h145zM116 616v103
h246v-103h-246z" />
    <glyph glyph-name="eogonek" unicode="&#x119;" horiz-adv-x="475" 
d="M192 404v-54h98v54c0 38 -17 57 -50 57c-32 0 -48 -19 -48 -57zM382 -103v-84h-80c-64 0 -99 23 -99 70v4c0 41 35 73 88 105c-13 -2 -27 -3 -41 -3h-25c-117 0 -182 57 -182 170v231c0 108 59 172 184 172h27c111 0 180 -49 180 -173v-130h-242v-103
c0 -33 12 -56 48 -56c35 0 49 23 49 56v50h145v-49c0 -59 -19 -100 -51 -141c-33 -43 -57 -69 -57 -93v-2c0 -16 11 -24 34 -24h22z" />
    <glyph glyph-name="gbreve" unicode="&#x11f;" horiz-adv-x="501" 
d="M248 107c33 0 50 25 50 65v204c0 41 -18 65 -51 65c-35 0 -48 -22 -48 -65v-205c0 -39 14 -64 49 -64zM298 -37v99c-13 -20 -54 -66 -119 -66h-2c-85 0 -132 54 -132 150v253c0 96 39 156 127 156h2c72 0 111 -43 126 -66v62h152v-595c0 -84 -45 -153 -188 -153h-33
c-141 0 -179 55 -179 140v21h147v-6c0 -31 11 -46 48 -46h3c35 0 48 16 48 51zM243 600h-3c-91 0 -133 46 -133 126v13h104v-10c0 -27 10 -41 31 -41c23 0 30 14 30 41v10h104v-13c0 -80 -42 -126 -133 -126z" />
    <glyph glyph-name="gcircumflex" unicode="&#x11d;" horiz-adv-x="501" 
d="M320 757l76 -155h-116l-37 84l-37 -84h-115l76 155h153zM248 107c33 0 50 25 50 65v204c0 41 -18 65 -51 65c-35 0 -48 -22 -48 -65v-205c0 -39 14 -64 49 -64zM298 -37v99c-13 -20 -54 -66 -119 -66h-2c-85 0 -132 54 -132 150v253c0 96 39 156 127 156h2
c72 0 111 -43 126 -66v62h152v-595c0 -84 -45 -153 -188 -153h-33c-141 0 -179 55 -179 140v21h147v-6c0 -31 11 -46 48 -46h3c35 0 48 16 48 51z" />
    <glyph glyph-name="uni0123" unicode="&#x123;" horiz-adv-x="501" 
d="M199 797h85c-13 -27 -22 -54 -27 -77h61v-117h-146v78c0 53 16 93 27 116zM248 107c33 0 50 25 50 65v204c0 41 -18 65 -51 65c-35 0 -48 -22 -48 -65v-205c0 -39 14 -64 49 -64zM298 -37v99c-13 -20 -54 -66 -119 -66h-2c-85 0 -132 54 -132 150v253
c0 96 39 156 127 156h2c72 0 111 -43 126 -66v62h152v-595c0 -84 -45 -153 -188 -153h-33c-141 0 -179 55 -179 140v21h147v-6c0 -31 11 -46 48 -46h3c35 0 48 16 48 51z" />
    <glyph glyph-name="gdotaccent" unicode="&#x121;" horiz-adv-x="501" 
d="M248 107c33 0 50 25 50 65v204c0 41 -18 65 -51 65c-35 0 -48 -22 -48 -65v-205c0 -39 14 -64 49 -64zM298 -37v99c-13 -20 -54 -66 -119 -66h-2c-85 0 -132 54 -132 150v253c0 96 39 156 127 156h2c72 0 111 -43 126 -66v62h152v-595c0 -84 -45 -153 -188 -153h-33
c-141 0 -179 55 -179 140v21h147v-6c0 -31 11 -46 48 -46h3c35 0 48 16 48 51zM323 740v-137h-154v137h154z" />
    <glyph glyph-name="hbar" unicode="&#x127;" horiz-adv-x="504" 
d="M-9 693h327v-91h-327v91zM49 0v757h153v-270c8 13 48 69 124 69h6c83 0 124 -51 124 -126v-430h-154v377c0 36 -14 62 -50 62s-50 -26 -50 -65v-374h-153z" />
    <glyph glyph-name="hcircumflex" unicode="&#x125;" horiz-adv-x="504" 
d="M300 969l76 -155h-116l-37 84l-37 -84h-115l76 155h153zM49 0v757h153v-270c8 13 48 69 124 69h6c83 0 124 -51 124 -126v-430h-154v377c0 36 -14 62 -50 62s-50 -26 -50 -65v-374h-153z" />
    <glyph glyph-name="ibreve" unicode="&#x12d;" horiz-adv-x="252" 
d="M128 600h-4c-88 0 -130 46 -130 126v12h103v-9c0 -27 10 -41 29 -41s29 14 29 41v9h103v-12c0 -80 -42 -126 -130 -126zM202 551v-551h-153v551h153z" />
    <glyph glyph-name="idotaccent" horiz-adv-x="252" 
d="M202 740v-137h-153v137h153zM202 551v-551h-153v551h153z" />
    <glyph glyph-name="imacron" unicode="&#x12b;" horiz-adv-x="252" 
d="M10 616v103h232v-103h-232zM202 551v-551h-153v551h153z" />
    <glyph glyph-name="iogonek" unicode="&#x12f;" horiz-adv-x="252" 
d="M202 740v-137h-153v137h153zM202 551v-551h-153v551h153zM33 -118v5c0 45 41 78 101 113h69c-32 -36 -48 -59 -48 -78v-2c0 -16 13 -24 33 -24h23v-83h-80c-63 0 -98 24 -98 69z" />
    <glyph glyph-name="itilde" unicode="&#x129;" horiz-adv-x="252" 
d="M255 753v-76c0 -44 -20 -72 -53 -72h-1c-25 0 -43 8 -74 27c-24 15 -32 20 -39 20c-5 0 -7 -4 -7 -13v-36h-84v75c0 45 20 72 53 72h2c25 0 43 -8 74 -27c23 -13 31 -19 38 -19c5 0 8 4 8 13v36h83zM202 551v-551h-153v551h153z" />
    <glyph glyph-name="jcircumflex" unicode="&#x135;" horiz-adv-x="253" 
d="M206 757l70 -155h-114l-35 87l-35 -87h-113l70 155h157zM-35 -59h53c25 0 32 9 32 34v576h153v-626c0 -68 -32 -111 -100 -111h-138v127z" />
    <glyph glyph-name="uni0137" unicode="&#x137;" horiz-adv-x="488" 
d="M307 -238h-83c13 27 22 53 27 78h-61v115h144v-77c0 -53 -15 -93 -27 -116zM202 0h-153v757h153v-422l112 216h158l-130 -244l143 -307h-163l-120 264v-264z" />
    <glyph glyph-name="lacute" unicode="&#x13a;" horiz-adv-x="251" 
d="M59 804l49 131h140l-53 -131h-136zM202 757v-757h-153v757h153z" />
    <glyph glyph-name="lcaron" unicode="&#x13e;" horiz-adv-x="251" 
d="M242 603l11 154h110l-17 -154h-104zM202 757v-757h-153v757h153z" />
    <glyph glyph-name="uni013C" unicode="&#x13c;" horiz-adv-x="251" 
d="M171 -238h-83c13 27 22 53 27 78h-61v115h144v-77c0 -53 -15 -93 -27 -116zM202 757v-757h-153v757h153z" />
    <glyph glyph-name="ldot" unicode="&#x140;" horiz-adv-x="442" 
d="M202 757v-757h-153v757h153zM426 447v-168h-158v168h158z" />
    <glyph glyph-name="nacute" unicode="&#x144;" horiz-adv-x="504" 
d="M186 603l51 154h135l-56 -154h-130zM49 0v551h151v-67c8 16 50 73 126 73h6c83 0 124 -52 124 -127v-430h-154v377c0 36 -14 62 -50 62s-50 -26 -50 -65v-374h-153z" />
    <glyph glyph-name="napostrophe" unicode="&#x149;" horiz-adv-x="664" 
d="M119 452h-91c15 36 31 91 38 139h-65v153h154v-113c0 -81 -25 -152 -36 -179zM209 0v551h151v-67c8 16 50 73 126 73h6c83 0 124 -52 124 -127v-430h-154v377c0 36 -14 62 -50 62s-50 -26 -50 -65v-374h-153z" />
    <glyph glyph-name="ncaron" unicode="&#x148;" horiz-adv-x="504" 
d="M175 603l-77 154h114l38 -83l38 83h113l-77 -154h-149zM49 0v551h151v-67c8 16 50 73 126 73h6c83 0 124 -52 124 -127v-430h-154v377c0 36 -14 62 -50 62s-50 -26 -50 -65v-374h-153z" />
    <glyph glyph-name="uni0146" unicode="&#x146;" horiz-adv-x="504" 
d="M297 -238h-83c13 27 22 53 27 78h-61v115h144v-77c0 -53 -15 -93 -27 -116zM49 0v551h151v-67c8 16 50 73 126 73h6c83 0 124 -52 124 -127v-430h-154v377c0 36 -14 62 -50 62s-50 -26 -50 -65v-374h-153z" />
    <glyph glyph-name="obreve" unicode="&#x14f;" horiz-adv-x="495" 
d="M262 -11h-29c-136 0 -190 71 -190 178v217c0 108 57 178 190 178h29c132 0 190 -67 190 -178v-216c0 -108 -62 -179 -190 -179zM247 105c36 0 51 23 51 62v218c0 41 -17 62 -51 62c-33 0 -50 -21 -50 -62v-218c0 -39 15 -62 50 -62zM247 600h-3c-91 0 -133 46 -133 126
v13h104v-10c0 -27 10 -41 31 -41c23 0 30 14 30 41v10h104v-13c0 -80 -42 -126 -133 -126z" />
    <glyph glyph-name="ohungarumlaut" unicode="&#x151;" horiz-adv-x="495" 
d="M268 603l50 154h116l-52 -154h-114zM114 603l45 154h117l-48 -154h-114zM262 -11h-29c-136 0 -190 71 -190 178v217c0 108 57 178 190 178h29c132 0 190 -67 190 -178v-216c0 -108 -62 -179 -190 -179zM247 105c36 0 51 23 51 62v218c0 41 -17 62 -51 62
c-33 0 -50 -21 -50 -62v-218c0 -39 15 -62 50 -62z" />
    <glyph glyph-name="omacron" unicode="&#x14d;" horiz-adv-x="495" 
d="M123 616v103h246v-103h-246zM262 -11h-29c-136 0 -190 71 -190 178v217c0 108 57 178 190 178h29c132 0 190 -67 190 -178v-216c0 -108 -62 -179 -190 -179zM247 105c36 0 51 23 51 62v218c0 41 -17 62 -51 62c-33 0 -50 -21 -50 -62v-218c0 -39 15 -62 50 -62z" />
    <glyph glyph-name="oslashacute" unicode="&#x1ff;" horiz-adv-x="492" 
d="M261 -11h-29c-52 0 -89 15 -116 34l-16 -23h-75l45 66c-16 25 -27 58 -27 101v217c0 108 57 178 188 178h29c55 0 91 -15 114 -34l16 23h77l-45 -66c16 -25 27 -58 27 -101v-216c0 -108 -64 -179 -188 -179zM186 379v-18c0 -57 -1 -96 -2 -131l116 188
c-10 20 -28 30 -54 30c-40 0 -60 -23 -60 -69zM246 105c43 0 60 27 60 68v18c0 56 1 96 2 131l-115 -187c9 -20 27 -30 53 -30zM180 603l51 154h135l-56 -154h-130z" />
    <glyph glyph-name="racute" unicode="&#x155;" horiz-adv-x="455" 
d="M172 603l51 154h135l-56 -154h-130zM202 382v-382h-153v551h151v-66c9 14 40 71 114 71h4c77 0 105 -47 105 -120v-152h-141v98c0 39 -11 56 -40 56s-40 -17 -40 -56z" />
    <glyph glyph-name="rcaron" unicode="&#x159;" horiz-adv-x="455" 
d="M161 603l-77 154h114l38 -83l38 83h113l-77 -154h-149zM202 382v-382h-153v551h151v-66c9 14 40 71 114 71h4c77 0 105 -47 105 -120v-152h-141v98c0 39 -11 56 -40 56s-40 -17 -40 -56z" />
    <glyph glyph-name="uni0157" unicode="&#x157;" horiz-adv-x="455" 
d="M171 -238h-83c13 27 22 53 27 78h-61v115h144v-77c0 -53 -15 -93 -27 -116zM202 382v-382h-153v551h151v-66c9 14 40 71 114 71h4c77 0 105 -47 105 -120v-152h-141v98c0 39 -11 56 -40 56s-40 -17 -40 -56z" />
    <glyph glyph-name="sacute" unicode="&#x15b;" horiz-adv-x="440" 
d="M155 603l51 154h135l-56 -154h-130zM232 -11h-30c-124 0 -172 59 -172 143v61h139v-43c0 -35 13 -53 48 -53s48 18 48 46v1c0 31 -12 43 -45 62l-86 50c-67 39 -100 79 -100 156v7c0 88 51 142 176 142h24c128 0 170 -48 170 -135v-45h-135v29c0 39 -14 50 -49 50
c-30 0 -45 -13 -45 -39c0 -31 16 -39 43 -56l94 -58c75 -45 99 -84 99 -159v-6c0 -85 -52 -153 -179 -153z" />
    <glyph glyph-name="uni015F" unicode="&#x15f;" horiz-adv-x="440" 
d="M124 -221v77h69c18 0 27 7 27 20s-9 20 -27 20h-49v98c-83 16 -114 69 -114 138v61h139v-43c0 -35 13 -53 48 -53s48 18 48 46v1c0 31 -12 43 -45 62l-86 50c-67 39 -100 79 -100 156v7c0 88 51 142 176 142h24c128 0 170 -48 170 -135v-45h-135v29c0 39 -14 50 -49 50
c-30 0 -45 -13 -45 -39c0 -31 16 -39 43 -56l94 -58c75 -45 99 -84 99 -159v-6c0 -85 -52 -153 -179 -153h-8v-34h7c68 0 105 -28 105 -87v-3c0 -57 -40 -86 -120 -86h-92z" />
    <glyph glyph-name="scircumflex" unicode="&#x15d;" horiz-adv-x="440" 
d="M297 757l76 -155h-116l-37 84l-37 -84h-115l76 155h153zM232 -11h-30c-124 0 -172 59 -172 143v61h139v-43c0 -35 13 -53 48 -53s48 18 48 46v1c0 31 -12 43 -45 62l-86 50c-67 39 -100 79 -100 156v7c0 88 51 142 176 142h24c128 0 170 -48 170 -135v-45h-135v29
c0 39 -14 50 -49 50c-30 0 -45 -13 -45 -39c0 -31 16 -39 43 -56l94 -58c75 -45 99 -84 99 -159v-6c0 -85 -52 -153 -179 -153z" />
    <glyph glyph-name="uni0219" unicode="&#x219;" horiz-adv-x="440" 
d="M265 -238h-83c13 27 22 53 27 78h-61v115h144v-77c0 -53 -15 -93 -27 -116zM232 -11h-30c-124 0 -172 59 -172 143v61h139v-43c0 -35 13 -53 48 -53s48 18 48 46v1c0 31 -12 43 -45 62l-86 50c-67 39 -100 79 -100 156v7c0 88 51 142 176 142h24c128 0 170 -48 170 -135
v-45h-135v29c0 39 -14 50 -49 50c-30 0 -45 -13 -45 -39c0 -31 16 -39 43 -56l94 -58c75 -45 99 -84 99 -159v-6c0 -85 -52 -153 -179 -153z" />
    <glyph glyph-name="tbar" unicode="&#x167;" horiz-adv-x="388" 
d="M353 122v-122h-146c-64 0 -96 31 -96 94v153h-84v100h84v83h-84v121h84v177h152v-177h90v-121h-90v-83h90v-100h-90v-95c0 -23 6 -30 29 -30h61z" />
    <glyph glyph-name="tcaron" unicode="&#x165;" horiz-adv-x="378" 
d="M297 603l11 154h110l-17 -154h-104zM348 0h-146c-64 0 -96 31 -96 94v336h-84v121h84v177h152v-177h90v-121h-90v-278c0 -23 5 -30 29 -30h61v-122z" />
    <glyph glyph-name="tcommaaccent" unicode="&#x163;" horiz-adv-x="378" 
d="M283 -238h-83c13 27 22 53 27 78h-61v115h144v-77c0 -53 -15 -93 -27 -116zM348 0h-146c-64 0 -96 31 -96 94v336h-84v121h84v177h152v-177h90v-121h-90v-278c0 -23 5 -30 29 -30h61v-122z" />
    <glyph glyph-name="uni021B" unicode="&#x21b;" horiz-adv-x="378" 
d="M283 -238h-83c13 27 22 53 27 78h-61v115h144v-77c0 -53 -15 -93 -27 -116zM348 0h-146c-64 0 -96 31 -96 94v336h-84v121h84v177h152v-177h90v-121h-90v-278c0 -23 5 -30 29 -30h61v-122z" />
    <glyph glyph-name="ubreve" unicode="&#x16d;" horiz-adv-x="498" 
d="M449 551v-551h-150v67c-16 -27 -62 -72 -126 -72h-6c-75 0 -119 50 -119 122v434h154v-384c0 -35 15 -57 46 -57c32 0 49 21 49 60v381h152zM248 600h-3c-91 0 -133 46 -133 126v13h104v-10c0 -27 10 -41 31 -41c23 0 30 14 30 41v10h104v-13c0 -80 -42 -126 -133 -126z
" />
    <glyph glyph-name="uhungarumlaut" unicode="&#x171;" horiz-adv-x="498" 
d="M449 551v-551h-150v67c-16 -27 -62 -72 -126 -72h-6c-75 0 -119 50 -119 122v434h154v-384c0 -35 15 -57 46 -57c32 0 49 21 49 60v381h152zM271 603l50 154h116l-52 -154h-114zM117 603l45 154h117l-48 -154h-114z" />
    <glyph glyph-name="umacron" unicode="&#x16b;" horiz-adv-x="498" 
d="M449 551v-551h-150v67c-16 -27 -62 -72 -126 -72h-6c-75 0 -119 50 -119 122v434h154v-384c0 -35 15 -57 46 -57c32 0 49 21 49 60v381h152zM125 616v103h246v-103h-246z" />
    <glyph glyph-name="uogonek" unicode="&#x173;" horiz-adv-x="498" 
d="M279 -118v5c0 45 41 78 101 113h69c-32 -36 -48 -59 -48 -78v-2c0 -16 13 -24 33 -24h23v-83h-80c-63 0 -98 24 -98 69zM449 551v-551h-150v67c-16 -27 -62 -72 -126 -72h-6c-75 0 -119 50 -119 122v434h154v-384c0 -35 15 -57 46 -57c32 0 49 21 49 60v381h152z" />
    <glyph glyph-name="uring" unicode="&#x16f;" horiz-adv-x="498" 
d="M247 598c-63 0 -102 39 -102 96c0 59 39 96 102 96s102 -37 102 -96c0 -57 -39 -96 -102 -96zM247 653c25 0 41 17 41 41c0 25 -16 41 -41 41c-24 0 -40 -16 -40 -41c0 -24 16 -41 40 -41zM449 551v-551h-150v67c-16 -27 -62 -72 -126 -72h-6c-75 0 -119 50 -119 122v434
h154v-384c0 -35 15 -57 46 -57c32 0 49 21 49 60v381h152z" />
    <glyph glyph-name="utilde" unicode="&#x169;" horiz-adv-x="498" 
d="M449 551v-551h-150v67c-16 -27 -62 -72 -126 -72h-6c-75 0 -119 50 -119 122v434h154v-384c0 -35 15 -57 46 -57c32 0 49 21 49 60v381h152zM387 753v-76c0 -45 -22 -72 -59 -72h-1c-27 0 -47 7 -79 26c-25 15 -34 20 -41 20c-5 0 -8 -4 -8 -12v-36h-89v75
c0 45 22 72 59 72h1c27 0 48 -7 79 -26c25 -15 34 -20 41 -20c5 0 8 4 8 13v36h89z" />
    <glyph glyph-name="wacute" unicode="&#x1e83;" horiz-adv-x="684" 
d="M282 603l51 154h135l-56 -154h-130zM343 326c-4 -28 -11 -68 -27 -151l-34 -175h-153l-116 551h153l30 -199c13 -79 19 -123 24 -163c5 40 12 85 27 164l35 198h129l36 -198c16 -82 21 -124 26 -164c4 40 11 80 23 163l31 199h143l-111 -551h-153l-36 175
c-16 83 -23 123 -27 151z" />
    <glyph glyph-name="wcircumflex" unicode="&#x175;" horiz-adv-x="684" 
d="M419 757l76 -155h-116l-37 84l-37 -84h-115l76 155h153zM343 326c-4 -28 -11 -68 -27 -151l-34 -175h-153l-116 551h153l30 -199c13 -79 19 -123 24 -163c5 40 12 85 27 164l35 198h129l36 -198c16 -82 21 -124 26 -164c4 40 11 80 23 163l31 199h143l-111 -551h-153
l-36 175c-16 83 -23 123 -27 151z" />
    <glyph glyph-name="wdieresis" unicode="&#x1e85;" horiz-adv-x="684" 
d="M493 729v-126h-131v126h131zM323 729v-126h-132v126h132zM343 326c-4 -28 -11 -68 -27 -151l-34 -175h-153l-116 551h153l30 -199c13 -79 19 -123 24 -163c5 40 12 85 27 164l35 198h129l36 -198c16 -82 21 -124 26 -164c4 40 11 80 23 163l31 199h143l-111 -551h-153
l-36 175c-16 83 -23 123 -27 151z" />
    <glyph glyph-name="wgrave" unicode="&#x1e81;" horiz-adv-x="684" 
d="M343 326c-4 -28 -11 -68 -27 -151l-34 -175h-153l-116 551h153l30 -199c13 -79 19 -123 24 -163c5 40 12 85 27 164l35 198h129l36 -198c16 -82 21 -124 26 -164c4 40 11 80 23 163l31 199h143l-111 -551h-153l-36 175c-16 83 -23 123 -27 151zM407 603h-130l-56 154h135
z" />
    <glyph glyph-name="ycircumflex" unicode="&#x177;" horiz-adv-x="454" 
d="M46 -186v123h69c19 0 26 4 30 16c3 8 4 16 4 23c0 15 -4 31 -12 64l-124 511h155l63 -372l60 372h149l-144 -642c-15 -64 -44 -95 -108 -95h-142zM305 757l76 -155h-116l-37 84l-37 -84h-115l76 155h153z" />
    <glyph glyph-name="ygrave" unicode="&#x1ef3;" horiz-adv-x="454" 
d="M46 -186v123h69c19 0 26 4 30 16c3 8 4 16 4 23c0 15 -4 31 -12 64l-124 511h155l63 -372l60 372h149l-144 -642c-15 -64 -44 -95 -108 -95h-142zM293 603h-130l-56 154h135z" />
    <glyph glyph-name="zacute" unicode="&#x17a;" horiz-adv-x="407" 
d="M139 603l51 154h135l-56 -154h-130zM374 0h-341v109l166 322h-158v120h327v-107l-166 -321h172v-123z" />
    <glyph glyph-name="zdotaccent" unicode="&#x17c;" horiz-adv-x="407" 
d="M374 0h-341v109l166 322h-158v120h327v-107l-166 -321h172v-123zM281 740v-137h-154v137h154z" />
    <glyph glyph-name="space_uni0326" horiz-adv-x="400" 
d="M245 -238h-83c13 27 22 53 27 78h-61v115h144v-77c0 -53 -15 -93 -27 -116z" />
    <glyph glyph-name="oneeighth" unicode="&#x215b;" horiz-adv-x="759" 
d="M98 613h-71v82c60 0 79 15 90 50h90v-402h-109v270zM500 744h95l-433 -744h-95zM725 129v-22c0 -71 -36 -112 -139 -112h-20c-103 0 -138 41 -138 112v22c0 57 40 75 58 83c-20 8 -53 28 -53 81v15c0 55 32 97 135 97h16c103 0 136 -42 136 -97v-15
c0 -54 -34 -73 -54 -81c18 -8 59 -26 59 -83zM613 279v15c0 23 -9 35 -37 35c-27 0 -36 -12 -36 -35v-15c0 -21 10 -34 37 -34s36 13 36 34zM576 175c-28 0 -37 -15 -37 -36v-25c0 -21 9 -36 37 -36c29 0 38 15 38 36v25c0 21 -9 36 -38 36z" />
    <glyph glyph-name="onethird" unicode="&#x2153;" horiz-adv-x="748" 
d="M98 613h-71v82c60 0 79 15 90 50h90v-402h-109v270zM499 744h95l-433 -744h-95zM534 278h-101v25c0 51 16 102 124 102h14c107 0 137 -40 137 -96v-12c0 -48 -31 -63 -52 -68c21 -5 58 -22 58 -78v-44c0 -61 -36 -112 -137 -112h-17c-108 0 -132 48 -132 108v36h105v-24
c0 -21 8 -33 35 -33c25 0 34 12 34 33v23c0 21 -6 28 -29 28h-64v86h61c24 0 28 8 28 27v17c0 19 -6 31 -33 31c-25 0 -31 -12 -31 -31v-18z" />
    <glyph glyph-name="threeeighths" unicode="&#x215c;" horiz-adv-x="836" 
d="M580 744h95l-433 -744h-95zM141 621h-101v25c0 51 16 102 124 102h14c107 0 137 -40 137 -96v-12c0 -48 -31 -63 -52 -68c21 -5 58 -22 58 -78v-44c0 -61 -36 -112 -137 -112h-17c-108 0 -132 48 -132 108v36h105v-24c0 -21 8 -33 35 -33c25 0 34 12 34 33v23
c0 21 -6 28 -29 28h-64v86h61c24 0 28 8 28 27v17c0 19 -6 31 -33 31c-25 0 -31 -12 -31 -31v-18zM803 129v-22c0 -71 -36 -112 -139 -112h-20c-103 0 -138 41 -138 112v22c0 57 40 75 58 83c-20 8 -53 28 -53 81v15c0 55 32 97 135 97h16c103 0 136 -42 136 -97v-15
c0 -54 -34 -73 -54 -81c18 -8 59 -26 59 -83zM691 279v15c0 23 -9 35 -37 35c-27 0 -36 -12 -36 -35v-15c0 -21 10 -34 37 -34s36 13 36 34zM654 175c-28 0 -37 -15 -37 -36v-25c0 -21 9 -36 37 -36c29 0 38 15 38 36v25c0 21 -9 36 -38 36z" />
    <glyph glyph-name="fiveeighths" unicode="&#x215d;" horiz-adv-x="840" 
d="M584 744h95l-433 -744h-95zM150 516h-104v228h268v-85h-166v-69c8 8 32 39 85 39h3c61 0 89 -37 89 -92v-89c0 -64 -41 -110 -137 -110h-17c-100 0 -131 47 -131 101v42h107v-27c0 -19 8 -31 32 -31c23 0 31 14 31 31v64c0 19 -7 33 -31 33c-23 0 -29 -14 -29 -33v-2z
M807 129v-22c0 -71 -36 -112 -139 -112h-20c-103 0 -138 41 -138 112v22c0 57 40 75 58 83c-20 8 -53 28 -53 81v15c0 55 32 97 135 97h16c103 0 136 -42 136 -97v-15c0 -54 -34 -73 -54 -81c18 -8 59 -26 59 -83zM695 279v15c0 23 -9 35 -37 35c-27 0 -36 -12 -36 -35v-15
c0 -21 10 -34 37 -34s36 13 36 34zM658 175c-28 0 -37 -15 -37 -36v-25c0 -21 9 -36 37 -36c29 0 38 15 38 36v25c0 21 -9 36 -38 36z" />
    <glyph glyph-name="twothirds" unicode="&#x2154;" horiz-adv-x="848" 
d="M328 343h-296v43c0 47 3 76 76 141l61 53c33 28 39 37 39 57v1c0 20 -8 33 -33 33c-24 0 -32 -12 -32 -39v-29h-102v39c0 59 28 106 128 106h14c107 0 138 -45 138 -106v-4c0 -48 -20 -75 -59 -104c-24 -19 -45 -31 -68 -46c-57 -39 -67 -54 -67 -63h100v52h101v-134z
M599 744h95l-433 -744h-95zM634 278h-101v25c0 51 16 102 124 102h14c107 0 137 -40 137 -96v-12c0 -48 -31 -63 -52 -68c21 -5 58 -22 58 -78v-44c0 -61 -36 -112 -137 -112h-17c-108 0 -132 48 -132 108v36h105v-24c0 -21 8 -33 35 -33c25 0 34 12 34 33v23
c0 21 -6 28 -29 28h-64v86h61c24 0 28 8 28 27v17c0 19 -6 31 -33 31c-25 0 -31 -12 -31 -31v-18z" />
    <glyph glyph-name="seveneighths" unicode="&#x215e;" horiz-adv-x="784" 
d="M35 744h268v-77c-7 -20 -23 -65 -42 -133c-20 -65 -30 -109 -30 -165v-26h-131v22c0 56 15 88 50 160c43 88 64 125 64 138h-82v-53h-97v134zM528 744h95l-433 -744h-95zM751 129v-22c0 -71 -36 -112 -139 -112h-20c-103 0 -138 41 -138 112v22c0 57 40 75 58 83
c-20 8 -53 28 -53 81v15c0 55 32 97 135 97h16c103 0 136 -42 136 -97v-15c0 -54 -34 -73 -54 -81c18 -8 59 -26 59 -83zM639 279v15c0 23 -9 35 -37 35c-27 0 -36 -12 -36 -35v-15c0 -21 10 -34 37 -34s36 13 36 34zM602 175c-28 0 -37 -15 -37 -36v-25c0 -21 9 -36 37 -36
c29 0 38 15 38 36v25c0 21 -9 36 -38 36z" />
    <glyph glyph-name="uni2032" unicode="&#x2032;" horiz-adv-x="217" 
d="M192 744l-41 -247h-126l39 247h128z" />
    <glyph glyph-name="uni2033" unicode="&#x2033;" horiz-adv-x="398" 
d="M373 744l-44 -246h-125l42 246h127zM190 744l-40 -246h-125l38 246h127z" />
    <glyph glyph-name="uni24C5" unicode="&#x24c5;" horiz-adv-x="705" 
d="M657 485v-223c0 -187 -108 -274 -290 -274h-29c-183 0 -290 85 -290 273v224c0 181 106 271 291 271h27c181 0 291 -91 291 -271zM340 60h25c140 0 210 68 210 203v219c0 137 -65 202 -210 202h-25c-145 0 -210 -65 -210 -202v-219c0 -135 70 -203 210 -203zM399 312h-67
v-191h-116v503h183c75 0 116 -35 116 -116v-79c0 -81 -41 -117 -116 -117zM332 534v-132h29c27 0 39 11 39 40v53c0 31 -12 39 -39 39h-29z" />
    <glyph glyph-name="space.tab" horiz-adv-x="250" 
 />
    <glyph glyph-name="cent.tab" 
d="M282 -76h-49v65c-144 3 -184 87 -184 187v199c0 102 40 179 184 184v63h49v-63c137 -3 174 -73 174 -170v-45h-125v26c0 48 -10 72 -49 79v-346c39 7 48 31 48 78v46h126v-68c0 -84 -41 -167 -174 -170v-65zM184 370v-189c0 -47 12 -71 49 -78v346
c-39 -7 -49 -31 -49 -79z" />
    <glyph glyph-name="florin.tab" 
d="M450 360h-139l-40 -546h-148l39 546h-117v119h125l11 150c5 80 40 115 125 115h145v-117h-82c-31 0 -39 -9 -42 -40l-8 -108h131v-119z" />
    <glyph glyph-name="period.tab" horiz-adv-x="250" 
d="M204 167v-167h-158v167h158z" />
    <glyph glyph-name="comma.tab" horiz-adv-x="250" 
d="M166 -138h-92c11 27 33 88 39 138h-67v167h158v-128c0 -77 -27 -149 -38 -177z" />
    <glyph glyph-name="colon.tab" horiz-adv-x="250" 
d="M204 464v-167h-158v167h158zM204 167v-167h-158v167h158z" />
    <glyph glyph-name="semicolon.tab" horiz-adv-x="250" 
d="M166 -138h-92c11 27 33 88 39 138h-67v167h158v-128c0 -77 -27 -149 -38 -177zM204 464v-167h-158v167h158z" />
    <glyph glyph-name="zero.num" unicode="&#xe416;" horiz-adv-x="379" 
d="M195 338h-12c-101 0 -143 52 -143 135v141c0 84 42 135 143 135h12c103 0 143 -51 143 -135v-141c0 -83 -40 -135 -143 -135zM188 660c-24 0 -36 -15 -36 -46v-139c0 -31 12 -46 36 -46c25 0 38 15 38 46v139c0 31 -13 46 -38 46z" />
    <glyph glyph-name="one.num" unicode="&#xe417;" horiz-adv-x="255" 
d="M98 613h-71v82c60 0 79 15 90 50h90v-402h-109v270z" />
    <glyph glyph-name="two.num" unicode="&#xe418;" horiz-adv-x="361" 
d="M328 343h-296v43c0 47 3 76 76 141l61 53c33 28 39 37 39 57v1c0 20 -8 33 -33 33c-24 0 -32 -12 -32 -39v-29h-102v39c0 59 28 106 128 106h14c107 0 138 -45 138 -106v-4c0 -48 -20 -75 -59 -104c-24 -19 -45 -31 -68 -46c-57 -39 -67 -54 -67 -63h100v52h101v-134z
" />
    <glyph glyph-name="three.num" unicode="&#xe419;" horiz-adv-x="357" 
d="M141 621h-101v25c0 51 16 102 124 102h14c107 0 137 -40 137 -96v-12c0 -48 -31 -63 -52 -68c21 -5 58 -22 58 -78v-44c0 -61 -36 -112 -137 -112h-17c-108 0 -132 48 -132 108v36h105v-24c0 -21 8 -33 35 -33c25 0 34 12 34 33v23c0 21 -6 28 -29 28h-64v86h61
c24 0 28 8 28 27v17c0 19 -6 31 -33 31c-25 0 -31 -12 -31 -31v-18z" />
    <glyph glyph-name="four.num" unicode="&#xe41a;" horiz-adv-x="355" 
d="M24 421v76c37 63 108 181 143 248h107v-234h59v-90h-59v-78h-107v78h-143zM167 511v123l-69 -123h69z" />
    <glyph glyph-name="five.num" unicode="&#xe41b;" horiz-adv-x="361" 
d="M150 516h-104v228h268v-85h-166v-69c8 8 32 39 85 39h3c61 0 89 -37 89 -92v-89c0 -64 -41 -110 -137 -110h-17c-100 0 -131 47 -131 101v42h107v-27c0 -19 8 -31 32 -31c23 0 31 14 31 31v64c0 19 -7 33 -31 33c-23 0 -29 -14 -29 -33v-2z" />
    <glyph glyph-name="six.num" unicode="&#xe41c;" horiz-adv-x="371" 
d="M242 600h3c64 0 90 -41 90 -93v-49c0 -68 -39 -120 -138 -120h-17c-104 0 -140 51 -140 123v161c0 76 35 126 134 126h17c106 0 133 -47 133 -114v-11h-110v7c0 23 -5 37 -32 37c-24 0 -30 -14 -30 -37v-69c8 11 34 39 90 39zM152 489v-31c0 -24 12 -36 36 -36
c27 0 35 13 35 36v31c0 24 -8 38 -35 38s-36 -14 -36 -38z" />
    <glyph glyph-name="seven.num" unicode="&#xe41d;" horiz-adv-x="336" 
d="M35 744h268v-77c-7 -20 -23 -65 -42 -133c-20 -65 -30 -109 -30 -165v-26h-131v22c0 56 15 88 50 160c43 88 64 125 64 138h-82v-53h-97v134z" />
    <glyph glyph-name="eight.num" unicode="&#xe41e;" horiz-adv-x="368" 
d="M333 472v-22c0 -71 -36 -112 -139 -112h-20c-103 0 -138 41 -138 112v22c0 57 40 75 58 83c-20 8 -53 28 -53 81v15c0 55 32 97 135 97h16c103 0 136 -42 136 -97v-15c0 -54 -34 -73 -54 -81c18 -8 59 -26 59 -83zM221 622v15c0 23 -9 35 -37 35c-27 0 -36 -12 -36 -35
v-15c0 -21 10 -34 37 -34s36 13 36 34zM184 518c-28 0 -37 -15 -37 -36v-25c0 -21 9 -36 37 -36c29 0 38 15 38 36v25c0 21 -9 36 -38 36z" />
    <glyph glyph-name="nine.num" unicode="&#xe41f;" horiz-adv-x="371" 
d="M218 597v30c0 24 -9 38 -36 38c-25 0 -35 -15 -35 -38v-30c0 -23 10 -38 35 -38c27 0 36 15 36 38zM132 486h-3c-65 0 -94 43 -94 100v45c0 68 37 117 138 117h16c104 0 141 -51 141 -123v-160c0 -77 -37 -127 -134 -127h-17c-107 0 -132 45 -132 112v13h110v-7
c0 -23 6 -36 31 -36s31 13 31 36v69c-8 -10 -32 -39 -87 -39z" />
    <glyph glyph-name="zero.den" unicode="&#xe402;" horiz-adv-x="379" 
d="M195 -5h-12c-101 0 -143 52 -143 135v141c0 84 42 135 143 135h12c103 0 143 -51 143 -135v-141c0 -83 -40 -135 -143 -135zM188 317c-24 0 -36 -15 -36 -46v-139c0 -31 12 -46 36 -46c25 0 38 15 38 46v139c0 31 -13 46 -38 46z" />
    <glyph glyph-name="one.den" unicode="&#xe403;" horiz-adv-x="255" 
d="M98 270h-71v82c60 0 79 15 90 50h90v-402h-109v270z" />
    <glyph glyph-name="two.den" unicode="&#xe404;" horiz-adv-x="361" 
d="M328 0h-296v43c0 47 3 76 76 141l61 53c33 28 39 37 39 57v1c0 20 -8 33 -33 33c-24 0 -32 -12 -32 -39v-29h-102v39c0 59 28 106 128 106h14c107 0 138 -45 138 -106v-4c0 -48 -20 -75 -59 -104c-24 -19 -45 -31 -68 -46c-57 -39 -67 -54 -67 -63h100v52h101v-134z" />
    <glyph glyph-name="three.den" unicode="&#xe405;" horiz-adv-x="357" 
d="M141 278h-101v25c0 51 16 102 124 102h14c107 0 137 -40 137 -96v-12c0 -48 -31 -63 -52 -68c21 -5 58 -22 58 -78v-44c0 -61 -36 -112 -137 -112h-17c-108 0 -132 48 -132 108v36h105v-24c0 -21 8 -33 35 -33c25 0 34 12 34 33v23c0 21 -6 28 -29 28h-64v86h61
c24 0 28 8 28 27v17c0 19 -6 31 -33 31c-25 0 -31 -12 -31 -31v-18z" />
    <glyph glyph-name="four.den" unicode="&#xe406;" horiz-adv-x="355" 
d="M24 78v76c37 63 108 181 143 248h107v-234h59v-90h-59v-78h-107v78h-143zM167 168v123l-69 -123h69z" />
    <glyph glyph-name="five.den" unicode="&#xe407;" horiz-adv-x="361" 
d="M150 173h-104v228h268v-85h-166v-69c8 8 32 39 85 39h3c61 0 89 -37 89 -92v-89c0 -64 -41 -110 -137 -110h-17c-100 0 -131 47 -131 101v42h107v-27c0 -19 8 -31 32 -31c23 0 31 14 31 31v64c0 19 -7 33 -31 33c-23 0 -29 -14 -29 -33v-2z" />
    <glyph glyph-name="six.den" unicode="&#xe408;" horiz-adv-x="371" 
d="M242 257h3c64 0 90 -41 90 -93v-49c0 -68 -39 -120 -138 -120h-17c-104 0 -140 51 -140 123v161c0 76 35 126 134 126h17c106 0 133 -47 133 -114v-11h-110v7c0 23 -5 37 -32 37c-24 0 -30 -14 -30 -37v-69c8 11 34 39 90 39zM152 146v-31c0 -24 12 -36 36 -36
c27 0 35 13 35 36v31c0 24 -8 38 -35 38s-36 -14 -36 -38z" />
    <glyph glyph-name="seven.den" unicode="&#xe409;" horiz-adv-x="336" 
d="M35 401h268v-77c-7 -20 -23 -65 -42 -133c-20 -65 -30 -109 -30 -165v-26h-131v22c0 56 15 88 50 160c43 88 64 125 64 138h-82v-53h-97v134z" />
    <glyph glyph-name="eight.den" unicode="&#xe40a;" horiz-adv-x="368" 
d="M333 129v-22c0 -71 -36 -112 -139 -112h-20c-103 0 -138 41 -138 112v22c0 57 40 75 58 83c-20 8 -53 28 -53 81v15c0 55 32 97 135 97h16c103 0 136 -42 136 -97v-15c0 -54 -34 -73 -54 -81c18 -8 59 -26 59 -83zM221 279v15c0 23 -9 35 -37 35c-27 0 -36 -12 -36 -35
v-15c0 -21 10 -34 37 -34s36 13 36 34zM184 175c-28 0 -37 -15 -37 -36v-25c0 -21 9 -36 37 -36c29 0 38 15 38 36v25c0 21 -9 36 -38 36z" />
    <glyph glyph-name="nine.den" unicode="&#xe40b;" horiz-adv-x="371" 
d="M218 254v30c0 24 -9 38 -36 38c-25 0 -35 -15 -35 -38v-30c0 -23 10 -38 35 -38c27 0 36 15 36 38zM132 143h-3c-65 0 -94 43 -94 100v45c0 68 37 117 138 117h16c104 0 141 -51 141 -123v-160c0 -77 -37 -127 -134 -127h-17c-107 0 -132 45 -132 112v13h110v-7
c0 -23 6 -36 31 -36s31 13 31 36v69c-8 -10 -32 -39 -87 -39z" />
    <glyph glyph-name="zero.sub" unicode="&#x2080;" horiz-adv-x="417" 
d="M214 -138h-12c-112 0 -158 57 -158 148v156c0 89 46 148 158 148h12c113 0 159 -57 159 -148v-156c0 -91 -46 -148 -159 -148zM208 216c-27 0 -40 -17 -40 -50v-154c0 -34 13 -51 40 -51s41 17 41 51v154c0 33 -14 50 -41 50z" />
    <glyph glyph-name="one.sub" unicode="&#x2081;" horiz-adv-x="281" 
d="M108 165h-79v90c67 0 89 16 100 55h99v-442h-120v297z" />
    <glyph glyph-name="two.sub" unicode="&#x2082;" horiz-adv-x="397" 
d="M361 -132h-326v46c0 54 4 84 84 156l68 58c33 29 42 40 42 63c0 24 -8 37 -36 37c-27 0 -35 -14 -35 -42v-33h-113v44c0 64 29 116 140 116h17c117 0 151 -49 151 -117v-5c0 -52 -24 -83 -64 -114c-27 -20 -50 -34 -74 -50c-64 -43 -75 -61 -75 -70h110v58h111v-147z" />
    <glyph glyph-name="three.sub" unicode="&#x2083;" horiz-adv-x="393" 
d="M155 173h-111v28c0 56 17 112 137 112h15c117 0 150 -45 150 -106v-12c0 -53 -33 -71 -57 -76c25 -6 65 -23 65 -86v-48c0 -67 -40 -123 -152 -123h-18c-120 0 -145 51 -145 118v40h115v-26c0 -23 11 -37 39 -37c27 0 37 13 37 37v25c0 24 -7 31 -32 31h-71v95h68
c27 0 31 10 31 29v19c0 20 -7 35 -36 35s-35 -15 -35 -35v-20z" />
    <glyph glyph-name="four.sub" unicode="&#x2084;" horiz-adv-x="390" 
d="M26 -47v84c40 69 118 201 158 273h117v-258h66v-99h-66v-85h-117v85h-158zM184 52v135l-76 -135h76z" />
    <glyph glyph-name="five.sub" unicode="&#x2085;" horiz-adv-x="398" 
d="M165 58h-115v251h295v-94h-182v-75c9 9 34 43 93 43h4c67 0 98 -42 98 -101v-99c0 -72 -46 -121 -150 -121h-19c-112 0 -145 51 -145 111v47h118v-30c0 -19 8 -35 35 -35s34 16 34 35v71c0 20 -7 35 -34 35c-25 0 -32 -15 -32 -35v-3z" />
    <glyph glyph-name="six.sub" unicode="&#x2086;" horiz-adv-x="408" 
d="M266 150h4c69 0 99 -46 99 -102v-54c0 -75 -43 -132 -152 -132h-19c-115 0 -154 56 -154 136v176c0 84 40 139 148 139h18c116 0 146 -50 146 -126v-12h-121v8c0 27 -7 41 -34 41s-34 -14 -34 -41v-76c9 12 38 43 99 43zM168 28v-34c0 -27 13 -40 38 -40
c29 0 40 16 40 40v33c0 27 -11 42 -40 42c-25 0 -38 -14 -38 -41z" />
    <glyph glyph-name="seven.sub" unicode="&#x2087;" horiz-adv-x="370" 
d="M39 309h294v-84c-7 -23 -25 -72 -46 -147c-23 -71 -33 -121 -33 -182v-28h-144v24c0 61 15 100 55 176c48 96 70 137 70 152h-90v-59h-106v148z" />
    <glyph glyph-name="eight.sub" unicode="&#x2088;" horiz-adv-x="406" 
d="M366 9v-24c0 -79 -41 -123 -152 -123h-22c-112 0 -153 44 -153 123v24c0 61 43 84 64 92c-21 8 -58 30 -58 89v16c0 61 35 107 148 107h19c112 0 149 -46 149 -107v-16c0 -58 -39 -81 -59 -89c21 -8 64 -30 64 -92zM244 175v16c0 24 -11 38 -42 38c-27 0 -40 -13 -40 -38
v-16c0 -24 10 -38 41 -38s41 14 41 38zM202 60c-31 0 -41 -17 -41 -40v-27c0 -24 10 -39 41 -39c32 0 42 15 42 39v27c0 23 -9 40 -42 40z" />
    <glyph glyph-name="nine.sub" unicode="&#x2089;" horiz-adv-x="408" 
d="M241 147v33c0 27 -13 41 -40 41c-29 0 -39 -16 -39 -41v-33c0 -27 10 -42 39 -42s40 15 40 42zM145 25h-4c-72 0 -102 46 -102 109v50c0 75 40 129 151 129h18c114 0 156 -56 156 -135v-177c0 -84 -41 -139 -148 -139h-19c-117 0 -145 49 -145 124v13h121v-8
c0 -25 6 -39 33 -39c28 0 35 14 35 39v76c-8 -11 -36 -42 -96 -42z" />
    <glyph glyph-name="zero.sup" unicode="&#x2070;" horiz-adv-x="417" 
d="M214 310h-12c-112 0 -158 57 -158 148v156c0 89 46 148 158 148h12c113 0 159 -57 159 -148v-156c0 -91 -46 -148 -159 -148zM208 664c-27 0 -40 -17 -40 -50v-154c0 -34 13 -51 40 -51s41 17 41 51v154c0 33 -14 50 -41 50z" />
    <glyph glyph-name="one.sup" unicode="&#xb9;" horiz-adv-x="281" 
d="M108 613h-79v90c67 0 89 16 100 55h99v-442h-120v297z" />
    <glyph glyph-name="two.sup" unicode="&#xb2;" horiz-adv-x="397" 
d="M361 316h-326v46c0 54 4 84 84 156l68 58c33 29 42 40 42 63c0 24 -8 37 -36 37c-27 0 -35 -14 -35 -42v-33h-113v44c0 64 29 116 140 116h17c117 0 151 -49 151 -117v-5c0 -52 -24 -83 -64 -114c-27 -20 -50 -34 -74 -50c-64 -43 -75 -61 -75 -70h110v58h111v-147z" />
    <glyph glyph-name="three.sup" unicode="&#xb3;" horiz-adv-x="393" 
d="M155 621h-111v28c0 56 17 112 137 112h15c117 0 150 -45 150 -106v-12c0 -53 -33 -71 -57 -76c25 -6 65 -23 65 -86v-48c0 -67 -40 -123 -152 -123h-18c-120 0 -145 51 -145 118v40h115v-26c0 -23 11 -37 39 -37c27 0 37 13 37 37v25c0 24 -7 31 -32 31h-71v95h68
c27 0 31 10 31 29v19c0 20 -7 35 -36 35s-35 -15 -35 -35v-20z" />
    <glyph glyph-name="four.sup" unicode="&#x2074;" horiz-adv-x="390" 
d="M26 401v84c40 69 118 201 158 273h117v-258h66v-99h-66v-85h-117v85h-158zM184 500v135l-76 -135h76z" />
    <glyph glyph-name="five.sup" unicode="&#x2075;" horiz-adv-x="398" 
d="M165 506h-115v251h295v-94h-182v-75c9 9 34 43 93 43h4c67 0 98 -42 98 -101v-99c0 -72 -46 -121 -150 -121h-19c-112 0 -145 51 -145 111v47h118v-30c0 -19 8 -35 35 -35s34 16 34 35v71c0 20 -7 35 -34 35c-25 0 -32 -15 -32 -35v-3z" />
    <glyph glyph-name="six.sup" unicode="&#x2076;" horiz-adv-x="408" 
d="M266 598h4c69 0 99 -46 99 -102v-54c0 -75 -43 -132 -152 -132h-19c-115 0 -154 56 -154 136v176c0 84 40 139 148 139h18c116 0 146 -50 146 -126v-12h-121v8c0 27 -7 41 -34 41s-34 -14 -34 -41v-76c9 12 38 43 99 43zM168 476v-34c0 -27 13 -40 38 -40
c29 0 40 16 40 40v33c0 27 -11 42 -40 42c-25 0 -38 -14 -38 -41z" />
    <glyph glyph-name="seven.sup" unicode="&#x2077;" horiz-adv-x="370" 
d="M39 757h294v-84c-7 -23 -25 -72 -46 -147c-23 -71 -33 -121 -33 -182v-28h-144v24c0 61 15 100 55 176c48 96 70 137 70 152h-90v-59h-106v148z" />
    <glyph glyph-name="eight.sup" unicode="&#x2078;" horiz-adv-x="406" 
d="M366 457v-24c0 -79 -41 -123 -152 -123h-22c-112 0 -153 44 -153 123v24c0 61 43 84 64 92c-21 8 -58 30 -58 89v16c0 61 35 107 148 107h19c112 0 149 -46 149 -107v-16c0 -58 -39 -81 -59 -89c21 -8 64 -30 64 -92zM244 623v16c0 24 -11 38 -42 38
c-27 0 -40 -13 -40 -38v-16c0 -24 10 -38 41 -38s41 14 41 38zM202 508c-31 0 -41 -17 -41 -40v-27c0 -24 10 -39 41 -39c32 0 42 15 42 39v27c0 23 -9 40 -42 40z" />
    <glyph glyph-name="nine.sup" unicode="&#x2079;" horiz-adv-x="408" 
d="M241 595v33c0 27 -13 41 -40 41c-29 0 -39 -16 -39 -41v-33c0 -27 10 -42 39 -42s40 15 40 42zM145 473h-4c-72 0 -102 46 -102 109v50c0 75 40 129 151 129h18c114 0 156 -56 156 -135v-177c0 -84 -41 -139 -148 -139h-19c-117 0 -145 49 -145 124v13h121v-8
c0 -25 6 -39 33 -39c28 0 35 14 35 39v76c-8 -11 -36 -42 -96 -42z" />
    <glyph glyph-name="E.alt" horiz-adv-x="432" 
d="M52 744h339v-135h-186v-156h178v-138h-178v-178h190v-137h-343v744z" />
    <glyph glyph-name="F.alt" horiz-adv-x="418" 
d="M52 0v744h332v-135h-179v-156h173v-138h-173v-315h-153z" />
    <glyph glyph-name="J.alt" horiz-adv-x="343" 
d="M25 0v143h66c32 0 41 13 41 42v559h160v-607c0 -89 -39 -137 -131 -137h-136z" />
    <glyph glyph-name="IJ.alt" horiz-adv-x="606" 
d="M211 744v-744h-159v744h159zM287 0v143h66c32 0 41 13 41 42v559h160v-607c0 -89 -39 -137 -131 -137h-136z" />
    <glyph glyph-name="a.alt" horiz-adv-x="470" 
d="M276 155v123c-17 -9 -47 -25 -62 -36c-21 -15 -32 -28 -32 -60v-30c0 -31 14 -51 45 -51s49 23 49 54zM422 418v-271c0 -92 7 -124 13 -141v-6h-147c-3 8 -9 28 -10 63c-14 -22 -55 -68 -119 -68h-2c-75 0 -121 52 -121 128v65c0 75 31 108 100 136c35 14 94 35 123 48
c15 7 17 12 17 29v5c0 35 -11 51 -48 51h-2c-35 0 -46 -17 -46 -52v-33h-137v46c0 85 44 144 177 144h18c135 0 184 -51 184 -144z" />
    <glyph glyph-name="a.alt2" horiz-adv-x="495" 
d="M245 106c35 0 49 24 49 63v210c0 39 -14 63 -49 63c-33 0 -46 -24 -46 -63v-211c0 -39 15 -62 46 -62zM294 551h152v-551h-152v62c-16 -29 -53 -69 -117 -69h-3c-79 0 -129 60 -129 145v279c0 83 46 138 123 138h4c68 0 104 -36 122 -60v56z" />
    <glyph glyph-name="r.alt" horiz-adv-x="385" 
d="M201 551v-81c20 45 55 85 116 85h4c19 0 33 -3 37 -4v-164c-9 3 -31 8 -63 8h-5c-59 0 -87 -18 -87 -66v-329h-154v551h152z" />
    <glyph glyph-name="Eacute.alt" horiz-adv-x="432" 
d="M153 791l49 131h140l-53 -131h-136zM52 744h339v-135h-186v-156h178v-138h-178v-178h190v-137h-343v744z" />
    <glyph glyph-name="Ebreve.alt" horiz-adv-x="432" 
d="M223 787h-3c-91 0 -134 48 -134 125v6h104v-4c0 -27 10 -40 31 -40s32 13 32 40v4h105v-6c0 -77 -44 -125 -135 -125zM52 744h339v-135h-186v-156h178v-138h-178v-178h190v-137h-343v744z" />
    <glyph glyph-name="Ecaron.alt" horiz-adv-x="432" 
d="M143 791l-81 131h122l37 -64l38 64h120l-81 -131h-155zM52 744h339v-135h-186v-156h178v-138h-178v-178h190v-137h-343v744z" />
    <glyph glyph-name="Ecircumflex.alt" horiz-adv-x="432" 
d="M298 922l82 -133h-121l-38 65l-38 -65h-120l82 133h153zM52 744h339v-135h-186v-156h178v-138h-178v-178h190v-137h-343v744z" />
    <glyph glyph-name="Edieresis.alt" horiz-adv-x="432" 
d="M374 917v-126h-132v126h132zM201 917v-126h-132v126h132zM52 744h339v-135h-186v-156h178v-138h-178v-178h190v-137h-343v744z" />
    <glyph glyph-name="Edotaccent.alt" horiz-adv-x="432" 
d="M298 928v-137h-154v137h154zM52 744h339v-135h-186v-156h178v-138h-178v-178h190v-137h-343v744z" />
    <glyph glyph-name="Egrave.alt" horiz-adv-x="432" 
d="M291 791h-136l-53 131h140zM52 744h339v-135h-186v-156h178v-138h-178v-178h190v-137h-343v744z" />
    <glyph glyph-name="Emacron.alt" horiz-adv-x="432" 
d="M98 802v103h246v-103h-246zM52 744h339v-135h-186v-156h178v-138h-178v-178h190v-137h-343v744z" />
    <glyph glyph-name="Eogonek.alt" horiz-adv-x="432" 
d="M169 -118v5c0 45 41 78 101 113h69c-32 -36 -48 -59 -48 -78v-2c0 -16 13 -24 33 -24h23v-83h-80c-63 0 -98 24 -98 69zM52 744h339v-135h-186v-156h178v-138h-178v-178h190v-137h-343v744z" />
    <glyph glyph-name="Jcircumflex.alt" horiz-adv-x="343" 
d="M286 922l82 -133h-121l-38 65l-38 -65h-120l82 133h153zM25 0v143h66c32 0 41 13 41 42v559h160v-607c0 -89 -39 -137 -131 -137h-136z" />
    <glyph glyph-name="aacute.alt" horiz-adv-x="470" 
d="M160 603l51 154h135l-56 -154h-130zM276 155v123c-17 -9 -47 -25 -62 -36c-21 -15 -32 -28 -32 -60v-30c0 -31 14 -51 45 -51s49 23 49 54zM422 418v-271c0 -92 7 -124 13 -141v-6h-147c-3 8 -9 28 -10 63c-14 -22 -55 -68 -119 -68h-2c-75 0 -121 52 -121 128v65
c0 75 31 108 100 136c35 14 94 35 123 48c15 7 17 12 17 29v5c0 35 -11 51 -48 51h-2c-35 0 -46 -17 -46 -52v-33h-137v46c0 85 44 144 177 144h18c135 0 184 -51 184 -144z" />
    <glyph glyph-name="aacute.alt2" horiz-adv-x="495" 
d="M170 603l51 154h135l-56 -154h-130zM245 106c35 0 49 24 49 63v210c0 39 -14 63 -49 63c-33 0 -46 -24 -46 -63v-211c0 -39 15 -62 46 -62zM294 551h152v-551h-152v62c-16 -29 -53 -69 -117 -69h-3c-79 0 -129 60 -129 145v279c0 83 46 138 123 138h4
c68 0 104 -36 122 -60v56z" />
    <glyph glyph-name="abreve.alt" horiz-adv-x="470" 
d="M276 155v123c-17 -9 -47 -25 -62 -36c-21 -15 -32 -28 -32 -60v-30c0 -31 14 -51 45 -51s49 23 49 54zM422 418v-271c0 -92 7 -124 13 -141v-6h-147c-3 8 -9 28 -10 63c-14 -22 -55 -68 -119 -68h-2c-75 0 -121 52 -121 128v65c0 75 31 108 100 136c35 14 94 35 123 48
c15 7 17 12 17 29v5c0 35 -11 51 -48 51h-2c-35 0 -46 -17 -46 -52v-33h-137v46c0 85 44 144 177 144h18c135 0 184 -51 184 -144zM229 600h-3c-91 0 -133 46 -133 126v13h104v-10c0 -27 10 -41 31 -41c23 0 30 14 30 41v10h104v-13c0 -80 -42 -126 -133 -126z" />
    <glyph glyph-name="abreve.alt2" horiz-adv-x="495" 
d="M245 106c35 0 49 24 49 63v210c0 39 -14 63 -49 63c-33 0 -46 -24 -46 -63v-211c0 -39 15 -62 46 -62zM294 551h152v-551h-152v62c-16 -29 -53 -69 -117 -69h-3c-79 0 -129 60 -129 145v279c0 83 46 138 123 138h4c68 0 104 -36 122 -60v56zM241 600h-3
c-91 0 -133 46 -133 126v13h104v-10c0 -27 10 -41 31 -41c23 0 30 14 30 41v10h104v-13c0 -80 -42 -126 -133 -126z" />
    <glyph glyph-name="acircumflex.alt" horiz-adv-x="470" 
d="M302 757l76 -155h-116l-37 84l-37 -84h-115l76 155h153zM276 155v123c-17 -9 -47 -25 -62 -36c-21 -15 -32 -28 -32 -60v-30c0 -31 14 -51 45 -51s49 23 49 54zM422 418v-271c0 -92 7 -124 13 -141v-6h-147c-3 8 -9 28 -10 63c-14 -22 -55 -68 -119 -68h-2
c-75 0 -121 52 -121 128v65c0 75 31 108 100 136c35 14 94 35 123 48c15 7 17 12 17 29v5c0 35 -11 51 -48 51h-2c-35 0 -46 -17 -46 -52v-33h-137v46c0 85 44 144 177 144h18c135 0 184 -51 184 -144z" />
    <glyph glyph-name="acircumflex.alt2" horiz-adv-x="495" 
d="M317 757l76 -155h-116l-37 84l-37 -84h-115l76 155h153zM245 106c35 0 49 24 49 63v210c0 39 -14 63 -49 63c-33 0 -46 -24 -46 -63v-211c0 -39 15 -62 46 -62zM294 551h152v-551h-152v62c-16 -29 -53 -69 -117 -69h-3c-79 0 -129 60 -129 145v279c0 83 46 138 123 138h4
c68 0 104 -36 122 -60v56z" />
    <glyph glyph-name="adieresis.alt" horiz-adv-x="470" 
d="M381 729v-126h-131v126h131zM211 729v-126h-132v126h132zM276 155v123c-17 -9 -47 -25 -62 -36c-21 -15 -32 -28 -32 -60v-30c0 -31 14 -51 45 -51s49 23 49 54zM422 418v-271c0 -92 7 -124 13 -141v-6h-147c-3 8 -9 28 -10 63c-14 -22 -55 -68 -119 -68h-2
c-75 0 -121 52 -121 128v65c0 75 31 108 100 136c35 14 94 35 123 48c15 7 17 12 17 29v5c0 35 -11 51 -48 51h-2c-35 0 -46 -17 -46 -52v-33h-137v46c0 85 44 144 177 144h18c135 0 184 -51 184 -144z" />
    <glyph glyph-name="adieresis.alt2" horiz-adv-x="495" 
d="M393 729v-126h-131v126h131zM223 729v-126h-132v126h132zM245 106c35 0 49 24 49 63v210c0 39 -14 63 -49 63c-33 0 -46 -24 -46 -63v-211c0 -39 15 -62 46 -62zM294 551h152v-551h-152v62c-16 -29 -53 -69 -117 -69h-3c-79 0 -129 60 -129 145v279c0 83 46 138 123 138
h4c68 0 104 -36 122 -60v56z" />
    <glyph glyph-name="agrave.alt" horiz-adv-x="470" 
d="M276 155v123c-17 -9 -47 -25 -62 -36c-21 -15 -32 -28 -32 -60v-30c0 -31 14 -51 45 -51s49 23 49 54zM422 418v-271c0 -92 7 -124 13 -141v-6h-147c-3 8 -9 28 -10 63c-14 -22 -55 -68 -119 -68h-2c-75 0 -121 52 -121 128v65c0 75 31 108 100 136c35 14 94 35 123 48
c15 7 17 12 17 29v5c0 35 -11 51 -48 51h-2c-35 0 -46 -17 -46 -52v-33h-137v46c0 85 44 144 177 144h18c135 0 184 -51 184 -144zM292 603h-130l-56 154h135z" />
    <glyph glyph-name="agrave.alt2" horiz-adv-x="495" 
d="M245 106c35 0 49 24 49 63v210c0 39 -14 63 -49 63c-33 0 -46 -24 -46 -63v-211c0 -39 15 -62 46 -62zM294 551h152v-551h-152v62c-16 -29 -53 -69 -117 -69h-3c-79 0 -129 60 -129 145v279c0 83 46 138 123 138h4c68 0 104 -36 122 -60v56zM304 603h-130l-56 154h135z
" />
    <glyph glyph-name="amacron.alt" horiz-adv-x="470" 
d="M276 155v123c-17 -9 -47 -25 -62 -36c-21 -15 -32 -28 -32 -60v-30c0 -31 14 -51 45 -51s49 23 49 54zM422 418v-271c0 -92 7 -124 13 -141v-6h-147c-3 8 -9 28 -10 63c-14 -22 -55 -68 -119 -68h-2c-75 0 -121 52 -121 128v65c0 75 31 108 100 136c35 14 94 35 123 48
c15 7 17 12 17 29v5c0 35 -11 51 -48 51h-2c-35 0 -46 -17 -46 -52v-33h-137v46c0 85 44 144 177 144h18c135 0 184 -51 184 -144zM106 616v103h246v-103h-246z" />
    <glyph glyph-name="amacron.alt2" horiz-adv-x="495" 
d="M119 616v103h246v-103h-246zM245 106c35 0 49 24 49 63v210c0 39 -14 63 -49 63c-33 0 -46 -24 -46 -63v-211c0 -39 15 -62 46 -62zM294 551h152v-551h-152v62c-16 -29 -53 -69 -117 -69h-3c-79 0 -129 60 -129 145v279c0 83 46 138 123 138h4c68 0 104 -36 122 -60v56z
" />
    <glyph glyph-name="aogonek.alt" horiz-adv-x="470" 
d="M276 155v123c-17 -9 -47 -25 -62 -36c-21 -15 -32 -28 -32 -60v-30c0 -31 14 -51 45 -51s49 23 49 54zM422 418v-271c0 -92 7 -124 13 -141v-6h-147c-3 8 -9 28 -10 63c-14 -22 -55 -68 -119 -68h-2c-75 0 -121 52 -121 128v65c0 75 31 108 100 136c35 14 94 35 123 48
c15 7 17 12 17 29v5c0 35 -11 51 -48 51h-2c-35 0 -46 -17 -46 -52v-33h-137v46c0 85 44 144 177 144h18c135 0 184 -51 184 -144zM265 -118v5c0 45 41 78 101 113h69c-32 -36 -48 -59 -48 -78v-2c0 -16 13 -24 33 -24h23v-83h-80c-63 0 -98 24 -98 69z" />
    <glyph glyph-name="aogonek.alt2" horiz-adv-x="495" 
d="M276 -118v5c0 45 41 78 101 113h69c-32 -36 -48 -59 -48 -78v-2c0 -16 13 -24 33 -24h23v-83h-80c-63 0 -98 24 -98 69zM245 106c35 0 49 24 49 63v210c0 39 -14 63 -49 63c-33 0 -46 -24 -46 -63v-211c0 -39 15 -62 46 -62zM294 551h152v-551h-152v62
c-16 -29 -53 -69 -117 -69h-3c-79 0 -129 60 -129 145v279c0 83 46 138 123 138h4c68 0 104 -36 122 -60v56z" />
    <glyph glyph-name="aring.alt" horiz-adv-x="470" 
d="M227 598c-63 0 -102 39 -102 96c0 59 39 96 102 96s102 -37 102 -96c0 -57 -39 -96 -102 -96zM227 653c25 0 41 17 41 41c0 25 -16 41 -41 41c-24 0 -40 -16 -40 -41c0 -24 16 -41 40 -41zM276 155v123c-17 -9 -47 -25 -62 -36c-21 -15 -32 -28 -32 -60v-30
c0 -31 14 -51 45 -51s49 23 49 54zM422 418v-271c0 -92 7 -124 13 -141v-6h-147c-3 8 -9 28 -10 63c-14 -22 -55 -68 -119 -68h-2c-75 0 -121 52 -121 128v65c0 75 31 108 100 136c35 14 94 35 123 48c15 7 17 12 17 29v5c0 35 -11 51 -48 51h-2c-35 0 -46 -17 -46 -52v-33
h-137v46c0 85 44 144 177 144h18c135 0 184 -51 184 -144z" />
    <glyph glyph-name="aring.alt2" horiz-adv-x="495" 
d="M238 598c-63 0 -102 39 -102 96c0 59 39 96 102 96s102 -37 102 -96c0 -57 -39 -96 -102 -96zM238 653c25 0 41 17 41 41c0 25 -16 41 -41 41c-24 0 -40 -16 -40 -41c0 -24 16 -41 40 -41zM245 106c35 0 49 24 49 63v210c0 39 -14 63 -49 63c-33 0 -46 -24 -46 -63v-211
c0 -39 15 -62 46 -62zM294 551h152v-551h-152v62c-16 -29 -53 -69 -117 -69h-3c-79 0 -129 60 -129 145v279c0 83 46 138 123 138h4c68 0 104 -36 122 -60v56z" />
    <glyph glyph-name="aringacute.alt" horiz-adv-x="470" 
d="M162 818l51 154h135l-56 -154h-130zM227 598c-63 0 -102 39 -102 96c0 59 39 96 102 96s102 -37 102 -96c0 -57 -39 -96 -102 -96zM227 653c25 0 41 17 41 41c0 25 -16 41 -41 41c-24 0 -40 -16 -40 -41c0 -24 16 -41 40 -41zM276 155v123c-17 -9 -47 -25 -62 -36
c-21 -15 -32 -28 -32 -60v-30c0 -31 14 -51 45 -51s49 23 49 54zM422 418v-271c0 -92 7 -124 13 -141v-6h-147c-3 8 -9 28 -10 63c-14 -22 -55 -68 -119 -68h-2c-75 0 -121 52 -121 128v65c0 75 31 108 100 136c35 14 94 35 123 48c15 7 17 12 17 29v5c0 35 -11 51 -48 51
h-2c-35 0 -46 -17 -46 -52v-33h-137v46c0 85 44 144 177 144h18c135 0 184 -51 184 -144z" />
    <glyph glyph-name="aringacute.alt2" horiz-adv-x="495" 
d="M171 818l51 154h135l-56 -154h-130zM238 598c-63 0 -102 39 -102 96c0 59 39 96 102 96s102 -37 102 -96c0 -57 -39 -96 -102 -96zM238 653c25 0 41 17 41 41c0 25 -16 41 -41 41c-24 0 -40 -16 -40 -41c0 -24 16 -41 40 -41zM245 106c35 0 49 24 49 63v210
c0 39 -14 63 -49 63c-33 0 -46 -24 -46 -63v-211c0 -39 15 -62 46 -62zM294 551h152v-551h-152v62c-16 -29 -53 -69 -117 -69h-3c-79 0 -129 60 -129 145v279c0 83 46 138 123 138h4c68 0 104 -36 122 -60v56z" />
    <glyph glyph-name="atilde.alt" horiz-adv-x="470" 
d="M276 155v123c-17 -9 -47 -25 -62 -36c-21 -15 -32 -28 -32 -60v-30c0 -31 14 -51 45 -51s49 23 49 54zM422 418v-271c0 -92 7 -124 13 -141v-6h-147c-3 8 -9 28 -10 63c-14 -22 -55 -68 -119 -68h-2c-75 0 -121 52 -121 128v65c0 75 31 108 100 136c35 14 94 35 123 48
c15 7 17 12 17 29v5c0 35 -11 51 -48 51h-2c-35 0 -46 -17 -46 -52v-33h-137v46c0 85 44 144 177 144h18c135 0 184 -51 184 -144zM364 753v-76c0 -45 -22 -72 -59 -72h-1c-27 0 -47 7 -79 26c-25 15 -34 20 -41 20c-5 0 -8 -4 -8 -12v-36h-89v75c0 45 22 72 59 72h1
c27 0 48 -7 79 -26c25 -15 34 -20 41 -20c5 0 8 4 8 13v36h89z" />
    <glyph glyph-name="atilde.alt2" horiz-adv-x="495" 
d="M245 106c35 0 49 24 49 63v210c0 39 -14 63 -49 63c-33 0 -46 -24 -46 -63v-211c0 -39 15 -62 46 -62zM294 551h152v-551h-152v62c-16 -29 -53 -69 -117 -69h-3c-79 0 -129 60 -129 145v279c0 83 46 138 123 138h4c68 0 104 -36 122 -60v56zM381 753v-76
c0 -45 -22 -72 -59 -72h-1c-27 0 -47 7 -79 26c-25 15 -34 20 -41 20c-5 0 -8 -4 -8 -12v-36h-89v75c0 45 22 72 59 72h1c27 0 48 -7 79 -26c25 -15 34 -20 41 -20c5 0 8 4 8 13v36h89z" />
    <glyph glyph-name="racute.alt" horiz-adv-x="385" 
d="M153 603l51 154h135l-56 -154h-130zM201 551v-81c20 45 55 85 116 85h4c19 0 33 -3 37 -4v-164c-9 3 -31 8 -63 8h-5c-59 0 -87 -18 -87 -66v-329h-154v551h152z" />
    <glyph glyph-name="rcaron.alt" horiz-adv-x="385" 
d="M137 603l-77 154h114l38 -83l38 83h113l-77 -154h-149zM201 551v-81c20 45 55 85 116 85h4c19 0 33 -3 37 -4v-164c-9 3 -31 8 -63 8h-5c-59 0 -87 -18 -87 -66v-329h-154v551h152z" />
    <glyph glyph-name="rcommaaccent.alt" horiz-adv-x="385" 
d="M172 -238h-83c13 27 22 53 27 78h-61v115h144v-77c0 -53 -15 -93 -27 -116zM201 551v-81c20 45 55 85 116 85h4c19 0 33 -3 37 -4v-164c-9 3 -31 8 -63 8h-5c-59 0 -87 -18 -87 -66v-329h-154v551h152z" />
    <glyph glyph-name="space_uni0326.alt" horiz-adv-x="400" 
d="M154 797h85c-13 -27 -22 -54 -27 -77h61v-117h-146v78c0 53 16 93 27 116z" />
    <glyph glyph-name="ordfeminine.alt" horiz-adv-x="375" 
d="M220 461v79c-8 -5 -36 -17 -47 -25c-19 -11 -26 -22 -26 -46v-12c0 -23 11 -38 35 -38s38 19 38 42zM220 391c-11 -19 -43 -52 -87 -52h-2c-56 0 -91 42 -91 94v45c0 53 24 78 75 98c23 9 76 27 91 32c13 5 14 10 14 25v5c0 21 -9 34 -37 34h-1c-27 0 -36 -12 -36 -36
v-24h-101v29c0 65 31 108 130 108h12c105 0 139 -37 139 -108v-189c0 -68 7 -91 11 -102v-6h-109c-3 7 -8 24 -8 47z" />
    <glyph glyph-name="ordfeminine.alt2" horiz-adv-x="387" 
d="M192 425c29 0 40 20 40 51v137c0 31 -11 50 -40 50c-25 0 -37 -16 -37 -49v-141c0 -29 12 -48 37 -48zM232 744h107v-399h-107v46c-11 -19 -40 -51 -91 -51h-1c-61 0 -95 47 -95 114v179c0 63 28 114 94 114h2c56 0 82 -34 91 -48v45z" />
    <glyph glyph-name="caron.alt" horiz-adv-x="400" 
d="M140 603l11 154h110l-17 -154h-104z" />
    <glyph glyph-name="plus.uc" horiz-adv-x="479" 
d="M441 294h-145v-156h-113v156h-145v102h145v156h113v-156h145v-102z" />
    <glyph glyph-name="minus.uc" horiz-adv-x="466" 
d="M38 398h390v-105h-390v105z" />
    <glyph glyph-name="multiply.uc" horiz-adv-x="446" 
d="M340 152l-118 118l-115 -118l-73 68l117 121l-118 117l73 75l117 -118l115 118l74 -70l-118 -120l119 -119z" />
    <glyph glyph-name="divide.uc" horiz-adv-x="476" 
d="M308 587v-132h-140v132h140zM38 398h400v-105h-400v105zM308 232v-132h-140v132h140z" />
    <glyph glyph-name="equal.uc" horiz-adv-x="476" 
d="M43 472h390v-98h-390v98zM43 302h390v-98h-390v98z" />
    <glyph glyph-name="less.uc" horiz-adv-x="431" 
d="M386 147l-344 142v107l344 142v-110l-227 -86l227 -86v-109z" />
    <glyph glyph-name="greater.uc" horiz-adv-x="431" 
d="M45 147v110l226 86l-226 87v108l344 -142v-107z" />
    <glyph glyph-name="questiondown.uc" horiz-adv-x="456" 
d="M185 528h120v-53c0 -62 -8 -87 -47 -137l-39 -52c-25 -33 -30 -53 -30 -92v-28c0 -39 12 -54 44 -54c29 0 43 18 43 54v90h142v-96c0 -96 -38 -169 -171 -169h-27c-135 0 -183 65 -183 165v39c0 64 18 103 58 150l52 61c32 37 38 51 38 94v28zM166 577v167h157v-167h-157
z" />
    <glyph glyph-name="exclamdown.uc" horiz-adv-x="254" 
d="M211 0h-168l46 528h75zM205 744v-167h-158v167h158z" />
    <glyph glyph-name="hyphen.uc" horiz-adv-x="330" 
d="M44 407h242v-132h-242v132z" />
    <glyph glyph-name="endash.uc" horiz-adv-x="526" 
d="M44 388h438v-96h-438v96z" />
    <glyph glyph-name="emdash.uc" horiz-adv-x="789" 
d="M44 388h701v-96h-701v96z" />
    <glyph glyph-name="guilsinglleft.uc" horiz-adv-x="275" 
d="M161 307l77 -173h-125l-68 139v68l68 139h125z" />
    <glyph glyph-name="guilsinglright.uc" horiz-adv-x="275" 
d="M115 307l-78 173h126l67 -139v-68l-67 -139h-126z" />
    <glyph glyph-name="guillemotleft.uc" horiz-adv-x="447" 
d="M157 307l70 -173h-120l-62 139v68l60 139h121zM342 307l68 -173h-121l-70 173l70 173h121z" />
    <glyph glyph-name="guillemotright.uc" horiz-adv-x="448" 
d="M106 307l-69 173h122l69 -173l-68 -173h-123zM291 307l-69 173h119l62 -139v-68l-60 -139h-121z" />
    <glyph glyph-name="parenleft.uc" horiz-adv-x="280" 
d="M38 371c0 201 75 347 131 445h98c-40 -96 -96 -255 -96 -445c0 -188 56 -354 96 -452h-98c-56 104 -131 249 -131 452z" />
    <glyph glyph-name="parenright.uc" horiz-adv-x="280" 
d="M242 371c0 -202 -73 -350 -131 -452h-98c40 98 96 263 96 452c0 190 -56 349 -96 445h98c56 -98 131 -244 131 -445z" />
    <glyph glyph-name="bracketleft.uc" horiz-adv-x="275" 
d="M47 -73v890h203v-100h-82v-689h82v-101h-203z" />
    <glyph glyph-name="bracketright.uc" horiz-adv-x="275" 
d="M25 -73v101h81v689h-81v100h202v-890h-202z" />
    <glyph glyph-name="braceleft.uc" horiz-adv-x="292" 
d="M268 -73h-75c-92 0 -138 36 -138 108c0 68 57 183 57 243c0 29 -16 44 -47 44h-32v106h29c36 0 50 14 50 41c0 60 -57 172 -57 241c0 71 46 107 138 107h75v-98h-47c-29 0 -44 -13 -44 -38c0 -43 52 -151 52 -212c0 -47 -18 -79 -78 -94c60 -15 78 -47 78 -98
c0 -62 -52 -172 -52 -214c0 -25 15 -38 44 -38h47v-98z" />
    <glyph glyph-name="braceright.uc" horiz-adv-x="293" 
d="M100 -73h-75v98h46c32 0 44 14 44 38c0 42 -51 152 -51 214c0 51 18 83 78 98c-60 15 -78 47 -78 94c0 61 51 169 51 212c0 24 -12 38 -44 38h-46v98h75c91 0 137 -36 137 -107c0 -69 -57 -181 -57 -241c0 -27 14 -41 51 -41h29v-106h-32c-35 0 -48 -13 -48 -44
c0 -60 57 -175 57 -243c0 -72 -46 -108 -137 -108z" />
    <glyph glyph-name="slash.uc" horiz-adv-x="307" 
d="M282 816l-151 -897h-107l150 897h108z" />
    <glyph glyph-name="backslash.uc" horiz-adv-x="307" 
d="M282 -81h-107l-150 897h108z" />
    <glyph glyph-name="bar.uc" horiz-adv-x="228" 
d="M167 816v-897h-105v897h105z" />
    <glyph glyph-name="at.uc" horiz-adv-x="796" 
d="M624 69l53 -65c-30 -33 -117 -94 -268 -94h-8c-168 0 -358 57 -358 417v45c0 271 121 407 362 407h12c221 0 335 -104 335 -340v-44c0 -240 -79 -306 -185 -306h-3c-87 0 -115 45 -123 64c-11 -17 -46 -64 -113 -64h-4c-73 0 -121 54 -114 147l15 221
c7 91 39 137 111 137h4c68 0 102 -47 110 -60l3 55h140l-25 -386c-1 -21 6 -32 23 -32c33 0 68 46 68 222v46c0 210 -98 259 -242 259h-12c-163 0 -265 -88 -265 -328v-42c0 -307 153 -337 261 -337h8c118 0 186 49 215 78zM430 238l13 201c3 39 -11 55 -39 55
s-36 -22 -39 -54l-13 -200c-3 -27 5 -53 36 -53c29 0 39 20 42 51z" />
    <glyph glyph-name="grave.uc" horiz-adv-x="400" 
d="M294 791h-136l-53 131h140z" />
    <glyph glyph-name="dieresis.uc" horiz-adv-x="400" 
d="M353 917v-126h-132v126h132zM180 917v-126h-132v126h132z" />
    <glyph glyph-name="macron.uc" horiz-adv-x="400" 
d="M76 802v103h246v-103h-246z" />
    <glyph glyph-name="acute.uc" horiz-adv-x="400" 
d="M106 791l49 131h140l-53 -131h-136z" />
    <glyph glyph-name="circumflex.uc" horiz-adv-x="400" 
d="M276 922l82 -133h-121l-38 65l-38 -65h-120l82 133h153z" />
    <glyph glyph-name="caron.uc" horiz-adv-x="400" 
d="M122 791l-81 131h122l37 -64l38 64h120l-81 -131h-155z" />
    <glyph glyph-name="breve.uc" horiz-adv-x="400" 
d="M202 787h-3c-91 0 -134 48 -134 125v6h104v-4c0 -27 10 -40 31 -40s32 13 32 40v4h105v-6c0 -77 -44 -125 -135 -125z" />
    <glyph glyph-name="dotaccent.uc" horiz-adv-x="400" 
d="M276 928v-137h-154v137h154z" />
    <glyph glyph-name="ring.uc" horiz-adv-x="400" 
d="M200 784c-63 0 -102 38 -102 97c0 57 39 96 102 96s102 -39 102 -96c0 -59 -39 -97 -102 -97zM200 839c25 0 41 17 41 42c0 24 -16 41 -41 41c-24 0 -40 -17 -40 -41c0 -25 16 -42 40 -42z" />
    <glyph glyph-name="tilde.uc" horiz-adv-x="400" 
d="M341 932v-66c0 -45 -22 -72 -58 -72h-2c-27 0 -46 8 -81 23c-20 8 -35 15 -42 15c-6 0 -9 -4 -9 -12v-29h-91v65c0 47 22 72 58 72h2c27 0 46 -8 81 -23c20 -8 35 -15 42 -15c6 0 9 4 9 12v30h91z" />
    <glyph glyph-name="hungarumlaut.uc" horiz-adv-x="400" 
d="M195 791l47 131h116l-49 -131h-114zM42 791l44 131h115l-45 -131h-114z" />
    <glyph glyph-name="Euro.lintab" 
d="M283 -10h-28c-133 0 -185 75 -185 192v102h-64v76h64v50h-64v75h64v77c0 120 52 190 183 190h27c133 0 182 -67 182 -188v-39h-145v37c0 43 -13 63 -49 63c-35 0 -48 -20 -48 -63v-77h158v-75h-158v-50h159v-76h-159v-99c0 -43 13 -64 48 -64c36 0 49 22 49 63v58h145
v-61c0 -106 -43 -191 -179 -191z" />
    <glyph glyph-name="divide.lintab" 
d="M320 548v-133h-140v133h140zM52 358h396v-104h-396v104zM320 193v-133h-140v133h140z" />
    <glyph glyph-name="divide.uctab" 
d="M320 587v-133h-140v133h140zM52 397h396v-104h-396v104zM320 232v-133h-140v133h140z" />
    <glyph glyph-name="dollar.lintab" 
d="M174 579v-2c0 -36 16 -57 52 -86v150c-39 -4 -52 -23 -52 -62zM327 179v5c0 45 -14 68 -54 101v-175c36 6 54 29 54 69zM273 -75h-47v66c-137 3 -192 74 -192 181v93h139v-82c0 -43 14 -66 53 -73v209l-77 55c-69 49 -116 104 -116 196v13c0 104 69 166 193 169v60h47
v-60c136 -3 185 -65 185 -172v-63h-134v49c0 44 -12 68 -51 75v-186l84 -62c79 -58 116 -113 116 -202v-14c0 -104 -64 -183 -200 -186v-66z" />
    <glyph glyph-name="eight.lintab" 
d="M450 582v-46c0 -93 -45 -124 -72 -135c27 -11 82 -44 82 -139v-90c0 -105 -52 -182 -197 -182h-27c-149 0 -196 75 -196 182v90c0 97 53 125 80 139c-26 10 -71 42 -71 135v46c0 103 45 170 189 170h24c140 0 188 -67 188 -170zM306 519v49c0 44 -17 63 -56 63
c-37 0 -56 -19 -56 -63v-48c0 -43 19 -65 57 -65c37 0 55 21 55 64zM308 187v80c0 41 -17 67 -58 67s-58 -24 -58 -67v-80c0 -43 16 -67 59 -67c40 0 57 24 57 67z" />
    <glyph glyph-name="emdash.altuc" horiz-adv-x="1491" 
d="M1447 388v-96h-1403v96h1403z" />
    <glyph glyph-name="equal.lintab" 
d="M56 432h389v-98h-389v98zM56 263h389v-98h-389v98z" />
    <glyph glyph-name="equal.uctab" 
d="M56 471h389v-98h-389v98zM56 302h389v-98h-389v98z" />
    <glyph glyph-name="f.short" horiz-adv-x="366" 
d="M343 757v-111h-48c-29 0 -36 -9 -36 -36v-59h84v-121h-84v-430h-152v430h-85v121h85v95c0 72 38 111 118 111h118z" />
    <glyph glyph-name="f_f.short" horiz-adv-x="674" 
d="M259 0h-152v430h-85v121h85v95c0 72 38 111 118 111h123v-111h-53c-29 0 -36 -9 -36 -36v-59h156v95c0 72 38 111 118 111h119v-111h-49c-28 0 -36 -9 -36 -36v-59h85v-121h-85v-430h-152v430h-156v-430z" />
    <glyph glyph-name="five.lintab" 
d="M194 335h-144v409h394v-135h-252v-144c11 14 48 71 130 71h6c91 0 130 -64 130 -147v-209c0 -98 -50 -190 -199 -190h-25c-155 0 -191 84 -191 175v98h147v-76c0 -39 12 -66 55 -66s56 29 56 66v157c0 39 -9 68 -53 68c-45 0 -54 -31 -54 -68v-9z" />
    <glyph glyph-name="four.lintab" 
d="M22 164v115c53 114 162 349 215 469h150v-454h94v-130h-94v-164h-149v164h-216zM238 294v246c-32 -71 -78 -170 -113 -246h113z" />
    <glyph glyph-name="greater.lintab" 
d="M80 109v109l226 86l-226 86v107l344 -142v-104z" />
    <glyph glyph-name="greater.uctab" 
d="M80 148v109l226 86l-226 86v107l344 -142v-104z" />
    <glyph glyph-name="j.short" horiz-adv-x="253" 
d="M203 740v-137h-153v137h153zM-3 -59h21c25 0 32 9 32 34v576h153v-626c0 -68 -32 -111 -100 -111h-106v127z" />
    <glyph glyph-name="less.lintab" 
d="M420 109l-344 142v104l344 142v-108l-226 -86l226 -87v-107z" />
    <glyph glyph-name="less.uctab" 
d="M420 148l-344 142v104l344 142v-108l-226 -86l226 -87v-107z" />
    <glyph glyph-name="minus.lintab" 
d="M54 358h392v-104h-392v104z" />
    <glyph glyph-name="minus.uctab" 
d="M54 397h392v-104h-392v104z" />
    <glyph glyph-name="multiply.lintab" 
d="M368 112l-119 119l-116 -119l-72 69l117 120l-118 118l73 75l117 -119l116 119l73 -70l-118 -120l119 -120z" />
    <glyph glyph-name="multiply.uctab" 
d="M368 151l-119 119l-116 -119l-72 69l117 120l-118 118l73 75l117 -119l116 119l73 -70l-118 -120l119 -120z" />
    <glyph glyph-name="nine.lintab" 
d="M303 449v109c0 43 -19 64 -56 64c-40 0 -56 -21 -56 -64v-109c0 -43 16 -65 56 -65c37 0 56 22 56 65zM177 265h-6c-85 0 -131 66 -131 152v147c0 113 48 188 195 188h24c145 0 195 -78 195 -190v-379c0 -115 -48 -192 -190 -192h-24c-154 0 -186 69 -186 181v44h148v-33
c0 -43 11 -64 50 -64s51 21 51 64v147c-13 -16 -52 -65 -126 -65z" />
    <glyph glyph-name="one.lintab" 
d="M473 0h-431v131h138v409h-121v116c102 0 134 22 150 88h129v-613h135v-131z" />
    <glyph glyph-name="percent.lintab" 
d="M244 640v-88c0 -63 -29 -109 -106 -109h-13c-80 0 -105 45 -105 109v88c0 61 25 109 105 109h13c78 0 106 -48 106 -109zM396 744h78l-371 -744h-78zM133 519c19 0 24 10 24 33v88c0 23 -5 34 -24 34s-25 -11 -25 -34v-88c0 -23 6 -33 25 -33zM480 192v-88
c0 -63 -28 -109 -107 -109h-12c-80 0 -105 45 -105 109v88c0 61 25 109 105 109h12c79 0 107 -48 107 -109zM344 192v-88c0 -23 5 -33 24 -33s25 10 25 33v88c0 23 -6 34 -25 34s-24 -11 -24 -34z" />
    <glyph glyph-name="perthousand.lintab" 
d="M222 655v-89c0 -52 -24 -95 -93 -95h-11c-72 0 -93 40 -93 95v89c0 52 21 94 93 94h11c69 0 93 -42 93 -94zM104 653v-85c0 -18 7 -27 20 -27s20 9 20 27v85c0 18 -7 27 -20 27s-20 -9 -20 -27zM379 585v-82l-358 -254v80zM250 179v-89c0 -52 -24 -95 -93 -95h-11
c-72 0 -93 40 -93 95v89c0 52 21 94 93 94h11c69 0 93 -42 93 -94zM475 179v-89c0 -52 -24 -95 -93 -95h-11c-73 0 -92 41 -92 95v89c0 52 19 94 92 94h11c69 0 93 -42 93 -94zM357 177v-86c0 -18 7 -27 20 -27s20 9 20 27v86c0 19 -7 28 -20 28s-20 -9 -20 -28zM132 177
v-85c0 -18 7 -27 20 -27s20 9 20 27v85c0 18 -7 27 -20 27s-20 -9 -20 -27z" />
    <glyph glyph-name="plus.lintab" 
d="M449 255h-143v-156h-112v156h-143v102h143v155h112v-155h143v-102z" />
    <glyph glyph-name="plus.uctab" 
d="M449 294h-143v-156h-112v156h-143v102h143v155h112v-155h143v-102z" />
    <glyph glyph-name="seven.lintab" 
d="M38 744h427v-121c-9 -35 -43 -134 -78 -265c-35 -128 -48 -219 -48 -306v-52h-185v39c0 102 27 189 86 335c67 160 91 218 91 247h-150v-119h-143v242z" />
    <glyph glyph-name="six.lintab" 
d="M329 477h5c84 0 126 -60 126 -143v-151c0 -111 -55 -193 -195 -193h-24c-148 0 -195 81 -195 193v376c0 118 48 193 190 193h24c151 0 186 -75 186 -184v-42h-148v35c0 40 -11 62 -50 62s-51 -22 -51 -62v-149c11 16 58 65 132 65zM197 293v-108c0 -43 19 -65 56 -65
c40 0 56 22 56 65v108c0 43 -16 65 -56 65c-37 0 -56 -22 -56 -65z" />
    <glyph glyph-name="sterling.lintab" 
d="M470 242v-242h-447v94h1c47 13 92 56 92 134v1c0 24 -4 54 -8 87h-85v103h70c-7 43 -10 85 -10 125v36c0 103 44 172 176 172h23c136 0 168 -72 168 -165v-91h-138v77c0 36 -9 56 -41 56s-41 -20 -41 -56v-40c0 -37 2 -75 5 -114h151v-103h-143c3 -17 2 -32 3 -47
c0 -83 -35 -128 -63 -148h151v121h136z" />
    <glyph glyph-name="three.lintab" 
d="M188 519h-142v54c0 102 32 179 187 179h17c161 0 199 -71 199 -176v-36c0 -87 -43 -116 -72 -124c33 -8 81 -36 81 -131v-104c0 -102 -46 -191 -201 -191h-24c-161 0 -193 86 -193 186v89h147v-73c0 -39 7 -68 58 -68c47 0 55 29 55 68v79c0 43 -10 56 -51 56h-89v135h84
c39 0 50 12 50 53v47c0 41 -10 64 -53 64s-53 -23 -53 -64v-43z" />
    <glyph glyph-name="two.lintab" 
d="M465 0h-433v68c0 90 27 154 120 265c25 32 59 71 84 100c43 54 67 81 67 130v4c0 40 -14 62 -55 62s-55 -23 -55 -62v-79h-142v89c0 107 49 175 187 175h22c144 0 200 -67 200 -177v-11c0 -87 -31 -135 -90 -197l-96 -97c-84 -87 -102 -120 -102 -143h153v118h140v-245z
" />
    <glyph glyph-name="uni0237" unicode="&#x237;" horiz-adv-x="253" 
d="M-35 -59h53c25 0 32 9 32 34v576h153v-626c0 -68 -32 -111 -100 -111h-138v127z" />
    <glyph glyph-name="uni02BC" unicode="&#x2bc;" horiz-adv-x="240" 
d="M161 452h-91c15 36 31 91 38 139h-65v153h154v-113c0 -81 -25 -152 -36 -179z" />
    <glyph glyph-name="uni0402" unicode="&#x402;" horiz-adv-x="573" 
d="M530 262v-230c0 -107 -39 -172 -165 -172h-47v141h12c32 0 40 16 40 52v202c0 45 -17 61 -53 61h-14c-12 0 -22 -1 -30 -3v-313h-159v609h-91v135h394v-135h-144v-162c15 3 37 5 53 5h26c109 0 178 -54 178 -190z" />
    <glyph glyph-name="uni0403" unicode="&#x403;" horiz-adv-x="403" 
d="M145 791l49 131h140l-53 -131h-136zM52 0v744h333v-135h-174v-609h-159z" />
    <glyph glyph-name="uni0404" unicode="&#x404;" horiz-adv-x="510" 
d="M466 279v-93c0 -104 -50 -196 -192 -196h-27c-143 0 -199 80 -199 205v355c0 125 56 202 196 202h27c141 0 195 -68 195 -192v-68h-152v59c0 45 -13 71 -54 71c-39 0 -52 -24 -52 -71v-101h121v-130h-121v-124c0 -47 13 -72 52 -72c40 0 54 27 54 71v84h152z" />
    <glyph glyph-name="uni0405" unicode="&#x405;" horiz-adv-x="489" 
d="M253 -9h-24c-133 0 -195 61 -195 161v113h152v-91c0 -37 18 -55 55 -55c35 0 53 21 53 64v8c0 47 -17 69 -56 101l-98 79c-65 51 -100 103 -100 189v21c0 115 66 172 198 172h23c131 0 189 -53 189 -152v-87h-150v63c0 40 -15 57 -50 57c-36 0 -53 -15 -53 -54v-5
c0 -40 15 -60 54 -92l98 -80c72 -61 109 -105 109 -201v-21c0 -106 -58 -190 -205 -190z" />
    <glyph glyph-name="uni0406" unicode="&#x406;" horiz-adv-x="262" 
d="M211 744v-744h-159v744h159z" />
    <glyph glyph-name="uni0408" unicode="&#x408;" horiz-adv-x="484" 
d="M38 331h146v-148c0 -41 13 -58 45 -58h2c32 0 43 19 43 58v561h160v-572c0 -116 -54 -180 -182 -180h-42c-120 0 -172 55 -172 170v169z" />
    <glyph glyph-name="uni0408.alt" horiz-adv-x="343" 
d="M25 0v143h66c32 0 41 13 41 42v559h160v-607c0 -89 -39 -137 -131 -137h-136z" />
    <glyph glyph-name="uni0409" unicode="&#x409;" horiz-adv-x="755" 
d="M70 210c4 61 7 96 7 534h390v-274h93c112 0 163 -65 163 -164v-143c0 -101 -50 -163 -163 -163h-252v610h-89c0 -249 -2 -402 -14 -478c-13 -87 -48 -132 -139 -132h-49v143h8c25 0 38 14 45 67zM467 121h44c39 0 52 18 52 63v99c0 45 -13 66 -53 66h-43v-228z" />
    <glyph glyph-name="uni040A" unicode="&#x40a;" horiz-adv-x="760" 
d="M211 318v-318h-159v744h159v-274h102v274h159v-274h93c112 0 162 -65 162 -164v-143c0 -101 -49 -163 -162 -163h-252v318h-102zM472 121h44c39 0 52 18 52 63v99c0 45 -13 66 -53 66h-43v-228z" />
    <glyph glyph-name="uni040B" unicode="&#x40b;" horiz-adv-x="573" 
d="M317 316h-9c-15 0 -27 -1 -35 -4v-312h-159v609h-91v135h394v-135h-144v-163c15 3 39 6 60 6h19c109 0 178 -54 178 -189v-263h-160v255c0 45 -17 61 -53 61z" />
    <glyph glyph-name="uni040C" unicode="&#x40c;" horiz-adv-x="509" 
d="M208 0h-156v744h156v-317l126 317h156l-139 -341l149 -403h-162l-130 347v-347zM196 791l49 131h140l-53 -131h-136z" />
    <glyph glyph-name="uni040E" unicode="&#x40e;" horiz-adv-x="472" 
d="M463 744l-156 -636c-18 -74 -42 -108 -127 -108h-106v129h46c23 0 27 7 30 23l2 9c3 16 -3 30 -11 63l-131 520h160l69 -373l70 373h154zM244 787h-3c-91 0 -134 48 -134 125v6h104v-4c0 -27 10 -40 31 -40s32 13 32 40v4h105v-6c0 -77 -44 -125 -135 -125z" />
    <glyph glyph-name="uni040F" unicode="&#x40f;" horiz-adv-x="524" 
d="M335 -108h-146v108h-137v744h159v-607h102v607h159v-744h-137v-108z" />
    <glyph glyph-name="uni0410" unicode="&#x410;" horiz-adv-x="489" 
d="M214 394l-22 -145h90l-22 145c-12 80 -19 136 -23 180c-4 -44 -12 -101 -23 -180zM320 0l-19 124h-128l-19 -124h-137l122 744h202l131 -744h-152z" />
    <glyph glyph-name="uni0411" unicode="&#x411;" horiz-adv-x="495" 
d="M52 0v744h377v-131h-222v-151h86c104 0 162 -64 162 -164v-135c0 -101 -58 -163 -162 -163h-241zM207 121h36c39 0 53 18 53 63v93c0 44 -13 65 -53 65h-36v-221z" />
    <glyph glyph-name="uni0412" unicode="&#x412;" horiz-adv-x="517" 
d="M52 0v744h256c113 0 158 -46 158 -151v-57c0 -83 -41 -117 -73 -128c37 -13 87 -44 87 -139v-99c0 -108 -55 -170 -168 -170h-260zM258 630h-52v-178h53c39 0 55 20 55 65v51c0 45 -13 62 -56 62zM261 334h-55v-215h56c43 0 58 19 58 66v82c0 47 -16 67 -59 67z" />
    <glyph glyph-name="uni0413" unicode="&#x413;" horiz-adv-x="403" 
d="M52 0v744h333v-135h-174v-609h-159z" />
    <glyph glyph-name="uni0414" unicode="&#x414;" horiz-adv-x="558" 
d="M12 137h39c32 84 40 166 40 607h388v-607h60v-245h-145v108h-237v-108h-145v245zM200 137h120v474h-87c0 -294 -11 -396 -33 -474z" />
    <glyph glyph-name="uni0414.bgr" horiz-adv-x="541" 
d="M156 0v-108h-146v245h52l105 607h202l110 -607h52v-245h-145v108h-230zM243 400l-40 -263h125l-40 265c-5 21 -20 146 -23 167z" />
    <glyph glyph-name="uni0415" unicode="&#x415;" horiz-adv-x="439" 
d="M52 744h348v-135h-195v-156h164v-138h-164v-178h201v-137h-354v744z" />
    <glyph glyph-name="uni0415.alt" horiz-adv-x="432" 
d="M52 744h339v-135h-186v-156h178v-138h-178v-178h190v-137h-343v744z" />
    <glyph glyph-name="uni0416" unicode="&#x416;" horiz-adv-x="730" 
d="M287 0v340l-122 -340h-160l142 397l-129 347h155l114 -315v315h155v-315l114 315h155l-128 -347l142 -397h-161l-122 340v-340h-155z" />
    <glyph glyph-name="uni0416.bgr" horiz-adv-x="731" 
d="M287 0v340l-122 -340h-160l142 397l-129 347h155l114 -315v315h155v-315l114 315h155l-128 -347l142 -397h-161l-122 340v-340h-155z" />
    <glyph glyph-name="uni0417" unicode="&#x417;" horiz-adv-x="498" 
d="M44 497v62c0 129 65 193 196 193h32c116 0 186 -62 186 -174v-43c0 -88 -43 -123 -78 -139c44 -16 88 -53 88 -144v-70c0 -129 -79 -192 -199 -192h-31c-108 0 -194 61 -194 195v87h152v-90c0 -44 22 -63 57 -63c36 0 55 18 55 63v78c0 44 -12 58 -63 58h-67v133h66
c43 0 57 17 57 60v60c0 44 -15 63 -52 63c-33 0 -53 -19 -53 -64v-73h-152z" />
    <glyph glyph-name="uni0418" unicode="&#x418;" horiz-adv-x="553" 
d="M345 0v253c0 107 3 170 7 222c-13 -51 -29 -114 -54 -194l-85 -281h-161v744h155v-253c0 -109 -2 -161 -5 -215c15 55 28 108 52 188l86 280h161v-744h-156z" />
    <glyph glyph-name="uni0419" unicode="&#x419;" horiz-adv-x="553" 
d="M345 0v253c0 107 3 170 7 222c-13 -51 -29 -114 -54 -194l-85 -281h-161v744h155v-253c0 -109 -2 -161 -5 -215c15 55 28 108 52 188l86 280h161v-744h-156zM275 787h-3c-91 0 -134 48 -134 125v6h104v-4c0 -27 10 -40 31 -40s32 13 32 40v4h105v-6
c0 -77 -44 -125 -135 -125z" />
    <glyph glyph-name="uni041A" unicode="&#x41a;" horiz-adv-x="509" 
d="M338 0l-130 347v-347h-156v744h156v-317l126 317h156l-139 -341l149 -403h-162z" />
    <glyph glyph-name="uni041A.bgr" horiz-adv-x="509" 
d="M208 0h-156v744h156v-317l126 317h156l-139 -341l149 -403h-162l-130 347v-347z" />
    <glyph glyph-name="uni041B" unicode="&#x41b;" horiz-adv-x="516" 
d="M312 0v610h-93c0 -249 -2 -402 -14 -478c-13 -87 -48 -132 -139 -132h-49v143h8c25 0 38 14 45 67c4 60 7 100 7 534h394v-744h-159z" />
    <glyph glyph-name="uni041B.bgr" horiz-adv-x="491" 
d="M344 744l130 -744h-161l-73 532l-72 -532h-151l125 744h202z" />
    <glyph glyph-name="uni041C" unicode="&#x41c;" horiz-adv-x="651" 
d="M427 331l-68 -331h-72l-66 327c-21 101 -33 166 -42 226c3 -73 3 -142 3 -246v-307h-131v744h198l49 -258c15 -79 22 -127 29 -174c7 47 14 94 29 174l50 258h193v-744h-134v307c0 103 2 171 5 246c-11 -59 -23 -123 -43 -222z" />
    <glyph glyph-name="uni041D" unicode="&#x41d;" horiz-adv-x="532" 
d="M52 0v744h159v-281h111v281h159v-744h-159v311h-111v-311h-159z" />
    <glyph glyph-name="uni041E" unicode="&#x41e;" horiz-adv-x="530" 
d="M482 545v-345c0 -133 -65 -210 -204 -210h-25c-143 0 -205 79 -205 210v345c0 132 61 208 204 208h25c143 0 205 -77 205 -208zM322 200v343c0 53 -20 75 -57 75c-39 0 -57 -22 -57 -75v-343c0 -49 19 -74 57 -74s57 25 57 74z" />
    <glyph glyph-name="uni041F" unicode="&#x41f;" horiz-adv-x="524" 
d="M52 0v744h420v-744h-159v610h-102v-610h-159z" />
    <glyph glyph-name="uni0420" unicode="&#x420;" horiz-adv-x="499" 
d="M299 289h-88v-289h-159v744h247c109 0 166 -43 166 -164v-124c0 -117 -59 -167 -166 -167zM211 626v-214h41c41 0 55 16 55 69v77c0 52 -14 68 -55 68h-41z" />
    <glyph glyph-name="uni0421" unicode="&#x421;" horiz-adv-x="510" 
d="M260 124c40 0 54 27 54 71v118h152v-127c0 -104 -50 -196 -192 -196h-27c-143 0 -199 80 -199 205v355c0 125 56 202 196 202h27c141 0 195 -68 195 -192v-95h-152v86c0 45 -13 71 -54 71c-39 0 -52 -24 -52 -71v-355c0 -47 13 -72 52 -72z" />
    <glyph glyph-name="uni0422" unicode="&#x422;" horiz-adv-x="449" 
d="M147 0v609h-119v135h393v-135h-119v-609h-155z" />
    <glyph glyph-name="uni0423" unicode="&#x423;" horiz-adv-x="472" 
d="M463 744l-156 -636c-18 -74 -42 -108 -127 -108h-106v129h46c23 0 27 7 30 23l2 9c3 16 -3 30 -11 63l-131 520h160l69 -373l70 373h154z" />
    <glyph glyph-name="uni0424" unicode="&#x424;" horiz-adv-x="725" 
d="M440 76v-86h-155v86h-44c-136 0 -194 64 -194 192v232c0 131 55 190 191 190h47v64h155v-64h47c136 0 191 -61 191 -190v-232c0 -128 -57 -192 -194 -192h-44zM285 208v354h-23c-40 0 -54 -26 -54 -65v-224c0 -37 15 -65 54 -65h23zM440 562v-354h23c40 0 55 28 55 65
v224c0 39 -15 65 -55 65h-23z" />
    <glyph glyph-name="uni0425" unicode="&#x425;" horiz-adv-x="494" 
d="M167 0h-156l128 394l-117 350h163l66 -236l65 236h154l-114 -354l127 -390h-159l-78 260z" />
    <glyph glyph-name="uni0426" unicode="&#x426;" horiz-adv-x="554" 
d="M390 -106v106h-335v744h159v-607h102v607h160v-607h60v-243h-146z" />
    <glyph glyph-name="uni0427" unicode="&#x427;" horiz-adv-x="516" 
d="M305 0v297c-23 -7 -63 -8 -87 -8c-119 0 -180 45 -180 170v285h159v-237c0 -65 14 -81 65 -81c16 0 32 3 43 6v312h159v-744h-159z" />
    <glyph glyph-name="uni0428" unicode="&#x428;" horiz-adv-x="755" 
d="M52 0v744h159v-607h87v607h159v-607h88v607h159v-744h-652z" />
    <glyph glyph-name="uni0429" unicode="&#x429;" horiz-adv-x="782" 
d="M52 0v744h159v-607h87v607h159v-607h88v607h159v-607h60v-245h-146v108h-566z" />
    <glyph glyph-name="uni042A" unicode="&#x42a;" horiz-adv-x="562" 
d="M275 744v-274h92c113 0 163 -64 163 -164v-143c0 -101 -50 -163 -163 -163h-251v609h-96v135h255zM275 121h44c39 0 52 18 52 63v99c0 45 -13 66 -53 66h-43v-228z" />
    <glyph glyph-name="uni042B" unicode="&#x42b;" horiz-adv-x="730" 
d="M211 744v-274h92c113 0 163 -64 163 -164v-143c0 -101 -50 -163 -163 -163h-251v744h159zM211 121h44c39 0 52 18 52 63v99c0 45 -13 66 -53 66h-43v-228zM679 744v-744h-159v744h159z" />
    <glyph glyph-name="uni042C" unicode="&#x42c;" horiz-adv-x="498" 
d="M211 744v-274h92c113 0 163 -64 163 -164v-143c0 -101 -50 -163 -163 -163h-251v744h159zM211 121h44c39 0 52 18 52 63v99c0 45 -13 66 -53 66h-43v-228z" />
    <glyph glyph-name="uni042D" unicode="&#x42d;" horiz-adv-x="509" 
d="M462 550v-355c0 -125 -57 -205 -198 -205h-28c-142 0 -192 92 -192 196v93h152v-84c0 -44 14 -71 54 -71c39 0 52 25 52 72v124h-128v130h128v101c0 47 -13 71 -52 71c-41 0 -54 -26 -54 -71v-59h-152v68c0 124 53 192 195 192h28c140 0 195 -77 195 -202z" />
    <glyph glyph-name="uni042E" unicode="&#x42e;" horiz-adv-x="739" 
d="M691 545v-345c0 -133 -63 -210 -196 -210h-25c-136 0 -197 79 -197 210v114h-62v-314h-159v744h159v-285h62v86c0 131 60 208 196 208h26c137 0 196 -76 196 -208zM531 200v343c0 56 -18 75 -49 75c-32 0 -48 -18 -48 -75v-343c0 -52 16 -74 49 -74c32 0 48 22 48 74z
" />
    <glyph glyph-name="uni042F" unicode="&#x42f;" horiz-adv-x="507" 
d="M299 292h-38l-77 -292h-159l86 322c-41 20 -71 62 -71 142v132c0 103 64 148 156 148h259v-744h-156v292zM299 416v213h-49c-37 0 -54 -14 -54 -59v-82c0 -51 17 -72 54 -72h49z" />
    <glyph glyph-name="uni042F.alt" horiz-adv-x="512" 
d="M212 238v-163c0 -43 -6 -64 -14 -75h-154v5c8 16 12 42 12 77v163c0 75 24 109 67 125c-41 15 -76 52 -76 127v102c0 100 66 145 163 145h250v-744h-155v304h-39c-40 0 -54 -19 -54 -66zM305 630h-49c-41 0 -55 -21 -55 -66v-70c0 -43 16 -68 55 -68h49v204z" />
    <glyph glyph-name="uni0430" unicode="&#x430;" horiz-adv-x="477" 
d="M276 155v123c-17 -9 -47 -25 -62 -36c-21 -15 -32 -27 -32 -60v-30c0 -31 14 -51 45 -51s49 23 49 54zM36 123v65c0 75 31 108 100 136c35 14 94 35 123 48c15 7 17 12 17 29v5c0 35 -11 51 -48 51h-2c-35 0 -46 -17 -46 -52v-33h-137v46c0 85 41 144 177 144h18
c136 0 184 -51 184 -144v-266c0 -20 4 -28 27 -28h12v-124h-122c-36 0 -56 24 -60 63c-17 -22 -55 -68 -120 -68h-2c-75 0 -121 53 -121 128z" />
    <glyph glyph-name="uni0430.alt" horiz-adv-x="470" 
d="M276 155v123c-17 -9 -47 -25 -62 -36c-21 -15 -32 -28 -32 -60v-30c0 -31 14 -51 45 -51s49 23 49 54zM422 418v-271c0 -92 7 -124 13 -141v-6h-147c-3 8 -9 28 -10 63c-14 -22 -55 -68 -119 -68h-2c-75 0 -121 52 -121 128v65c0 75 31 108 100 136c35 14 94 35 123 48
c15 7 17 12 17 29v5c0 35 -11 51 -48 51h-2c-35 0 -46 -17 -46 -52v-33h-137v46c0 85 44 144 177 144h18c135 0 184 -51 184 -144z" />
    <glyph glyph-name="uni0430.alt2" horiz-adv-x="502" 
d="M245 106c35 0 49 24 49 63v210c0 39 -14 63 -49 63c-33 0 -46 -24 -46 -63v-211c0 -39 15 -62 46 -62zM294 551h152v-551h-152v62c-16 -29 -53 -69 -117 -69h-3c-79 0 -129 60 -129 145v279c0 83 46 138 123 138h4c68 0 104 -36 122 -60v56z" />
    <glyph glyph-name="uni0431" unicode="&#x431;" horiz-adv-x="495" 
d="M452 398v-230c0 -108 -63 -179 -191 -179h-28c-136 0 -190 71 -190 178v352c0 156 56 220 212 220h40c15 0 22 6 22 18h133c0 -100 -23 -132 -112 -132h-30c-103 0 -124 -17 -124 -96v-40c36 45 81 66 132 66h7c92 0 129 -62 129 -157zM247 105c31 0 51 18 51 62v210
c0 51 -22 63 -51 63s-50 -12 -50 -64v-209c0 -45 19 -62 50 -62z" />
    <glyph glyph-name="uni0431.alt" horiz-adv-x="495" 
d="M452 398v-230c0 -108 -63 -179 -191 -179h-28c-136 0 -190 71 -190 178v352c0 157 58 227 210 227h76c56 0 85 3 110 12v-115c-20 -8 -47 -11 -95 -11h-36c-102 0 -124 -22 -124 -103v-40c36 45 81 66 132 66h7c92 0 129 -62 129 -157zM197 376v-209c0 -45 19 -62 50 -62
s51 18 51 62v210c0 51 -22 63 -51 63s-50 -12 -50 -64z" />
    <glyph glyph-name="uni0431.locl" horiz-adv-x="495" 
d="M452 371v-203c0 -108 -62 -179 -190 -179h-29c-136 0 -190 71 -190 178v193c0 64 22 116 98 139c-51 19 -82 56 -82 113c0 81 52 127 156 127h67c29 0 35 6 35 18h133c0 -97 -22 -132 -115 -132h-79c-40 0 -60 -9 -60 -38c0 -27 18 -35 49 -38l26 -3
c123 -12 181 -66 181 -175zM197 372v-205c0 -39 15 -62 50 -62c36 0 51 23 51 62v205c0 41 -17 62 -51 62c-33 0 -50 -21 -50 -62z" />
    <glyph glyph-name="uni0431.loclalt" horiz-adv-x="495" 
d="M452 371v-203c0 -108 -62 -179 -190 -179h-29c-136 0 -190 71 -190 178v200c0 56 23 112 96 133c-53 21 -80 60 -80 115c0 79 48 131 155 131h115c56 0 85 3 110 12v-115c-19 -8 -47 -11 -95 -11h-82c-45 0 -66 -11 -66 -42c0 -27 20 -38 49 -41l26 -2
c121 -10 181 -69 181 -176zM197 372v-205c0 -39 15 -62 50 -62c36 0 51 23 51 62v205c0 41 -17 62 -51 62c-33 0 -50 -21 -50 -62z" />
    <glyph glyph-name="uni0432" unicode="&#x432;" horiz-adv-x="478" 
d="M292 0h-243v551h222c107 0 162 -35 162 -118v-50c0 -59 -37 -81 -66 -89c34 -13 78 -32 78 -103v-57c0 -100 -57 -134 -153 -134zM200 332h41c24 0 45 12 45 48v33c0 29 -21 39 -44 39h-42v-120zM200 99h42c29 0 52 11 52 47v47c0 36 -23 47 -52 47h-42v-141z" />
    <glyph glyph-name="uni0432.bgr" horiz-adv-x="487" 
d="M446 281v-114c0 -112 -66 -178 -187 -178h-30c-129 0 -187 66 -187 178v418c0 109 60 172 187 172h29c128 0 182 -63 182 -163v-86c0 -56 -26 -95 -70 -107c44 -11 76 -44 76 -120zM193 582v-132h50c36 0 49 15 49 55v76c0 33 -8 59 -47 59h-4c-37 0 -48 -25 -48 -58z
M243 105h1c39 0 50 27 50 62v115c0 40 -10 58 -51 58h-50v-173c0 -37 14 -62 50 -62z" />
    <glyph glyph-name="uni0433" unicode="&#x433;" horiz-adv-x="367" 
d="M49 0v551h298v-118h-145v-433h-153z" />
    <glyph glyph-name="uni0433.bgr" horiz-adv-x="440" 
d="M411 193v-61c0 -84 -48 -143 -172 -143h-30c-128 0 -179 66 -179 152v6c0 76 29 121 102 162l91 56c28 16 46 28 46 56c0 26 -15 39 -44 39c-35 0 -50 -11 -50 -50v-29h-135v40c0 88 42 140 170 140h29c120 0 171 -54 171 -142v-7c0 -75 -33 -117 -104 -156l-83 -50
c-35 -19 -47 -33 -47 -62v-1c0 -28 14 -46 47 -46h1c35 0 48 18 48 53v43h139z" />
    <glyph glyph-name="uni0433.locl" horiz-adv-x="367" 
d="M49 0v551h298v-118h-145v-433h-153z" />
    <glyph glyph-name="uni0434" unicode="&#x434;" horiz-adv-x="514" 
d="M7 -108v224h38c29 80 32 193 32 435h372v-435h50v-224h-139v108h-214v-108h-139zM187 116h110v322h-85c0 -140 -4 -243 -25 -322z" />
    <glyph glyph-name="uni0434.bgr" horiz-adv-x="502" 
d="M249 107c33 0 50 25 50 65v204c0 41 -18 65 -51 65c-35 0 -48 -22 -48 -65v-205c0 -39 14 -64 49 -64zM299 -37v99c-13 -20 -54 -66 -119 -66h-2c-85 0 -132 54 -132 150v253c0 96 39 156 127 156h2c72 0 111 -43 126 -66v62h152v-595c0 -84 -45 -153 -188 -153h-33
c-141 0 -179 55 -179 140v21h147v-6c0 -31 11 -46 48 -46h3c35 0 48 16 48 51z" />
    <glyph glyph-name="uni0434.locl" horiz-adv-x="514" 
d="M7 -108v224h38c29 80 32 193 32 435h372v-435h50v-224h-139v108h-214v-108h-139zM187 116h110v322h-85c0 -140 -4 -243 -25 -322z" />
    <glyph glyph-name="uni0435" unicode="&#x435;" horiz-adv-x="475" 
d="M192 404v-54h98v54c0 37 -17 56 -50 56c-32 0 -48 -19 -48 -56zM434 205v-48c0 -108 -63 -168 -184 -168h-25c-117 0 -182 57 -182 170v231c0 109 59 172 184 172h27c111 0 180 -49 180 -173v-131h-242v-101c0 -33 12 -57 48 -57c35 0 49 24 49 56v49h145z" />
    <glyph glyph-name="uni0436" unicode="&#x436;" horiz-adv-x="683" 
d="M264 0v262l-105 -262h-156l126 302l-118 249h156l97 -216v216h151v-218l97 218h155l-115 -245l128 -306h-160l-105 264v-264h-151z" />
    <glyph glyph-name="uni0436.bgr" horiz-adv-x="688" 
d="M268 0v262l-105 -262h-158l127 303l-117 248h156l97 -216v422h151v-424l97 218h155l-115 -245l128 -306h-160l-105 264v-264h-151z" />
    <glyph glyph-name="uni0437" unicode="&#x437;" horiz-adv-x="462" 
d="M37 368v54c0 91 65 140 176 140h24c127 0 185 -51 185 -138v-30c0 -63 -41 -93 -72 -101c32 -11 80 -33 80 -118v-39c0 -84 -59 -147 -187 -147h-29c-116 0 -179 61 -179 148v70h146v-60c0 -37 21 -53 49 -53c27 0 47 13 47 52v44c0 36 -15 48 -50 48h-60v99h60
c27 0 43 10 43 46v25c0 34 -14 51 -43 51s-44 -17 -44 -50v-41h-146z" />
    <glyph glyph-name="uni0437.bgr" horiz-adv-x="466" 
d="M35 333v82c0 97 66 147 178 147h24c129 0 189 -52 189 -145v-96c0 -67 -40 -97 -76 -105c36 -11 81 -32 81 -118v-132c0 -105 -59 -164 -188 -164h-29c-116 0 -179 61 -179 156v129h146v-120c0 -39 21 -53 49 -53c27 0 47 12 47 51v142c0 36 -15 47 -50 47h-71v117h71
c29 0 45 10 45 46v85c0 33 -15 50 -45 50c-31 0 -46 -17 -46 -50v-69h-146z" />
    <glyph glyph-name="uni0438" unicode="&#x438;" horiz-adv-x="520" 
d="M282 205l-75 -205h-158v551h151v-197c0 -76 -3 -125 -8 -166c11 40 25 86 46 146l77 217h156v-551h-151v185c0 76 3 125 8 166c-12 -39 -23 -86 -46 -146z" />
    <glyph glyph-name="uni0438.bgr" horiz-adv-x="498" 
d="M449 551v-551h-150v67c-16 -27 -62 -72 -126 -72h-6c-75 0 -119 50 -119 122v434h154v-384c0 -35 15 -57 46 -57c32 0 49 21 49 60v381h152z" />
    <glyph glyph-name="uni0439" unicode="&#x439;" horiz-adv-x="520" 
d="M282 205l-75 -205h-158v551h151v-197c0 -76 -3 -125 -8 -166c11 40 25 86 46 146l77 217h156v-551h-151v185c0 76 3 125 8 166c-12 -39 -23 -86 -46 -146zM262 600h-3c-91 0 -133 46 -133 126v13h104v-10c0 -27 10 -41 31 -41c23 0 30 14 30 41v10h104v-13
c0 -80 -42 -126 -133 -126z" />
    <glyph glyph-name="uni043A" unicode="&#x43a;" horiz-adv-x="488" 
d="M322 0l-120 265v-265h-153v551h153v-217l112 217h158l-130 -244l143 -307h-163z" />
    <glyph glyph-name="uni043A.bgr" horiz-adv-x="488" 
d="M202 0h-153v757h153v-422l112 216h158l-130 -244l143 -307h-163l-120 264v-264z" />
    <glyph glyph-name="uni043B" unicode="&#x43b;" horiz-adv-x="487" 
d="M285 0v434h-81c0 -149 -2 -233 -10 -306c-11 -84 -46 -128 -131 -128h-55v127h12c28 0 35 24 38 55c5 53 5 114 5 369h374v-551h-152z" />
    <glyph glyph-name="uni043B.bgr" horiz-adv-x="449" 
d="M318 551l118 -551h-154l-60 387l-60 -387h-149l115 551h190z" />
    <glyph glyph-name="uni043C" unicode="&#x43c;" horiz-adv-x="605" 
d="M170 385c2 -49 3 -102 3 -158v-227h-124v551h182l48 -215c11 -53 20 -93 23 -121c3 27 10 67 22 121l49 215h182v-551h-136v227c0 55 1 108 3 158l-36 -158l-52 -227h-76l-51 227c-13 56 -26 107 -37 158z" />
    <glyph glyph-name="uni043D" unicode="&#x43d;" horiz-adv-x="501" 
d="M202 0h-153v551h153v-217h97v217h152v-551h-152v218h-97v-218z" />
    <glyph glyph-name="uni043D.bgr" horiz-adv-x="501" 
d="M202 0h-153v551h153v-217h97v217h152v-551h-152v218h-97v-218z" />
    <glyph glyph-name="uni043E" unicode="&#x43e;" horiz-adv-x="495" 
d="M262 -11h-29c-136 0 -190 71 -190 178v217c0 108 57 178 190 178h29c132 0 190 -67 190 -178v-216c0 -108 -62 -179 -190 -179zM247 105c36 0 51 23 51 62v218c0 41 -17 62 -51 62c-33 0 -50 -21 -50 -62v-218c0 -39 15 -62 50 -62z" />
    <glyph glyph-name="uni043F" unicode="&#x43f;" horiz-adv-x="497" 
d="M49 0v551h400v-551h-152v434h-95v-434h-153z" />
    <glyph glyph-name="uni043F.bgr" horiz-adv-x="504" 
d="M49 0v551h151v-67c8 16 50 73 126 73h6c83 0 124 -52 124 -127v-430h-154v377c0 36 -14 62 -50 62s-50 -26 -50 -65v-374h-153z" />
    <glyph glyph-name="uni043F.locl" horiz-adv-x="498" 
d="M49 0v551h400v-551h-152v434h-95v-434h-153z" />
    <glyph glyph-name="uni0440" unicode="&#x440;" horiz-adv-x="498" 
d="M251 106c33 0 49 21 49 64v208c0 40 -14 64 -49 64s-49 -25 -49 -64v-207c0 -43 16 -65 49 -65zM49 551h153v-64c17 22 51 68 124 68h3c84 0 125 -53 125 -141v-269c0 -92 -53 -150 -129 -150h-4c-65 0 -102 32 -119 55v-236h-153v737z" />
    <glyph glyph-name="uni0441" unicode="&#x441;" horiz-adv-x="472" 
d="M254 -11h-25c-131 0 -186 66 -186 170v228c0 109 55 175 187 175h24c131 0 178 -61 178 -162v-57h-143v47c0 41 -11 59 -46 59c-33 0 -46 -19 -46 -59v-226c0 -37 13 -60 45 -60c35 0 47 23 47 60v65h143v-75c0 -92 -49 -165 -178 -165z" />
    <glyph glyph-name="uni0442" unicode="&#x442;" horiz-adv-x="402" 
d="M125 0v431h-105v120h362v-120h-105v-431h-152z" />
    <glyph glyph-name="uni0442.bgr" horiz-adv-x="748" 
d="M202 0h-153v551h151v-67c11 19 50 72 125 72h5c61 0 97 -29 112 -68c17 22 59 68 132 68h5c81 0 121 -50 121 -123v-433h-152v378c0 36 -16 60 -49 60s-48 -24 -48 -60v-378h-153v378c0 35 -13 60 -48 60s-48 -24 -48 -63v-375z" />
    <glyph glyph-name="uni0442.locl" horiz-adv-x="402" 
d="M125 0v431h-105v120h362v-120h-105v-431h-152z" />
    <glyph glyph-name="uni0443" unicode="&#x443;" horiz-adv-x="454" 
d="M46 -186v123h69c19 0 26 4 30 16c3 8 4 16 4 23c0 15 -4 31 -12 64l-124 511h155l63 -372l60 372h149l-144 -642c-15 -64 -44 -95 -108 -95h-142z" />
    <glyph glyph-name="uni0444" unicode="&#x444;" horiz-adv-x="711" 
d="M478 -11h-47v-177h-151v177h-46c-132 0 -191 68 -191 179v218c0 107 58 176 185 176h52v182h151v-182h52c127 0 185 -69 185 -176v-218c0 -112 -58 -179 -190 -179zM248 104h32v345h-24c-47 0 -59 -19 -59 -66v-217c0 -41 17 -62 51 -62zM456 449h-25v-345h32
c35 0 52 21 52 62v217c0 47 -12 66 -59 66z" />
    <glyph glyph-name="uni0445" unicode="&#x445;" horiz-adv-x="448" 
d="M155 0h-148l114 288l-111 263h155l60 -177l61 177h148l-107 -262l114 -289h-152l-67 190z" />
    <glyph glyph-name="uni0446" unicode="&#x446;" horiz-adv-x="514" 
d="M499 116v-224h-139v108h-311v551h153v-435h95v435h152v-435h50z" />
    <glyph glyph-name="uni0446.bgr" horiz-adv-x="514" 
d="M449 116h50v-224h-139v108h-61v67c-16 -27 -62 -72 -126 -72h-6c-75 0 -119 50 -119 122v434h154v-384c0 -35 15 -57 46 -57c32 0 49 21 49 60v381h152v-435z" />
    <glyph glyph-name="uni0447" unicode="&#x447;" horiz-adv-x="473" 
d="M271 551h153v-551h-153v205c-19 -5 -43 -10 -78 -10c-108 0 -161 46 -161 167v189h152v-179c0 -41 17 -57 49 -57c15 0 28 1 38 4v232z" />
    <glyph glyph-name="uni0447.bgr" horiz-adv-x="473" 
d="M271 551h153v-551h-153v205c-19 -5 -43 -10 -78 -10c-108 0 -161 46 -161 167v189h152v-179c0 -41 17 -57 49 -57c15 0 28 1 38 4v232z" />
    <glyph glyph-name="uni0448" unicode="&#x448;" horiz-adv-x="700" 
d="M49 0v551h153v-435h72v435h152v-435h72v435h153v-551h-602z" />
    <glyph glyph-name="uni0448.bgr" horiz-adv-x="748" 
d="M546 551h153v-551h-151v67c-11 -19 -50 -72 -125 -72h-5c-61 0 -97 29 -112 68c-17 -22 -59 -68 -132 -68h-5c-81 0 -121 50 -121 123v433h152v-378c0 -36 16 -60 49 -60s48 24 48 60v378h153v-378c0 -35 13 -60 48 -60s48 24 48 63v375z" />
    <glyph glyph-name="uni0449" unicode="&#x449;" horiz-adv-x="716" 
d="M49 0v551h153v-435h72v435h152v-435h72v435h153v-435h50v-224h-139v108h-513z" />
    <glyph glyph-name="uni0449.bgr" horiz-adv-x="763" 
d="M546 551h153v-435h49v-224h-139v108h-61v67c-11 -19 -50 -72 -125 -72h-5c-61 0 -97 29 -112 68c-17 -22 -59 -68 -132 -68h-5c-81 0 -121 50 -121 123v433h152v-378c0 -36 16 -60 49 -60s48 24 48 60v378h153v-378c0 -35 13 -60 48 -60s48 24 48 63v375z" />
    <glyph glyph-name="uni044A" unicode="&#x44a;" horiz-adv-x="520" 
d="M20 434v117h239v-178h80c104 0 153 -51 153 -143v-80c0 -96 -50 -150 -154 -150h-232v434h-86zM259 102h32c31 0 47 11 47 58v58c0 40 -16 53 -47 53h-32v-169z" />
    <glyph glyph-name="uni044A.bgr" horiz-adv-x="540" 
d="M511 219v-55c0 -112 -73 -175 -190 -175h-26c-124 0 -189 63 -189 175v270h-86v117h239v-171h64c127 0 188 -57 188 -161zM259 278v-117c0 -40 19 -56 50 -56h1c32 0 48 19 48 56v64c0 39 -26 53 -61 53h-38z" />
    <glyph glyph-name="uni044B" unicode="&#x44b;" horiz-adv-x="685" 
d="M49 0v551h153v-178h80c104 0 153 -51 153 -143v-80c0 -96 -50 -150 -154 -150h-232zM202 102h32c31 0 47 11 47 58v58c0 40 -16 53 -47 53h-32v-169zM635 551v-551h-153v551h153z" />
    <glyph glyph-name="uni044C" unicode="&#x44c;" horiz-adv-x="463" 
d="M49 0v551h153v-178h80c104 0 153 -51 153 -143v-80c0 -96 -50 -150 -154 -150h-232zM202 102h32c31 0 47 11 47 58v58c0 40 -16 53 -47 53h-32v-169z" />
    <glyph glyph-name="uni044C.bgr" horiz-adv-x="483" 
d="M454 219v-55c0 -112 -73 -175 -190 -175h-26c-124 0 -189 63 -189 175v387h153v-171h64c127 0 188 -57 188 -161zM202 278v-117c0 -40 19 -56 50 -56h1c32 0 48 19 48 56v64c0 39 -26 53 -61 53h-38z" />
    <glyph glyph-name="uni044D" unicode="&#x44d;" horiz-adv-x="476" 
d="M432 387v-228c0 -104 -54 -170 -185 -170h-28c-129 0 -178 73 -178 165v52h142v-42c0 -37 14 -60 49 -60c33 0 47 23 47 60v72h-112v100h112v54c0 40 -13 59 -48 59s-48 -18 -48 -59v-25h-142v35c0 101 46 162 177 162h28c132 0 186 -66 186 -175z" />
    <glyph glyph-name="uni044E" unicode="&#x44e;" horiz-adv-x="698" 
d="M655 384v-216c0 -108 -59 -179 -183 -179h-29c-130 0 -183 71 -183 178v48h-58v-215h-153v551h153v-220h58v53c0 108 53 178 183 178h29c127 0 183 -67 183 -178zM412 385v-218c0 -41 15 -62 45 -62c32 0 46 23 46 62v218c0 41 -15 62 -46 62c-30 0 -45 -21 -45 -62z" />
    <glyph glyph-name="uni044E.bgr" horiz-adv-x="698" 
d="M655 384v-216c0 -108 -59 -179 -183 -179h-29c-130 0 -183 71 -183 178v48h-58v-215h-153v757h153v-426h58v53c0 108 53 178 183 178h29c127 0 183 -67 183 -178zM412 385v-218c0 -41 15 -62 45 -62c32 0 46 23 46 62v218c0 41 -15 62 -46 62c-30 0 -45 -21 -45 -62z" />
    <glyph glyph-name="uni044F" unicode="&#x44f;" horiz-adv-x="484" 
d="M283 196h-32l-71 -196h-155l81 223c-39 19 -64 54 -64 115v71c0 95 53 142 149 142h244v-551h-152v196zM283 452h-47c-27 0 -42 -13 -42 -49v-61c0 -33 15 -44 44 -44h45v154z" />
    <glyph glyph-name="uni044F.alt" horiz-adv-x="480" 
d="M202 149v-88c0 -40 -6 -53 -11 -61h-152v5c5 11 11 24 11 55v112c0 43 17 66 44 77c-35 15 -56 44 -56 101v59c0 93 52 142 148 142h245v-551h-152v196h-35c-36 0 -42 -14 -42 -47zM279 452h-46c-28 0 -43 -13 -43 -48v-61c0 -35 15 -45 44 -45h45v154z" />
    <glyph glyph-name="uni0452" unicode="&#x452;" horiz-adv-x="504" 
d="M456 430v-479c0 -65 -34 -112 -106 -112h-103v127h30c19 0 25 7 25 27v384c0 36 -14 62 -50 62s-50 -26 -50 -65v-374h-153v602h-58v91h58v64h153v-64h116v-91h-116v-115c8 13 48 69 124 69h6c83 0 124 -51 124 -126z" />
    <glyph glyph-name="uni0453" unicode="&#x453;" horiz-adv-x="367" 
d="M49 0v551h298v-118h-145v-433h-153zM135 603l51 154h135l-56 -154h-130z" />
    <glyph glyph-name="uni0454" unicode="&#x454;" horiz-adv-x="476" 
d="M435 206v-52c0 -92 -49 -165 -178 -165h-28c-131 0 -186 66 -186 170v228c0 109 55 175 187 175h28c131 0 177 -61 177 -162v-36h-142v26c0 41 -13 59 -49 59c-31 0 -47 -20 -47 -59v-54h108v-100h-108v-72c0 -37 14 -60 47 -60c35 0 49 23 49 60v42h142z" />
    <glyph glyph-name="uni0455" unicode="&#x455;" horiz-adv-x="440" 
d="M232 -11h-30c-124 0 -172 59 -172 143v61h139v-43c0 -35 13 -53 48 -53s48 18 48 46v1c0 31 -12 43 -45 62l-86 50c-67 39 -100 79 -100 156v7c0 88 51 142 176 142h24c128 0 170 -48 170 -135v-45h-135v29c0 39 -14 50 -49 50c-30 0 -45 -13 -45 -39
c0 -31 16 -39 43 -56l94 -58c75 -45 99 -84 99 -159v-6c0 -85 -52 -153 -179 -153z" />
    <glyph glyph-name="uni0456" unicode="&#x456;" horiz-adv-x="252" 
d="M202 740v-137h-153v137h153zM202 551v-551h-153v551h153z" />
    <glyph glyph-name="uni0457" unicode="&#x457;" horiz-adv-x="252" 
d="M110 740v-137h-109v137h109zM252 740v-137h-109v137h109zM202 551v-551h-153v551h153z" />
    <glyph glyph-name="uni0458" unicode="&#x458;" horiz-adv-x="253" 
d="M203 740v-137h-153v137h153zM-35 -59h53c25 0 32 9 32 34v576h153v-626c0 -68 -32 -111 -100 -111h-138v127z" />
    <glyph glyph-name="uni0458.short" horiz-adv-x="253" 
d="M203 740v-137h-153v137h153zM-3 -59h21c25 0 32 9 32 34v576h153v-626c0 -68 -32 -111 -100 -111h-106v127z" />
    <glyph glyph-name="uni0459" unicode="&#x459;" horiz-adv-x="692" 
d="M58 182c5 53 5 114 5 369h368v-178h80c104 0 152 -51 152 -143v-80c0 -96 -49 -150 -153 -150h-232v434h-74c0 -149 -2 -233 -10 -306c-11 -84 -46 -128 -131 -128h-55v127h12c28 0 35 24 38 55zM431 102h31c32 0 48 11 48 58v58c0 40 -16 53 -48 53h-31v-169z" />
    <glyph glyph-name="uni045A" unicode="&#x45a;" horiz-adv-x="706" 
d="M202 240v-240h-153v551h153v-195h90v195h153v-194h79c104 0 153 -51 153 -143v-64c0 -96 -49 -150 -153 -150h-232v240h-90zM445 102h31c32 0 48 11 48 58v41c0 40 -16 54 -48 54h-31v-153z" />
    <glyph glyph-name="uni045C" unicode="&#x45c;" horiz-adv-x="488" 
d="M187 603l51 154h135l-56 -154h-130zM322 0l-120 265v-265h-153v551h153v-217l112 217h158l-130 -244l143 -307h-163z" />
    <glyph glyph-name="uni045E" unicode="&#x45e;" horiz-adv-x="454" 
d="M46 -186v123h69c19 0 26 4 30 16c3 8 4 16 4 23c0 15 -4 31 -12 64l-124 511h155l63 -372l60 372h149l-144 -642c-15 -64 -44 -95 -108 -95h-142zM230 600h-3c-91 0 -133 46 -133 126v13h104v-10c0 -27 10 -41 31 -41c23 0 30 14 30 41v10h104v-13
c0 -80 -42 -126 -133 -126z" />
    <glyph glyph-name="uni045F" unicode="&#x45f;" horiz-adv-x="498" 
d="M449 0h-131v-108h-138v108h-131v551h153v-435h95v435h152v-551z" />
    <glyph glyph-name="uni0490" unicode="&#x490;" horiz-adv-x="403" 
d="M52 0v744h187v105h146v-240h-174v-609h-159z" />
    <glyph glyph-name="uni0491" unicode="&#x491;" horiz-adv-x="367" 
d="M49 0v551h159v95h139v-213h-145v-433h-153z" />
    <glyph glyph-name="uni0492" unicode="&#x492;" horiz-adv-x="419" 
d="M68 445v299h333v-135h-174v-164h76v-122h-76v-323h-159v323h-52v122h52z" />
    <glyph glyph-name="uni0493" unicode="&#x493;" horiz-adv-x="386" 
d="M68 316v235h298v-118h-145v-117h84v-100h-84v-216h-153v216h-59v100h59z" />
    <glyph glyph-name="uni0496" unicode="&#x496;" horiz-adv-x="742" 
d="M737 -108h-146v108h-27l-122 340v-340h-155v340l-122 -340h-160l142 397l-129 347h155l114 -315v315h155v-315l114 315h155l-128 -347l93 -260h61v-245z" />
    <glyph glyph-name="uni0497" unicode="&#x497;" horiz-adv-x="693" 
d="M264 0v262l-105 -262h-156l126 302l-118 249h156l97 -216v216h151v-218l97 218h155l-115 -245l79 -190h57v-224h-139v108h-29l-105 264v-264h-151z" />
    <glyph glyph-name="uni049A" unicode="&#x49a;" horiz-adv-x="516" 
d="M511 -108h-145v108h-28l-130 347v-347h-156v744h156v-317l126 317h156l-139 -341l98 -266h62v-245z" />
    <glyph glyph-name="uni049B" unicode="&#x49b;" horiz-adv-x="498" 
d="M322 0l-120 265v-265h-153v551h153v-217l112 217h158l-130 -244l89 -191h62v-224h-139v108h-32z" />
    <glyph glyph-name="uni04A2" unicode="&#x4a2;" horiz-adv-x="561" 
d="M543 -108h-146v108h-75v311h-111v-311h-159v744h159v-281h111v281h159v-607h62v-245z" />
    <glyph glyph-name="uni04A3" unicode="&#x4a3;" horiz-adv-x="516" 
d="M202 0h-153v551h153v-217h97v217h152v-435h50v-224h-139v108h-63v218h-97v-218z" />
    <glyph glyph-name="uni04AE" unicode="&#x4ae;" horiz-adv-x="460" 
d="M150 0v281l-141 463h159l67 -281l66 281h150l-136 -466v-278h-165z" />
    <glyph glyph-name="uni04AF" unicode="&#x4af;" horiz-adv-x="449" 
d="M301 0v-187h-152v187l-136 551h152l62 -328l63 328h146z" />
    <glyph glyph-name="uni04B0" unicode="&#x4b0;" horiz-adv-x="460" 
d="M66 178v103h84l-141 463h159l67 -281l66 281h150l-135 -463h83v-103h-84v-178h-165v178h-84z" />
    <glyph glyph-name="uni04B1" unicode="&#x4b1;" horiz-adv-x="449" 
d="M301 -100v-87h-152v87h-87v100h87l-136 551h152l62 -328l63 328h146l-135 -551h87v-100h-87z" />
    <glyph glyph-name="uni04B2" unicode="&#x4b2;" 
d="M495 -108h-146v108h-25l-78 260l-79 -260h-156l128 394l-117 350h163l66 -236l65 236h154l-114 -354l82 -253h57v-245z" />
    <glyph glyph-name="uni04B3" unicode="&#x4b3;" horiz-adv-x="454" 
d="M155 0h-148l114 288l-111 263h155l60 -177l61 177h148l-107 -262l68 -173h54v-224h-139v108h-21l-67 190z" />
    <glyph glyph-name="uni04BA" unicode="&#x4ba;" horiz-adv-x="521" 
d="M211 744v-297c23 7 63 8 87 8c119 0 180 -45 180 -170v-285h-159v237c0 65 -14 81 -65 81c-16 0 -32 -3 -43 -6v-312h-159v744h159z" />
    <glyph glyph-name="uni04BB" unicode="&#x4bb;" horiz-adv-x="504" 
d="M49 0v757h153v-270c8 13 48 69 124 69h6c83 0 124 -51 124 -126v-430h-154v377c0 36 -14 62 -50 62s-50 -26 -50 -65v-374h-153z" />
    <glyph glyph-name="uni04C0" unicode="&#x4c0;" horiz-adv-x="262" 
d="M211 744v-744h-159v744h159z" />
    <glyph glyph-name="uni04CF" unicode="&#x4cf;" horiz-adv-x="252" 
d="M202 757v-757h-153v757h153z" />
    <glyph glyph-name="uni04D8" unicode="&#x4d8;" horiz-adv-x="514" 
d="M466 550v-355c0 -125 -57 -205 -200 -205h-27c-141 0 -194 92 -194 196v135h-1v127h262v107c0 45 -14 70 -53 70c-41 0 -55 -26 -55 -70v-53h-153v58c0 124 56 192 197 192h27c141 0 197 -77 197 -202zM198 321v-129c0 -44 14 -71 55 -71c39 0 53 25 53 72v128h-108z" />
    <glyph glyph-name="uni04D9" unicode="&#x4d9;" horiz-adv-x="475" 
d="M283 147v54h-98v-54c0 -37 17 -56 50 -56c32 0 48 19 48 56zM41 346v48c0 108 63 168 184 168h25c117 0 182 -57 182 -170v-231c0 -109 -59 -172 -184 -172h-27c-111 0 -180 49 -180 173v131h242v101c0 33 -12 57 -48 57c-35 0 -49 -24 -49 -56v-49h-145z" />
    <glyph glyph-name="uni04E8" unicode="&#x4e8;" horiz-adv-x="532" 
d="M486 545v-345c0 -133 -66 -210 -207 -210h-25c-144 0 -208 79 -208 210v345c0 131 63 208 207 208h25c145 0 208 -76 208 -208zM206 549v-101h120v101c0 53 -21 76 -60 76c-40 0 -60 -21 -60 -76zM206 324v-131c0 -49 20 -73 61 -73c39 0 59 24 59 73v131h-120z" />
    <glyph glyph-name="uni04E9" unicode="&#x4e9;" horiz-adv-x="502" 
d="M265 -11h-28c-139 0 -195 71 -195 178v217c0 108 58 178 195 178h28c133 0 195 -67 195 -178v-216c0 -108 -66 -179 -195 -179zM194 392v-64h114v64c0 42 -19 63 -58 63c-37 0 -56 -21 -56 -63zM250 97h1c39 0 57 24 57 63v68h-114v-68c0 -40 19 -63 56 -63z" />
    <glyph glyph-name="uni2009" unicode="&#x2009;" horiz-adv-x="46" 
 />
    <glyph glyph-name="uni20B4" unicode="&#x20b4;" horiz-adv-x="510" 
d="M479 481v-76h-449v76h217c11 8 21 16 24 19c27 23 38 42 38 75v5c0 39 -17 54 -53 54c-33 0 -49 -17 -49 -57v-56h-151v80c0 99 58 152 189 152h24c131 0 197 -57 197 -172v-17c0 -31 -8 -59 -24 -83h37zM472 246v-94c0 -100 -61 -161 -194 -161h-24
c-148 0 -206 84 -206 190v17c0 36 12 65 29 90h-47v76h450v-76h-217c-35 -31 -51 -53 -51 -97v-8c0 -43 18 -64 54 -64s54 18 54 55v72h152z" />
    <glyph glyph-name="uni20B4.lintab" 
d="M457 246v-94c0 -100 -58 -161 -185 -161h-23c-140 0 -195 84 -195 190v17c0 36 11 65 27 90h-42v76h423v-76h-204c-35 -31 -49 -53 -49 -97v-8c0 -43 17 -64 52 -64s52 18 52 55v72h144zM461 481v-76h-422v76h206l22 19c24 23 36 42 36 75v5c0 39 -16 54 -51 54
c-33 0 -48 -17 -48 -57v-56h-143v80c0 99 56 152 180 152h23c125 0 188 -57 188 -172v-17c0 -31 -8 -58 -23 -83h32z" />
    <glyph glyph-name="uni20B8" unicode="&#x20b8;" horiz-adv-x="449" 
d="M28 655v89h393v-89h-393zM421 469h-119v-469h-155v469h-119v135h393v-135z" />
    <glyph glyph-name="uni20B8.lintab" 
d="M53 655v89h394v-89h-394zM447 469h-119v-469h-155v469h-120v135h394v-135z" />
    <glyph glyph-name="uni20BD" unicode="&#x20bd;" horiz-adv-x="540" 
d="M340 289h-88v-51h143v-77h-143v-161h-159v161h-68v77h68v51h-68v75h68v380h247c109 0 166 -43 166 -164v-124c0 -117 -59 -167 -166 -167zM252 626v-214h41c41 0 55 16 55 69v77c0 52 -14 68 -55 68h-41z" />
    <glyph glyph-name="uni20BD.lintab" 
d="M471 580v-124c0 -117 -56 -167 -159 -167h-78v-51h133v-77h-133v-161h-151v161h-60v77h60v51h-60v75h60v380h229c105 0 159 -43 159 -164zM234 626v-214h34c40 0 53 16 53 69v77c0 52 -13 68 -53 68h-34z" />
    <glyph glyph-name="uni2116" unicode="&#x2116;" horiz-adv-x="796" 
d="M649 411h-10c-84 0 -119 42 -119 110v117c0 68 35 111 119 111h10c84 0 118 -43 118 -111v-117c0 -68 -34 -110 -118 -110zM644 675c-21 0 -32 -13 -32 -38v-113c0 -25 11 -38 32 -38s32 13 32 38v113c0 25 -11 38 -32 38zM527 288v90h234v-90h-234zM205 744l100 -310
c21 -68 34 -109 43 -148c-3 48 -4 85 -4 181v277h133v-744h-136l-117 338c-21 61 -35 109 -44 146c4 -39 6 -90 6 -181v-303h-134v744h153z" />
    <glyph glyph-name="yen.lintab" 
d="M176 0v206h-130v76h130v51h-130v76h108l-128 335h156l75 -257l75 257h142l-118 -335h109v-76h-130v-51h132v-76h-132v-206h-159z" />
    <glyph glyph-name="zero.lintab" 
d="M454 552v-358c0 -128 -58 -204 -193 -204h-21c-138 0 -194 77 -194 204v357c0 123 56 202 193 202h22c138 0 193 -79 193 -201zM303 194v354c0 52 -18 73 -53 73c-36 0 -53 -21 -53 -73v-354c0 -47 18 -70 54 -70c35 0 52 23 52 70z" />
    <glyph glyph-name="uni0401" unicode="&#x401;" horiz-adv-x="439" 
d="M52 744h348v-135h-195v-156h164v-138h-164v-178h201v-137h-354v744zM378 917v-126h-132v126h132zM205 917v-126h-132v126h132z" />
    <glyph glyph-name="uni0401.alt" horiz-adv-x="432" 
d="M374 917v-126h-132v126h132zM201 917v-126h-132v126h132zM52 744h339v-135h-186v-156h178v-138h-178v-178h190v-137h-343v744z" />
    <glyph glyph-name="uni0407" unicode="&#x407;" horiz-adv-x="262" 
d="M211 744v-744h-159v744h159zM284 917v-126h-132v126h132zM111 917v-126h-132v126h132z" />
    <glyph glyph-name="uni0439.bgr" horiz-adv-x="498" 
d="M449 551v-551h-150v67c-16 -27 -62 -72 -126 -72h-6c-75 0 -119 50 -119 122v434h154v-384c0 -35 15 -57 46 -57c32 0 49 21 49 60v381h152zM248 600h-3c-91 0 -133 46 -133 126v13h104v-10c0 -27 10 -41 31 -41c23 0 30 14 30 41v10h104v-13c0 -80 -42 -126 -133 -126z
" />
    <glyph glyph-name="uni0451" unicode="&#x451;" horiz-adv-x="475" 
d="M390 729v-126h-131v126h131zM220 729v-126h-132v126h132zM192 404v-54h98v54c0 37 -17 56 -50 56c-32 0 -48 -19 -48 -56zM434 205v-48c0 -108 -63 -168 -184 -168h-25c-117 0 -182 57 -182 170v231c0 109 59 172 184 172h27c111 0 180 -49 180 -173v-131h-242v-101
c0 -33 12 -57 48 -57c35 0 49 24 49 56v49h145z" />
    <glyph glyph-name="uni045B" unicode="&#x45b;" horiz-adv-x="504" 
d="M49 693v64h153v-64h116v-91h-116v-115c8 13 48 69 124 69h6c83 0 124 -51 124 -126v-430h-154v377c0 36 -14 62 -50 62s-50 -26 -50 -65v-374h-153v602h-58v91h58z" />
    </font>
</defs>
</svg>
