<?xml version="1.0" standalone="no"?>
<!DOCTYPE svg PUBLIC "-//W3C//DTD SVG 1.1//EN" "http://www.w3.org/Graphics/SVG/1.1/DTD/svg11.dtd" >
<svg xmlns="http://www.w3.org/2000/svg">
<metadata></metadata>
<defs>
<font id="helioscondcbold_italic" horiz-adv-x="954" >
<font-face units-per-em="2048" ascent="1661" descent="-387" />
<missing-glyph horiz-adv-x="491" />
<glyph horiz-adv-x="0" />
<glyph horiz-adv-x="682" />
<glyph unicode=" "  horiz-adv-x="491" />
<glyph unicode="&#x09;" horiz-adv-x="491" />
<glyph unicode="&#xa0;" horiz-adv-x="491" />
<glyph unicode="!" horiz-adv-x="391" d="M-53 0l57 262h246l-57 -262h-246zM78 385l53 481l131 613h246l-131 -613l-137 -481h-162z" />
<glyph unicode="&#x22;" horiz-adv-x="741" d="M12 924l115 532h238l-115 -532h-238zM369 924l114 532h238l-115 -532h-237z" />
<glyph unicode="#" horiz-adv-x="931" d="M-25 449l41 188h187l63 172h-174l39 188h195l155 439h170l-159 -439h143l160 439h161l-147 -439h135l-39 -188h-166l-51 -172h131l-41 -188h-153l-154 -449h-170l152 449h-136l-157 -449h-172l155 449h-168zM379 637h133l61 172h-135z" />
<glyph unicode="$" horiz-adv-x="1071" d="M8 313q0 63 29 203h268q-24 -115 -24 -156q0 -161 161 -161q92 0 148.5 59.5t56.5 147.5q0 50 -27 89.5t-85 82.5l-216 163q-149 113 -149 283q0 189 123 319.5t307 155.5l37 178h184l-37 -178q135 -15 204 -91t69 -208q0 -56 -27 -188h-268q16 76 16 121q0 147 -135 147 q-78 0 -130 -47.5t-52 -128.5q0 -39 16 -65.5t49 -51.5l246 -190q48 -38 74 -62.5t53.5 -60t39 -76t11.5 -92.5q0 -224 -134 -371t-355 -160l-37 -172h-184l39 181q-135 24 -203 108.5t-68 220.5z" />
<glyph unicode="%" horiz-adv-x="1636" d="M109 954q0 60 22 164q14 66 27 110t41 95.5t65.5 82t99.5 51t144 20.5q140 0 196 -51.5t56 -145.5q0 -53 -23 -162q-12 -56 -23 -93t-30 -83t-45.5 -75.5t-65 -56.5t-93 -39.5t-124.5 -12.5q-138 0 -192.5 51t-54.5 145zM244 0l981 1505h137l-979 -1505h-139zM303 991 q0 -45 20 -67.5t68 -22.5q31 0 54 10.5t37.5 26.5t27 47t20 58t17.5 75q18 88 18 127q0 43 -19.5 65.5t-64.5 22.5q-31 0 -54.5 -10.5t-38.5 -26.5t-28 -46.5t-20.5 -57.5t-17.5 -74q-19 -93 -19 -127zM870 227q0 55 23 164q14 66 27 110t41 95.5t65.5 82t99.5 51t144 20.5 q140 0 196 -51.5t56 -145.5q0 -53 -23 -162q-12 -56 -23 -93t-30 -83t-45.5 -75.5t-65 -56.5t-93 -39.5t-124.5 -12.5q-138 0 -193 51t-55 145zM1065 264q0 -45 20 -67.5t68 -22.5q31 0 54 10.5t37.5 26.5t27 47t20 58t17.5 75q18 88 18 127q0 43 -19.5 65.5t-64.5 22.5 q-31 0 -54.5 -10.5t-39 -26.5t-28.5 -46.5t-20.5 -58t-17.5 -73.5q-18 -88 -18 -127z" />
<glyph unicode="&#x26;" horiz-adv-x="1310" d="M80 305q0 345 389 574q-55 140 -55 237q0 83 26.5 151.5t69 113t97.5 75t111 44t111 13.5q106 0 179 -62.5t73 -170.5q0 -136 -86.5 -249.5t-222.5 -188.5l117 -320q64 96 102 269h219q-58 -274 -235 -496l115 -295h-295l-33 98q-88 -70 -175 -97.5t-196 -27.5 q-141 0 -226 92t-85 240zM346 373q0 -73 42 -126.5t112 -53.5q89 0 194 81l-151 406q-55 -16 -126 -112t-71 -195zM659 1186q0 -47 39 -162q156 101 156 211q0 32 -22 56t-56 24q-46 0 -81.5 -29.5t-35.5 -99.5z" />
<glyph unicode="'" horiz-adv-x="430" d="M39 924l115 532h237l-115 -532h-237z" />
<glyph unicode="(" horiz-adv-x="598" d="M53 244q0 343 125 653t393 629h174q-198 -250 -329 -652t-131 -796q0 -248 59 -445h-174q-117 287 -117 611z" />
<glyph unicode=")" horiz-adv-x="600" d="M-174 -367q227 318 345 709.5t118 769.5q0 280 -62 414h174q125 -270 125 -584q0 -233 -73.5 -479t-189 -451t-263.5 -379h-174z" />
<glyph unicode="*" horiz-adv-x="774" d="M33 1155l98 158l186 -78l50 233h155l-49 -233l217 78l25 -158l-232 -61l109 -170l-168 -111l-82 188l-166 -188l-102 96l162 185z" />
<glyph unicode="+" horiz-adv-x="997" d="M37 434l39 180h344l80 373h180l-80 -373h344l-39 -180h-344l-78 -364h-180l78 364h-344z" />
<glyph unicode="," horiz-adv-x="333" d="M18 -266l21 96q123 0 160 170h-152l55 262h256l-61 -291q-18 -85 -96 -161t-166 -76h-17z" />
<glyph unicode="-" horiz-adv-x="665" d="M72 434l37 180h522l-37 -180h-522z" />
<glyph unicode="." horiz-adv-x="339" d="M16 0l58 262h256l-58 -262h-256z" />
<glyph unicode="/" horiz-adv-x="702" d="M-147 -168l809 1647h190l-813 -1647h-186z" />
<glyph unicode="0" horiz-adv-x="1038" d="M63 272q0 29 11 86l157 736q36 171 177 278t315 107q157 0 244.5 -76.5t87.5 -212.5q0 -46 -11 -96l-157 -736q-38 -178 -170 -285.5t-316 -107.5q-150 0 -244 84t-94 223zM328 301q0 -51 34 -81t87 -30q57 0 109 44t65 108l163 778q5 25 5 33q0 49 -33.5 74.5 t-83.5 25.5q-61 0 -112 -36.5t-64 -98.5l-166 -784q-4 -24 -4 -33z" />
<glyph unicode="1" horiz-adv-x="970" d="M150 999l43 199h34q156 0 265.5 71t158.5 183h191l-307 -1452h-263l211 999h-333z" />
<glyph unicode="2" horiz-adv-x="1034" d="M-35 0q16 83 40.5 155.5t50.5 128.5t68.5 113t77 96t95.5 91t104 86t121 92q79 59 130.5 110t78 97t36 85t9.5 87q0 112 -117 112q-38 0 -66.5 -11.5t-57 -42.5t-50 -93t-36.5 -156h-263q16 113 56.5 204.5t94 151t118.5 99.5t128.5 57t125.5 17q151 0 244.5 -80.5 t93.5 -218.5q0 -133 -81.5 -272t-215.5 -246q-37 -29 -107.5 -82t-111 -85.5t-90 -78.5t-81 -93t-47.5 -98h506l-49 -225h-805z" />
<glyph unicode="3" horiz-adv-x="1030" d="M63 248q0 82 31 201h248q-23 -92 -23 -140q0 -125 107 -125q104 0 149 88q30 57 46 139t16 128q0 70 -31.5 99.5t-101.5 29.5h-117l43 198h78q58 0 104.5 22t73 54.5t44.5 75t24 78.5t6 69q0 95 -105 95q-152 0 -188 -224h-248q32 210 163.5 326.5t319.5 116.5 q156 0 241 -69.5t85 -197.5q0 -169 -82 -281.5t-207 -148.5q168 -40 168 -235q0 -57 -16 -135q-50 -233 -179 -340t-339 -107q-158 0 -234 76.5t-76 206.5z" />
<glyph unicode="4" horiz-adv-x="1005" d="M31 293l55 262l600 897h311l-196 -934h131l-49 -225h-131l-62 -293h-262l61 293h-458zM270 518h269l127 600z" />
<glyph unicode="5" horiz-adv-x="1024" d="M47 256q0 59 27 186h258q-17 -81 -17 -137q0 -68 27 -94.5t84 -26.5q81 0 126.5 50.5t76.5 191.5q41 191 41 229q0 133 -123 133q-47 0 -88 -28t-66 -76h-252l195 768h706l-47 -219h-479l-82 -313q111 94 225 94q141 0 212 -71.5t71 -205.5q0 -67 -47 -291 q-53 -249 -173.5 -365t-330.5 -116q-166 0 -255 74.5t-89 216.5z" />
<glyph unicode="6" horiz-adv-x="1015" d="M55 229q0 29 11 90l161 754q38 179 164.5 292.5t310.5 113.5q157 0 246.5 -71t89.5 -196q0 -38 -8 -77h-262q4 20 4 36q0 89 -110 89q-68 0 -112 -46.5t-65 -150.5l-34 -172q46 43 118 72.5t131 29.5q111 0 175.5 -60.5t64.5 -172.5q0 -50 -10 -94l-74 -349 q-37 -175 -166.5 -263.5t-310.5 -88.5q-141 0 -232.5 66t-91.5 198zM326 276q0 -92 98 -92q65 0 111 38.5t63 111.5l61 293q5 20 5 37q0 49 -31.5 76.5t-75.5 27.5q-57 0 -103.5 -36.5t-60.5 -108.5l-61 -291q-6 -24 -6 -56z" />
<glyph unicode="7" horiz-adv-x="966" d="M150 0q105 329 279 664t353 563h-569l47 225h838l-43 -209q-92 -127 -169 -248.5t-161.5 -278t-157.5 -339t-127 -377.5h-290z" />
<glyph unicode="8" horiz-adv-x="1036" d="M66 248q0 67 12.5 134.5t42.5 145t92 144.5t149 108q-112 72 -112 224q0 93 25.5 171.5t69.5 134t103.5 94t128 57t142.5 18.5q144 0 228.5 -65t84.5 -195q0 -61 -13.5 -122t-41.5 -121t-77.5 -111.5t-115.5 -84.5q129 -64 129 -225q0 -74 -13 -148t-49.5 -156 t-92 -143.5t-149.5 -102t-214 -40.5q-167 0 -248 68.5t-81 214.5zM334 307q0 -123 108 -123q69 0 118 53t71 154q24 114 24 156q0 119 -110 119q-71 0 -117.5 -51t-67.5 -148q-26 -123 -26 -160zM494 985q0 -113 96 -113q54 0 92.5 34t55.5 86t23.5 93t6.5 76q0 53 -22.5 76 t-73.5 23q-46 0 -81 -25.5t-52.5 -59.5t-28.5 -77t-13.5 -69t-2.5 -44z" />
<glyph unicode="9" horiz-adv-x="1015" d="M55 231q0 42 8 78h263q-4 -20 -4 -35q0 -90 110 -90q68 0 110 45t66 152l37 172q-46 -43 -119.5 -72.5t-132.5 -29.5q-111 0 -175 60.5t-64 172.5q0 50 10 94l74 348q37 175 167 264t312 89q140 0 230.5 -67t90.5 -198q0 -35 -10 -90l-160 -753q-38 -178 -164.5 -292 t-310.5 -114q-157 0 -247.5 71t-90.5 195zM430 782q0 -50 31 -78t76 -28q57 0 102 36t61 109l64 291q6 30 6 53q0 95 -100 95q-65 0 -111 -38.5t-63 -111.5l-62 -293q-4 -24 -4 -35z" />
<glyph unicode=":" horiz-adv-x="389" d="M-49 0l57 262h256l-57 -262h-256zM129 842l57 262h256l-57 -262h-256z" />
<glyph unicode=";" horiz-adv-x="389" d="M-49 -266l20 96q123 0 160 170h-151l55 262h256l-62 -291q-18 -85 -96 -161t-166 -76h-16zM158 842l57 262h256l-57 -262h-256z" />
<glyph unicode="&#x3c;" horiz-adv-x="942" d="M33 418l39 190l940 455l-49 -223l-660 -328l520 -330l-43 -207z" />
<glyph unicode="=" horiz-adv-x="987" d="M-8 254l39 180h887l-39 -180h-887zM68 614l38 181h887l-39 -181h-886z" />
<glyph unicode="&#x3e;" horiz-adv-x="942" d="M-29 -25l47 220l650 340l-510 321l47 223l729 -452l-39 -191z" />
<glyph unicode="?" horiz-adv-x="899" d="M129 0l57 262h256l-57 -262h-256zM176 1069l10 49q40 187 164.5 287t298.5 100q141 0 234.5 -66t93.5 -182q0 -266 -264 -483q-99 -81 -154 -148.5t-74 -152.5l-16 -76h-256q18 85 45 156t51.5 115t63 87t60.5 62.5t63 52.5q83 66 144.5 152t61.5 164q0 47 -28 73.5 t-84 26.5q-124 0 -160 -168l-10 -49h-244z" />
<glyph unicode="@" horiz-adv-x="1996" d="M223 571q0 127 38.5 249t105.5 224.5t160 189.5t200 147t228 94t241 34q166 0 301.5 -61.5t217 -179t81.5 -269.5q0 -106 -29.5 -201.5t-77.5 -166t-109.5 -130.5t-126 -99.5t-127 -67.5t-111 -40.5t-80.5 -12.5q-53 0 -74 25.5t-21 82.5l-4 2q-53 -48 -116.5 -79 t-120.5 -31q-114 0 -188 80t-74 200q0 100 47 205.5t122.5 188t178 135.5t205.5 53q165 0 219 -133l51 108h180q-230 -520 -246 -563q-18 -45 -18 -61q0 -27 22 -27q74 0 149.5 67.5t125 181.5t49.5 236q0 187 -127.5 290.5t-337.5 103.5q-151 0 -287.5 -64t-232.5 -169 t-152.5 -244t-56.5 -285q0 -211 135.5 -335t364.5 -124q124 0 243.5 44t221.5 122h182q-141 -158 -321.5 -244t-372.5 -86q-290 0 -474 170t-184 440zM766 614q0 -59 33 -94t94 -35q75 0 148 51t117 127.5t44 149.5q0 59 -35 95t-96 36q-78 0 -150.5 -54t-113.5 -130.5 t-41 -145.5z" />
<glyph unicode="A" horiz-adv-x="1103" d="M-109 0l691 1479h376l13 -1479h-303l12 385h-318l-169 -385h-302zM444 604h248l33 688h-10z" />
<glyph unicode="B" horiz-adv-x="1079" d="M-16 0l315 1479h518q153 0 225 -72.5t72 -189.5q0 -85 -34 -175t-99 -160.5t-143 -86.5q157 -69 157 -240q0 -149 -59.5 -277t-162.5 -203t-224 -75h-565zM309 211h180q91 0 153.5 85t62.5 236q0 136 -117 136h-180zM451 879h147q104 0 164.5 75.5t60.5 198.5 q0 58 -32.5 86.5t-104.5 28.5h-151z" />
<glyph unicode="C" horiz-adv-x="1087" d="M53 287q0 54 19.5 155.5t115.5 554.5q55 258 197.5 383t372.5 125q178 0 271 -81t93 -230q0 -65 -30 -197h-281q25 114 25 156q0 68 -31 97.5t-98 29.5q-91 0 -142.5 -55.5t-81.5 -194.5q-89 -408 -115 -540t-26 -171q0 -69 31 -99t98 -30q45 0 79.5 14.5t66 51t55 104 t39.5 166.5h280q-22 -130 -63.5 -230t-108.5 -176t-166 -115.5t-227 -39.5q-373 0 -373 322z" />
<glyph unicode="D" horiz-adv-x="1146" d="M-16 0l315 1479h496q78 0 138 -17.5t110 -58.5t77 -117t27 -184q0 -34 -5.5 -99t-24 -171t-46.5 -214t-79.5 -221t-116.5 -199.5t-163.5 -142t-215.5 -55.5h-512zM311 219h176q188 0 283 361q38 141 61 276t23 211q0 99 -33.5 146t-103.5 47h-185z" />
<glyph unicode="E" horiz-adv-x="966" d="M-16 0l315 1479h791l-50 -226h-510l-71 -344h465l-50 -225h-464l-97 -459h510l-49 -225h-790z" />
<glyph unicode="F" horiz-adv-x="921" d="M-16 0l315 1479h776l-49 -226h-496l-71 -344h469l-49 -225h-469l-146 -684h-280z" />
<glyph unicode="G" horiz-adv-x="1138" d="M53 322q0 46 21.5 163t103.5 496q115 524 598 524q103 0 179 -26t119.5 -73.5t64 -106t20.5 -130.5q0 -67 -24 -170h-281q16 82 16 131q0 78 -34.5 114t-106.5 36q-108 0 -169 -65.5t-93 -215.5q-80 -380 -100.5 -492t-20.5 -151q0 -85 35.5 -125.5t112.5 -40.5 q101 0 169.5 86t100.5 297h-186l47 220h467l-168 -793h-219l34 166q-71 -103 -152 -152t-206 -49q-148 0 -238 89.5t-90 267.5z" />
<glyph unicode="H" horiz-adv-x="1136" d="M-16 0l315 1479h281l-121 -570h370l121 570h281l-316 -1479h-280l145 684h-370l-146 -684h-280z" />
<glyph unicode="I" horiz-adv-x="485" d="M-16 0l315 1479h281l-316 -1479h-280z" />
<glyph unicode="J" horiz-adv-x="923" d="M0 213q0 56 43 254h274q-38 -173 -38 -197q0 -80 79 -80q49 0 86.5 35t53.5 109l243 1145h281l-248 -1162q-34 -164 -156 -258t-307 -94q-157 0 -234 59t-77 189z" />
<glyph unicode="K" horiz-adv-x="1097" d="M-16 0l315 1479h281l-138 -641l478 641h317l-512 -641l209 -838h-313l-121 590l-142 -146l-94 -444h-280z" />
<glyph unicode="L" horiz-adv-x="940" d="M-16 0l315 1479h281l-267 -1254h510l-49 -225h-790z" />
<glyph unicode="M" horiz-adv-x="1495" d="M-16 0l315 1479h444v-953l398 953h448l-315 -1479h-262l284 1339h-2l-565 -1339h-199v1337h-2l-282 -1337h-262z" />
<glyph unicode="N" horiz-adv-x="1146" d="M-16 0l315 1479h303l180 -1076h2q0 162 82 551l113 525h262l-315 -1479h-303l-181 1073h-2q0 -152 -82 -549l-112 -524h-262z" />
<glyph unicode="O" horiz-adv-x="1140" d="M53 297q0 49 13.5 122.5t85.5 416.5q7 33 11 52.5t10.5 51t12.5 59.5q29 136 85 235.5t134.5 158t170 85.5t200.5 27q187 0 287 -77t100 -252q0 -57 -20 -163.5t-113 -549.5q-29 -138 -83.5 -236t-131 -154.5t-166 -82t-200.5 -25.5q-396 0 -396 332zM342 340 q0 -150 154 -150q91 0 152.5 61t86.5 177q100 470 118.5 564t18.5 128q0 76 -36.5 118t-106.5 42q-196 0 -248 -248q-133 -628 -137 -664q-2 -13 -2 -28z" />
<glyph unicode="P" horiz-adv-x="1114" d="M-16 0l315 1479h530q147 0 228.5 -89t81.5 -231q0 -107 -40 -209t-107 -178.5t-160 -123t-193 -46.5h-246l-129 -602h-280zM440 821h142q119 0 191.5 79t72.5 212q0 71 -43.5 109.5t-128.5 38.5h-142z" />
<glyph unicode="Q" horiz-adv-x="1150" d="M53 301q0 55 19.5 157t113.5 541q109 506 588 506q187 0 288 -78.5t101 -255.5q0 -55 -18.5 -153.5t-108.5 -519.5q-53 -242 -141 -348l115 -140l-160 -129l-125 144q-141 -60 -276 -60q-396 0 -396 336zM340 338q0 -148 156 -148q44 0 71 17l-55 61l168 135l35 -43 q17 52 37 152q89 416 104.5 495t15.5 109q0 78 -37 121t-108 43q-194 0 -246 -244q-103 -480 -122 -575t-19 -123z" />
<glyph unicode="R" horiz-adv-x="1148" d="M-16 0l315 1479h584q141 0 220 -80.5t79 -210.5q0 -179 -97.5 -307t-210.5 -136v-2q83 -14 118.5 -66t35.5 -120q0 -33 -38 -218t-38 -226q0 -70 43 -70l-10 -43h-280q-33 33 -33 109q0 59 31.5 204t31.5 176q0 138 -133 138h-205l-133 -627h-280zM442 838h189 q44 0 86 15.5t81 47.5t63 91t24 136q0 73 -43 102.5t-127 29.5h-183z" />
<glyph unicode="S" horiz-adv-x="1071" d="M37 305q0 66 29 203h268q-25 -118 -25 -156q0 -162 162 -162q91 0 150 64t59 152q0 50 -27 89t-86 83l-215 163q-151 115 -151 287q0 145 73.5 255t192.5 166t262 56q176 0 267 -78t91 -231q0 -56 -24 -184h-268q14 80 14 123q0 145 -133 145q-80 0 -131 -47.5 t-51 -130.5q0 -65 63 -115l246 -190q92 -71 135 -135.5t43 -161.5q0 -242 -154 -388.5t-403 -146.5q-192 0 -289.5 88t-97.5 252z" />
<glyph unicode="T" horiz-adv-x="1050" d="M184 1253l49 226h977l-49 -226h-348l-266 -1253h-281l266 1253h-348z" />
<glyph unicode="U" horiz-adv-x="1140" d="M57 272q0 58 15 125l229 1082h281l-222 -1041q-12 -56 -12 -98q0 -72 36.5 -106.5t113.5 -34.5q102 0 156 56t81 183l221 1041h281l-229 -1082q-91 -424 -557 -424q-394 0 -394 299z" />
<glyph unicode="V" horiz-adv-x="1067" d="M219 0v1479h299l-47 -1231h4l463 1231h289l-604 -1479h-404z" />
<glyph unicode="W" horiz-adv-x="1638" d="M160 0l78 1479h282l-94 -1235h2l446 1235h300l-78 -1235h2l430 1235h282l-553 -1479h-395l68 1030h-2l-373 -1030h-395z" />
<glyph unicode="X" horiz-adv-x="1124" d="M-88 0l518 760l-188 719h325l88 -482l303 482h316l-518 -719l215 -760h-314l-98 545l-340 -545h-307z" />
<glyph unicode="Y" horiz-adv-x="1112" d="M219 1479h332l76 -570l344 570h317l-579 -844l-136 -635h-280l135 635z" />
<glyph unicode="Z" horiz-adv-x="1001" d="M-55 0l45 211l766 1049h-516l47 219h811l-47 -219l-760 -1041h553l-47 -219h-852z" />
<glyph unicode="[" horiz-adv-x="555" d="M-82 -180l352 1659h408l-33 -154h-174l-287 -1352h189l-33 -153h-422z" />
<glyph unicode="\" horiz-adv-x="702" d="M201 1479h190l113 -1647h-187z" />
<glyph unicode="]" horiz-adv-x="593" d="M-113 -180l33 153h189l286 1352h-174l33 154h408l-353 -1659h-422z" />
<glyph unicode="^" horiz-adv-x="1052" d="M0 735l528 748h215l197 -748l-217 -96l-152 551l-397 -551z" />
<glyph unicode="_" horiz-adv-x="1054" d="M14 -223l25 123h997l-24 -123h-998z" />
<glyph unicode="`" horiz-adv-x="651" d="M121 1479h323l115 -279h-201z" />
<glyph unicode="a" horiz-adv-x="976" d="M23 182q0 173 94.5 284.5t277.5 180.5q152 57 215.5 105.5t63.5 117.5q0 70 -103 70q-61 0 -106.5 -39.5t-58.5 -126.5h-246q15 115 82 201.5t163 129t207 42.5q151 0 242.5 -54.5t91.5 -164.5q0 -32 -8 -68l-147 -696q-15 -81 -15 -105q0 -35 12 -59h-264q-6 12 -6 39 q0 31 8 67q-56 -71 -116.5 -105t-155.5 -34q-108 0 -169.5 54t-61.5 161zM299 258q0 -45 21 -72.5t65 -27.5q62 0 110 37.5t62 109.5l57 273l-188 -107q-62 -35 -94.5 -93.5t-32.5 -119.5z" />
<glyph unicode="b" d="M-16 0l315 1479h252l-92 -443q39 46 102.5 78.5t134.5 32.5q105 0 171.5 -54t66.5 -165q0 -42 -12 -94l-117 -551q-32 -153 -133.5 -234.5t-225.5 -81.5q-68 0 -121 42.5t-63 105.5l-26 -115h-252zM299 266q0 -49 28 -74.5t72 -25.5q53 0 95 34t55 97l108 512q5 25 5 39 q0 44 -28 68t-71 24q-51 0 -95 -35t-58 -100l-107 -504q-4 -20 -4 -35z" />
<glyph unicode="c" horiz-adv-x="894" d="M27 213q0 37 8 70l115 548q31 141 151.5 228.5t284.5 87.5q120 0 207.5 -61.5t87.5 -174.5q0 -24 -7 -59l-30 -139h-252q29 140 29 157q0 34 -21.5 52t-56.5 18q-48 0 -84 -29t-47 -86l-115 -536q-4 -16 -4 -35q0 -40 23 -60t63 -20q43 0 77 26t44 74l32 158h252 l-36 -170q-19 -94 -88 -163.5t-153.5 -100.5t-170.5 -31q-142 0 -225.5 66.5t-83.5 179.5z" />
<glyph unicode="d" d="M31 197q0 45 8 86l117 551q35 159 134.5 236t225.5 77q71 0 120.5 -32t72.5 -79l92 443h252l-314 -1479h-252l25 115q-49 -67 -114.5 -107.5t-131.5 -40.5q-104 0 -169.5 59t-65.5 171zM303 266q0 -49 28 -74.5t72 -25.5q53 0 95 34t55 97l109 512q4 20 4 39q0 44 -28 68 t-71 24q-51 0 -95 -35t-58 -100l-107 -504q-4 -20 -4 -35z" />
<glyph unicode="e" d="M31 219q0 47 12 103l98 471q38 181 161 267.5t300 86.5q150 0 236 -62t86 -190q0 -42 -13 -102l-55 -261h-518l-51 -243q-4 -20 -4 -31q0 -92 110 -92q62 0 105 32.5t55 90.5l14 63h252q-35 -200 -160.5 -292.5t-306.5 -92.5q-150 0 -235.5 62t-85.5 190zM379 717h266 l23 108q4 20 4 31q0 44 -29 68t-82 24q-63 0 -105.5 -31.5t-54.5 -91.5z" />
<glyph unicode="f" horiz-adv-x="542" d="M-4 0l199 934h-107l39 184h106l25 113q9 42 20.5 73.5t36 66.5t58.5 57t89.5 36.5t127.5 14.5h78l-43 -199q-62 0 -86 -14t-33 -58l-21 -90h115l-39 -184h-115l-198 -934h-252z" />
<glyph unicode="g" horiz-adv-x="946" d="M-33 -125h246q10 -63 106 -63q57 0 97.5 28.5t52.5 81.5l41 193q-49 -66 -115.5 -107t-132.5 -41q-104 0 -169.5 58t-65.5 170q0 33 10 88l117 551q35 159 134.5 236t225.5 77q71 0 120.5 -32.5t70.5 -78.5l18 82h252l-246 -1151q-39 -183 -140 -268.5t-294 -85.5 q-178 0 -253 60.5t-75 201.5zM299 266q0 -49 28 -74.5t72 -25.5q53 0 95 34t55 97l108 512q5 25 5 39q0 44 -28 68t-71 24q-51 0 -95 -35t-58 -100l-107 -504q-4 -20 -4 -35z" />
<glyph unicode="h" horiz-adv-x="950" d="M-14 0l315 1479h252l-96 -453q41 48 105 84.5t134 36.5q103 0 163.5 -53.5t60.5 -163.5q0 -48 -11 -99l-178 -831h-252l170 793q4 16 4 51q0 96 -98 96q-53 0 -92.5 -36.5t-52.5 -100.5l-172 -803h-252z" />
<glyph unicode="i" horiz-adv-x="456" d="M-14 0l237 1118h252l-237 -1118h-252zM248 1227l53 252h252l-53 -252h-252z" />
<glyph unicode="j" horiz-adv-x="456" d="M-190 -371l43 195h34q31 0 51 20.5t31 75.5l254 1198h252l-274 -1294q-12 -56 -39 -95.5t-67 -62t-86 -32t-103 -9.5q-84 0 -96 4zM246 1227l53 252h252l-53 -252h-252z" />
<glyph unicode="k" horiz-adv-x="870" d="M-16 0l315 1479h252l-166 -777l320 416h264l-361 -450l123 -668h-280l-64 434l-84 -115l-67 -319h-252z" />
<glyph unicode="l" horiz-adv-x="456" d="M-16 0l315 1479h252l-315 -1479h-252z" />
<glyph unicode="m" horiz-adv-x="1425" d="M-18 0l237 1118h246l-25 -108q111 137 273 137q90 0 129.5 -30t60.5 -101q42 57 117.5 94t153.5 37q103 0 163 -44.5t60 -131.5q0 -37 -21 -144l-174 -827h-246l168 797q6 27 6 49q0 94 -104 94q-52 0 -90 -37.5t-53 -105.5l-168 -797h-246l168 797q6 27 6 49 q0 94 -104 94q-52 0 -90.5 -37.5t-53.5 -105.5l-168 -797h-245z" />
<glyph unicode="n" horiz-adv-x="950" d="M-16 0l237 1118h252l-18 -92q41 48 105 84.5t134 36.5q103 0 163.5 -53.5t60.5 -163.5q0 -48 -11 -99l-178 -831h-252l170 793q4 16 4 51q0 96 -98 96q-53 0 -92.5 -36.5t-52.5 -100.5l-172 -803h-252z" />
<glyph unicode="o" horiz-adv-x="976" d="M33 229q0 51 12 103l94 450q16 76 50 139t90 115t141.5 81.5t193.5 29.5q170 0 251 -73t81 -187q0 -44 -14 -105l-94 -450q-16 -76 -50.5 -139t-90.5 -115t-141 -81.5t-191 -29.5q-173 0 -252.5 71.5t-79.5 190.5zM295 258q0 -92 111 -92q66 0 105.5 29.5t55.5 103.5 l111 516q6 30 6 47q0 47 -28.5 66.5t-82.5 19.5q-137 0 -163 -133l-111 -516q-4 -20 -4 -41z" />
<glyph unicode="p" d="M-59 -373l317 1491h252l-29 -125h2q44 74 111.5 114t136.5 40q104 0 170 -54t66 -165q0 -44 -11 -94l-116 -551q-32 -153 -134.5 -234.5t-226.5 -81.5q-147 0 -182 152l-104 -492h-252zM332 266q0 -49 28 -74.5t72 -25.5q53 0 95 34t55 97l108 512q4 20 4 39 q0 44 -27.5 68t-70.5 24q-51 0 -95.5 -35t-58.5 -100l-106 -504q-4 -20 -4 -35z" />
<glyph unicode="q" d="M29 195q0 33 10 88l117 551q35 159 134.5 236t225.5 77q69 0 119.5 -40t62.5 -114l27 125h252l-318 -1491h-251l104 492q-56 -73 -122 -112.5t-126 -39.5q-104 0 -169.5 58t-65.5 170zM301 266q0 -49 28 -74.5t72 -25.5q53 0 95 34t55 97l108 512q5 25 5 39q0 44 -28 68 t-71 24q-51 0 -95 -35t-58 -100l-107 -504q-4 -20 -4 -35z" />
<glyph unicode="r" horiz-adv-x="626" d="M-18 0l237 1118h242l-45 -213h2q111 230 309 230l-59 -279q-31 0 -53 -2t-56.5 -8.5t-60.5 -22.5t-53.5 -41.5t-47.5 -69t-32 -100.5l-132 -612h-251z" />
<glyph unicode="s" horiz-adv-x="911" d="M20 227q0 40 21 133h246q-19 -83 -19 -102q0 -92 101 -92q63 0 107 36.5t44 92.5q0 67 -86 131l-178 131q-115 83 -115 213q0 89 36 161.5t97 119t138 71.5t161 25q140 0 220.5 -68t80.5 -192q0 -50 -14 -117h-246q13 58 13 76q0 49 -25 75.5t-70 26.5q-57 0 -95 -33 t-38 -92q0 -46 70 -98l154 -111q69 -50 111 -113t42 -153q0 -49 -9.5 -95t-40 -100t-78.5 -93.5t-133.5 -66t-197.5 -26.5q-131 0 -214 67.5t-83 192.5z" />
<glyph unicode="t" horiz-adv-x="540" d="M29 137q0 28 8 64l153 719h-106l41 198h106l64 301h252l-64 -301h115l-41 -198h-115l-133 -625q-8 -40 -8 -53q0 -32 21.5 -45t76.5 -13l-41 -190q-46 -8 -125 -8q-204 0 -204 151z" />
<glyph unicode="u" horiz-adv-x="958" d="M39 186q0 46 12 101l178 831h252l-172 -807q-4 -20 -4 -45q0 -92 96 -92q122 0 150 135l172 809h252l-238 -1118h-239l24 115q-113 -148 -260 -148q-102 0 -162.5 54t-60.5 165z" />
<glyph unicode="v" horiz-adv-x="892" d="M133 1118h266l-26 -907h2l356 907h266l-497 -1118h-344z" />
<glyph unicode="w" horiz-adv-x="1269" d="M106 0l23 1118h260l-57 -874h2l328 874h180l-45 -874h2l315 874h260l-452 -1118h-306l39 668h-2l-241 -668h-306z" />
<glyph unicode="x" horiz-adv-x="866" d="M-102 0l411 559l-159 559h278l61 -309l193 309h279l-398 -559l174 -559h-293l-59 319l-195 -319h-292z" />
<glyph unicode="y" horiz-adv-x="888" d="M-25 -365l41 191h93q28 0 49.5 25.5t21.5 60.5q0 121 -35 1206h281l-33 -858h4l326 858h264l-563 -1259q-61 -136 -129.5 -184t-185.5 -48q-71 0 -134 8z" />
<glyph unicode="z" horiz-adv-x="794" d="M-53 0l45 211l532 709h-383l43 198h664l-43 -198l-533 -721h398l-43 -199h-680z" />
<glyph unicode="{" horiz-adv-x="602" d="M37 674q30 6 54.5 16t54 29.5t51.5 55.5t32 85l72 332q19 91 53 153.5t78.5 93t88 42.5t95.5 12q59 0 99 -8q-43 -16 -74 -38t-48 -48.5t-25.5 -48.5t-14.5 -50l-90 -428q-26 -127 -174 -198q40 -9 65 -53.5t25 -106.5q0 -40 -49 -261.5t-49 -262.5q0 -57 26.5 -96 t79.5 -54q-67 -6 -119 -6q-119 0 -167 42t-48 114q0 41 49.5 267.5t49.5 260.5q0 111 -115 156z" />
<glyph unicode="|" horiz-adv-x="374" d="M-57 0l315 1479h180l-315 -1479h-180z" />
<glyph unicode="}" horiz-adv-x="602" d="M-141 -160q73 20 122 75.5t64 131.5l88 410q17 80 69.5 143t106.5 74q-94 57 -94 147q0 29 52 270.5t52 272.5q0 90 -92 121q50 8 103 8q43 0 76 -8t62.5 -27.5t45.5 -58t16 -94.5q0 -52 -45 -265t-45 -231q0 -34 11.5 -59.5t31.5 -40t37.5 -22t40.5 -13.5 q-54 -17 -93 -44.5t-60.5 -61.5t-32 -62.5t-17.5 -65.5l-79 -374q-11 -49 -28.5 -86t-51 -72.5t-91 -54.5t-135.5 -19q-53 0 -114 6z" />
<glyph unicode="~" horiz-adv-x="958" d="M14 467q96 133 165 190.5t143 57.5q52 0 98.5 -13.5t78.5 -32t60 -37.5t54.5 -32.5t50.5 -13.5q74 0 182 147l86 -139q-155 -242 -318 -242q-45 0 -95 20t-87 43.5t-79.5 43.5t-73.5 20q-30 0 -58.5 -16.5t-44.5 -34t-42.5 -52.5t-37.5 -48z" />
<glyph unicode="&#xa3;" horiz-adv-x="1087" d="M-29 154q158 103 226.5 214t68.5 275h-190l30 143h127q-43 108 -43 193q0 152 70 273t190.5 187t268.5 66q174 0 265 -72t91 -214q0 -52 -28 -185h-252q18 85 18 119q0 141 -139 141q-87 0 -152 -75.5t-65 -198.5q0 -72 49 -234h291l-31 -143h-242q0 -131 -74.5 -237 t-238.5 -228h2q105 58 209 58q41 0 127.5 -23t118.5 -23q61 0 182 72l12 -223q-118 -74 -260 -74q-70 0 -188.5 30t-173.5 30q-94 0 -234 -64z" />
<glyph unicode="&#xa9;" horiz-adv-x="1509" d="M-43 553q0 143 40 275t110 235.5t163.5 188.5t200.5 140.5t222 86t227 30.5q179 0 321.5 -67.5t227.5 -202.5t85 -317q0 -171 -56.5 -325t-152.5 -268t-219.5 -198.5t-260.5 -127t-273 -42.5q-133 0 -248.5 40t-201.5 114t-135.5 187t-49.5 251zM184 590 q0 -204 123.5 -327.5t321.5 -123.5q125 0 250.5 57t224.5 153.5t161 237.5t62 296q0 203 -124 325.5t-320 122.5q-128 0 -254 -56.5t-224.5 -152.5t-159.5 -236.5t-61 -295.5zM350 635q0 149 70.5 276t192.5 201t266 74q295 0 295 -314h-177q0 67 -43.5 101.5t-113.5 34.5 q-81 0 -145.5 -51t-97 -126.5t-32.5 -156.5q0 -88 44.5 -142.5t121.5 -54.5t134.5 37t78.5 107h184q-55 -151 -175.5 -236.5t-258.5 -85.5q-161 0 -252.5 93t-91.5 243z" />
<glyph unicode="&#xab;" horiz-adv-x="761" d="M27 403l45 209l360 258l-45 -215l-233 -135l165 -178l-47 -219zM393 403l45 209l365 258l-45 -215l-234 -135l166 -178l-47 -219z" />
<glyph unicode="&#xad;" horiz-adv-x="665" d="M72 434l37 180h522l-37 -180h-522z" />
<glyph unicode="&#xae;" horiz-adv-x="1509" d="M-43 551q0 143 40 275t109 236t162.5 189t200.5 141t222.5 86.5t228.5 30.5q179 0 321 -68t226.5 -203.5t84.5 -317.5q0 -171 -56.5 -325.5t-152.5 -268t-219 -197t-260 -126t-272 -42.5q-134 0 -249.5 40t-201.5 114t-135 186.5t-49 249.5zM184 588q0 -203 123.5 -326 t321.5 -123q124 0 248.5 57t224 153.5t161.5 237t62 294.5q0 203 -123.5 325.5t-318.5 122.5q-128 0 -254 -56.5t-224.5 -152.5t-159.5 -236.5t-61 -295.5zM360 319l177 834h311q146 0 221.5 -42.5t75.5 -139.5q0 -133 -77 -210t-177 -77l135 -365h-211l-119 351h-84 l-73 -351h-179zM643 811h158q67 0 109 30.5t42 100.5t-141 70h-125z" />
<glyph unicode="&#xbb;" horiz-adv-x="772" d="M-20 156l45 215l221 161l-156 140l45 219l252 -268l-41 -201zM354 156l45 215l222 161l-156 140l45 219l252 -268l-41 -201z" />
<glyph unicode="&#x401;" horiz-adv-x="966" d="M-16 0l315 1479h791l-50 -226h-510l-71 -344h465l-50 -225h-464l-97 -459h510l-49 -225h-790zM430 1606l47 223h223l-47 -223h-223zM807 1606l47 223h223l-47 -223h-223z" />
<glyph unicode="&#x402;" horiz-adv-x="1400" d="M184 1253l49 226h977l-49 -226h-348l-76 -364q106 20 260 20q136 0 214.5 -96.5t78.5 -230.5q0 -64 -16.5 -139t-54 -154t-90 -143t-131.5 -105t-171 -41h-139l45 211h41q49 0 88.5 22t64 56t41 78t23 84t6.5 77q0 72 -31.5 114t-91.5 42q-118 0 -184 -16l-143 -668h-281 l266 1253h-348z" />
<glyph unicode="&#x403;" horiz-adv-x="921" d="M-16 0l315 1479h776l-49 -226h-494l-268 -1253h-280zM573 1587l306 369h278l-405 -369h-179z" />
<glyph unicode="&#x404;" horiz-adv-x="1087" d="M53 289q0 77 21 172l133 631q40 189 179 301t362 112q184 0 279 -82.5t95 -226.5q0 -48 -12 -104l-12 -62h-281q14 75 14 113q0 137 -131 137q-95 0 -143.5 -62t-75.5 -188l-26 -121h235l-47 -225h-235l-56 -258q-10 -55 -10 -90q0 -70 31.5 -108t93.5 -38q96 0 145 56 t74 172l23 102h280l-16 -71q-53 -255 -186.5 -369.5t-366.5 -114.5q-367 0 -367 324z" />
<glyph unicode="&#x405;" horiz-adv-x="1071" d="M37 305q0 66 29 203h268q-25 -118 -25 -156q0 -162 162 -162q91 0 150 64t59 152q0 50 -27 89t-86 83l-215 163q-151 115 -151 287q0 145 73.5 255t192.5 166t262 56q176 0 267 -78t91 -231q0 -56 -24 -184h-268q14 80 14 123q0 145 -133 145q-80 0 -131 -47.5 t-51 -130.5q0 -65 63 -115l246 -190q92 -71 135 -135.5t43 -161.5q0 -242 -154 -388.5t-403 -146.5q-192 0 -289.5 88t-97.5 252z" />
<glyph unicode="&#x406;" horiz-adv-x="485" d="M-16 0l315 1479h281l-316 -1479h-280z" />
<glyph unicode="&#x407;" horiz-adv-x="485" d="M-16 0l315 1479h281l-316 -1479h-280zM166 1606l47 223h223l-47 -223h-223zM543 1606l47 223h223l-47 -223h-223z" />
<glyph unicode="&#x408;" horiz-adv-x="923" d="M0 213q0 56 43 254h274q-38 -173 -38 -197q0 -80 79 -80q49 0 86.5 35t53.5 109l243 1145h281l-248 -1162q-34 -164 -156 -258t-307 -94q-157 0 -234 59t-77 189z" />
<glyph unicode="&#x409;" horiz-adv-x="1800" d="M-80 -8l43 207q33 -11 88 -11q48 0 78 32.5t71 159.5t97 390l149 709h857l-119 -570h235q138 0 215.5 -98t77.5 -238q0 -60 -16 -132t-53 -150.5t-89 -143t-131.5 -106t-173.5 -41.5h-540l266 1253h-299l-121 -567q-79 -377 -187 -545t-282 -168q-99 0 -166 19zM1034 211 h162q48 0 86.5 20t61.5 53t39 69t23.5 75t10 62.5t2.5 39.5q0 72 -31.5 113t-91.5 41h-161z" />
<glyph unicode="&#x40a;" horiz-adv-x="1738" d="M-16 0l315 1479h281l-121 -570h370l121 570h281l-121 -570h236q93 0 160.5 -48t99.5 -123t32 -165q0 -49 -12 -108t-35 -124t-61.5 -125t-87.5 -109t-118 -78t-148 -29h-541l145 684h-370l-146 -684h-280zM961 211h161q57 0 101 29.5t66 69t36 89t17.5 80t3.5 51.5 q0 72 -31.5 113t-91.5 41h-162z" />
<glyph unicode="&#x40b;" horiz-adv-x="1400" d="M184 1253l49 226h977l-49 -226h-348l-76 -364q78 20 232 20q152 0 240.5 -77.5t88.5 -221.5q0 -55 -14 -123l-104 -487h-281l98 463q9 41 9 72q0 149 -172 149q-83 0 -144 -14l-143 -670h-281l266 1253h-348z" />
<glyph unicode="&#x40c;" horiz-adv-x="1097" d="M-16 0l315 1479h281l-138 -641l478 641h317l-512 -641l209 -838h-313l-121 590l-142 -146l-94 -444h-280zM651 1587l305 369h279l-406 -369h-178z" />
<glyph unicode="&#x40e;" horiz-adv-x="1110" d="M102 -8l48 215q2 -1 15 -6t27 -8t31 -3q86 0 150 119l-156 1170h315l60 -785l395 785h307l-655 -1196q-96 -173 -181.5 -245.5t-189.5 -72.5q-87 0 -166 27zM582 1782q0 40 10 98h145q-6 -27 -6 -51q0 -56 31.5 -86.5t87.5 -30.5q69 0 117 43t65 125h146 q-64 -307 -361 -307q-235 0 -235 209z" />
<glyph unicode="&#x40f;" horiz-adv-x="1136" d="M-16 0l313 1479h262l-266 -1254h407l267 1254h262l-314 -1479h-340l-63 -299h-252l64 299h-340z" />
<glyph unicode="&#x410;" horiz-adv-x="1103" d="M-109 0l691 1479h376l13 -1479h-303l12 385h-318l-169 -385h-302zM444 604h248l33 688h-10z" />
<glyph unicode="&#x411;" horiz-adv-x="1087" d="M-16 0l315 1479h784l-45 -211h-503l-76 -359h235q138 0 215.5 -98t77.5 -238q0 -60 -16 -132t-53 -150.5t-89 -143t-131.5 -106t-173.5 -41.5h-540zM309 211h162q48 0 86.5 20t61.5 53t39 69t23.5 75t10 62.5t2.5 39.5q0 72 -31.5 113t-91.5 41h-161z" />
<glyph unicode="&#x412;" horiz-adv-x="1079" d="M-16 0l315 1479h518q153 0 225 -72.5t72 -189.5q0 -85 -34 -175t-99 -160.5t-143 -86.5q157 -69 157 -240q0 -149 -59.5 -277t-162.5 -203t-224 -75h-565zM309 211h180q91 0 153.5 85t62.5 236q0 136 -117 136h-180zM451 879h147q104 0 164.5 75.5t60.5 198.5 q0 58 -32.5 86.5t-104.5 28.5h-151z" />
<glyph unicode="&#x413;" horiz-adv-x="921" d="M-16 0l315 1479h776l-49 -226h-496l-266 -1253h-280z" />
<glyph unicode="&#x414;" horiz-adv-x="1275" d="M-88 -297l111 522h88q113 169 176.5 332.5t126.5 460.5l98 461h840l-267 -1254h91l-111 -522h-270l63 297h-612l-64 -297h-270zM389 225h416l219 1028h-283l-71 -335q-51 -240 -115 -391.5t-166 -301.5z" />
<glyph unicode="&#x415;" horiz-adv-x="966" d="M-16 0l315 1479h791l-50 -226h-510l-71 -344h465l-50 -225h-464l-97 -459h510l-49 -225h-790z" />
<glyph unicode="&#x416;" horiz-adv-x="1671" d="M-98 0l565 838l-238 641h318l203 -641l137 641h280l-137 -641l477 641h318l-512 -641l209 -838h-314l-121 590l-141 -146l-94 -444h-281l95 444l-80 146l-371 -590h-313z" />
<glyph unicode="&#x417;" horiz-adv-x="1077" d="M14 279q0 47 13 114h272q-8 -44 -8 -67q0 -136 145 -136q62 0 109.5 29t72.5 69t41 89.5t20.5 83t4.5 57.5q0 156 -164 156h-59l45 211h59q98 0 165 68.5t67 191.5q0 60 -28 97.5t-91 37.5q-81 0 -138 -62t-79 -165h-273q42 199 187.5 325.5t349.5 126.5q55 0 106 -9 t99.5 -31t84.5 -54.5t57.5 -84t21.5 -116.5q0 -143 -88 -266t-218 -153q86 -22 133.5 -86t47.5 -170q0 -49 -8 -100.5t-27.5 -108t-48 -108t-74 -98t-102 -81t-134.5 -54.5t-169 -20q-81 0 -149.5 17.5t-124 53.5t-87 98t-31.5 145z" />
<glyph unicode="&#x418;" horiz-adv-x="1146" d="M-16 0l315 1479h262l-119 -553q-77 -364 -145 -523h2l639 1076h303l-315 -1479h-262l118 559q77 352 146 514h-2l-639 -1073h-303z" />
<glyph unicode="&#x419;" horiz-adv-x="1146" d="M-16 0l315 1479h262l-119 -555q-76 -360 -145 -521h2l639 1076h303l-315 -1479h-262l120 561q72 343 144 512h-2l-639 -1073h-303zM541 1778q0 50 12 102h145q-6 -30 -6 -55q0 -55 30.5 -84t86.5 -29q69 0 117.5 43t66.5 125h146q-68 -307 -363 -307q-235 0 -235 205z " />
<glyph unicode="&#x41a;" horiz-adv-x="1097" d="M-16 0l315 1479h281l-138 -641l478 641h317l-512 -641l209 -838h-313l-121 590l-142 -146l-94 -444h-280z" />
<glyph unicode="&#x41b;" horiz-adv-x="1210" d="M-80 -8l43 207q33 -11 88 -11q48 0 78 32.5t71 159.5t97 390l149 709h859l-316 -1479h-280l266 1253h-299l-121 -567q-79 -377 -187 -545t-282 -168q-99 0 -166 19z" />
<glyph unicode="&#x41c;" horiz-adv-x="1495" d="M-16 0l315 1479h444v-953l398 953h448l-315 -1479h-262l284 1339h-2l-565 -1339h-199v1337h-2l-282 -1337h-262z" />
<glyph unicode="&#x41d;" horiz-adv-x="1136" d="M-16 0l315 1479h281l-121 -570h370l121 570h281l-316 -1479h-280l145 684h-370l-146 -684h-280z" />
<glyph unicode="&#x41e;" horiz-adv-x="1140" d="M53 297q0 49 13.5 122.5t85.5 416.5q7 33 11 52.5t10.5 51t12.5 59.5q109 506 590 506q187 0 287 -77t100 -252q0 -57 -20 -163.5t-113 -549.5q-29 -138 -83.5 -236t-131 -154.5t-166 -82t-200.5 -25.5q-396 0 -396 332zM342 340q0 -150 154 -150q91 0 152.5 61t86.5 177 q100 470 118.5 564t18.5 128q0 76 -36.5 118t-106.5 42q-196 0 -248 -248q-133 -628 -137 -664q-2 -13 -2 -28z" />
<glyph unicode="&#x41f;" horiz-adv-x="1136" d="M-16 0l315 1479h932l-316 -1479h-280l266 1253h-371l-266 -1253h-280z" />
<glyph unicode="&#x420;" horiz-adv-x="1114" d="M-16 0l315 1479h530q147 0 228.5 -89t81.5 -231q0 -107 -40 -209t-107 -178.5t-160 -123t-193 -46.5h-246l-129 -602h-280zM440 821h142q119 0 191.5 79t72.5 212q0 71 -43.5 109.5t-128.5 38.5h-142z" />
<glyph unicode="&#x421;" horiz-adv-x="1087" d="M53 287q0 54 19.5 155.5t115.5 554.5q55 258 197.5 383t372.5 125q178 0 271 -81t93 -230q0 -65 -30 -197h-281q25 114 25 156q0 68 -31 97.5t-98 29.5q-91 0 -142.5 -55.5t-81.5 -194.5q-89 -408 -115 -540t-26 -171q0 -69 31 -99t98 -30q45 0 79.5 14.5t66 51t55 104 t39.5 166.5h280q-22 -130 -63.5 -230t-108.5 -176t-166 -115.5t-227 -39.5q-373 0 -373 322z" />
<glyph unicode="&#x422;" horiz-adv-x="1050" d="M184 1253l49 226h977l-49 -226h-348l-266 -1253h-281l266 1253h-348z" />
<glyph unicode="&#x423;" horiz-adv-x="1110" d="M102 -8l48 215q2 -1 15 -6t27 -8t31 -3q86 0 150 119l-156 1170h315l60 -785l395 785h307l-655 -1196q-96 -173 -181.5 -245.5t-189.5 -72.5q-87 0 -166 27z" />
<glyph unicode="&#x424;" horiz-adv-x="1546" d="M84 575q0 188 80 356.5t224.5 274t318.5 105.5h81l37 168h281l-37 -168h82q78 0 145.5 -25t121 -73t84 -126t30.5 -178q0 -111 -28 -218.5t-83 -199t-129 -161t-172.5 -109t-208.5 -39.5h-82l-38 -182h-281l39 182h-82q-79 0 -146.5 23t-121.5 69.5t-84.5 123.5 t-30.5 177zM373 602q0 -98 40 -149.5t117 -51.5h66l147 691h-65q-74 0 -135 -52t-96.5 -130.5t-54.5 -159.5t-19 -148zM877 401h65q66 0 120 37.5t86.5 93.5t55 124t31 124.5t8.5 100.5q0 98 -39.5 154.5t-113.5 56.5h-66z" />
<glyph unicode="&#x425;" horiz-adv-x="1124" d="M-88 0l518 760l-188 719h325l88 -482l303 482h316l-518 -719l215 -760h-314l-98 545l-340 -545h-307z" />
<glyph unicode="&#x426;" horiz-adv-x="1181" d="M-16 0l315 1479h281l-267 -1254h371l266 1254h281l-266 -1254h90l-111 -524h-262l63 299h-761z" />
<glyph unicode="&#x427;" horiz-adv-x="1134" d="M193 932q0 50 12 106l94 441h281l-86 -404q-9 -41 -9 -71q0 -73 43.5 -111.5t128.5 -38.5q90 0 144 14l131 611h280l-315 -1479h-281l140 649q-105 -20 -242 -20q-151 0 -236 82t-85 221z" />
<glyph unicode="&#x428;" horiz-adv-x="1652" d="M-16 0l315 1479h281l-267 -1254h303l267 1254h280l-266 -1254h303l266 1254h281l-315 -1479h-1448z" />
<glyph unicode="&#x429;" horiz-adv-x="1683" d="M-16 0l315 1479h281l-267 -1254h303l267 1254h280l-266 -1254h303l266 1254h281l-266 -1254h90l-111 -522h-262l64 297h-1278z" />
<glyph unicode="&#x42a;" horiz-adv-x="1222" d="M119 0l270 1268h-254l45 211h535l-121 -570h235q138 0 215.5 -98t77.5 -238q0 -60 -16 -132t-53 -150.5t-89 -143t-131.5 -106t-173.5 -41.5h-540zM444 211h162q48 0 86.5 20t61.5 53t39 69t23.5 75t10 62.5t2.5 39.5q0 72 -31 113t-91 41h-162z" />
<glyph unicode="&#x42b;" horiz-adv-x="1591" d="M-16 0l315 1479h281l-121 -570h235q138 0 215.5 -98t77.5 -238q0 -60 -16 -132t-53 -150.5t-89 -143t-131.5 -106t-173.5 -41.5h-540zM309 211h162q48 0 86.5 20t61.5 53t39 69t23.5 75t10 62.5t2.5 39.5q0 72 -31.5 113t-91.5 41h-161zM1090 0l315 1479h281l-316 -1479 h-280z" />
<glyph unicode="&#x42c;" horiz-adv-x="1087" d="M-16 0l315 1479h281l-121 -570h235q138 0 215.5 -98t77.5 -238q0 -60 -16 -132t-53 -150.5t-89 -143t-131.5 -106t-173.5 -41.5h-540zM309 211h162q48 0 86.5 20t61.5 53t39 69t23.5 75t10 62.5t2.5 39.5q0 72 -31.5 113t-91.5 41h-161z" />
<glyph unicode="&#x42d;" horiz-adv-x="1087" d="M51 274q0 101 37 246h281q-35 -146 -35 -207q0 -62 31 -92.5t102 -30.5q81 0 137 62.5t80 173.5l55 258h-235l47 225h235q43 181 43 242q0 64 -30.5 96.5t-98.5 32.5q-93 0 -145 -63t-78 -187h-280l12 62q39 188 180 300.5t359 112.5q187 0 280.5 -81.5t93.5 -223.5 q0 -40 -21.5 -152.5t-121.5 -586.5q-55 -254 -193.5 -375t-361.5 -121q-189 0 -281 74t-92 235z" />
<glyph unicode="&#x42e;" horiz-adv-x="1701" d="M-16 0l315 1479h281l-121 -570h254l22 105q105 491 594 491q190 0 293.5 -76.5t103.5 -250.5q0 -54 -19.5 -156.5t-115.5 -552.5q-29 -138 -85 -237t-134 -156.5t-169 -84t-202 -26.5q-401 0 -401 338q0 79 66 381h-254l-148 -684h-280zM891 354q0 -78 40 -121t118 -43 q91 0 158 67.5t93 184.5q67 312 95 449t34.5 173t6.5 54q0 78 -40 120t-114 42q-99 0 -165 -63t-91 -181q-98 -464 -116.5 -556.5t-18.5 -125.5z" />
<glyph unicode="&#x42f;" horiz-adv-x="1116" d="M-78 0l422 635q-75 38 -115.5 116t-40.5 179q0 141 63.5 267t176.5 204t246 78h540l-315 -1479h-281l130 602h-138l-383 -602h-305zM477 975q0 -154 176 -154h142l92 439h-142q-65 0 -116 -23.5t-78.5 -57t-45 -75.5t-23 -73t-5.5 -56z" />
<glyph unicode="&#x430;" horiz-adv-x="976" d="M23 182q0 173 94.5 284.5t277.5 180.5q152 57 215.5 105.5t63.5 117.5q0 70 -103 70q-61 0 -106.5 -39.5t-58.5 -126.5h-246q15 115 82 201.5t163 129t207 42.5q151 0 242.5 -54.5t91.5 -164.5q0 -32 -8 -68l-147 -696q-15 -81 -15 -105q0 -35 12 -59h-264q-6 12 -6 39 q0 31 8 67q-56 -71 -116.5 -105t-155.5 -34q-108 0 -169.5 54t-61.5 161zM299 258q0 -45 21 -72.5t65 -27.5q62 0 110 37.5t62 109.5l57 273l-188 -107q-62 -35 -94.5 -93.5t-32.5 -119.5z" />
<glyph unicode="&#x431;" horiz-adv-x="976" d="M25 231q0 49 12 101l110 518q49 231 167.5 370t291.5 179q123 29 178 50.5t78 55.5h178q-41 -90 -116 -147t-219 -92q-129 -32 -201.5 -99.5t-120.5 -212.5h6q58 65 118 104.5t138 39.5q283 0 283 -248q0 -50 -13 -117l-86 -401q-16 -76 -50.5 -139.5t-90.5 -115.5 t-141 -81t-191 -29q-174 0 -252.5 71t-78.5 193zM287 256q0 -90 112 -90q66 0 106 29.5t56 103.5l98 467q7 31 7 49q0 47 -27 65.5t-82 18.5q-136 0 -166 -133l-98 -467q-6 -24 -6 -43z" />
<glyph unicode="&#x432;" horiz-adv-x="948" d="M-16 0l237 1118h416q113 0 190.5 -53.5t77.5 -153.5q0 -109 -72 -197t-157 -116q65 -28 102 -71.5t37 -123.5q0 -99 -37.5 -178.5t-98 -127t-130 -72.5t-139.5 -25h-426zM274 184h84q87 0 131 41q27 26 45.5 72.5t18.5 87.5q0 58 -35 87.5t-92 29.5h-84zM379 676h70 q77 0 129.5 41t52.5 123q0 94 -127 94h-70z" />
<glyph unicode="&#x433;" horiz-adv-x="788" d="M-16 0l237 1118h656l-43 -198h-404l-194 -920h-252z" />
<glyph unicode="&#x434;" horiz-adv-x="1058" d="M-96 -270l100 469h72q75 104 122 221.5t91 327.5l78 370h696l-195 -919h93l-101 -469h-237l57 270h-481l-58 -270h-237zM330 199h286l152 721h-203l-53 -258q-25 -124 -55 -211.5t-55 -133.5t-72 -118z" />
<glyph unicode="&#x435;" d="M31 219q0 47 12 103l98 471q38 181 161 267.5t300 86.5q150 0 236 -62t86 -190q0 -42 -13 -102l-55 -261h-518l-51 -243q-4 -20 -4 -31q0 -92 110 -92q62 0 105 32.5t55 90.5l14 63h252q-35 -200 -160.5 -292.5t-306.5 -92.5q-150 0 -235.5 62t-85.5 190zM379 717h266 l23 108q4 20 4 31q0 44 -29 68t-82 24q-63 0 -105.5 -31.5t-54.5 -91.5z" />
<glyph unicode="&#x436;" horiz-adv-x="1261" d="M-111 0l406 668l-168 450h264l144 -416l88 416h241l-88 -416l320 416h264l-361 -450l123 -668h-280l-64 434l-84 -115l-67 -319h-242l68 319l-35 115l-248 -434h-281z" />
<glyph unicode="&#x437;" d="M27 242q0 50 12 112h246q-11 -50 -11 -78q0 -110 101 -110q40 0 73 15t53 38.5t33.5 53.5t19 58.5t5.5 55.5q0 52 -30 79.5t-85 27.5h-59l41 184h53q46 0 80 17.5t52 46.5t26 61t8 67q0 39 -22 58.5t-72 19.5q-65 0 -101.5 -44t-60.5 -128h-248q47 180 172 275.5 t279 95.5q143 0 228 -66t85 -176q0 -115 -67 -195.5t-170 -113.5q149 -46 149 -211q0 -133 -64 -229t-168 -142.5t-235 -46.5q-68 0 -124 14.5t-101.5 45.5t-71.5 86t-26 129z" />
<glyph unicode="&#x438;" horiz-adv-x="964" d="M-16 0l237 1118h246l-141 -667h2l409 667h244l-238 -1118h-245l139 659h-2l-406 -659h-245z" />
<glyph unicode="&#x439;" horiz-adv-x="964" d="M-14 0l237 1118h246l-141 -667h2l409 667h244l-238 -1118h-245l141 659h-2l-408 -659h-245zM410 1413q0 30 8 66h129q-4 -16 -4 -35q0 -43 27.5 -56.5t84.5 -13.5q69 0 107.5 20.5t52.5 84.5h135q-54 -252 -321 -252q-111 0 -165 51t-54 135z" />
<glyph unicode="&#x43a;" horiz-adv-x="870" d="M-16 0l237 1118h252l-88 -416l320 416h264l-361 -450l123 -668h-280l-64 434l-84 -115l-67 -319h-252z" />
<glyph unicode="&#x43b;" horiz-adv-x="1001" d="M-82 0l39 184q34 -6 55 -6q26 0 41.5 4t33 24.5t29.5 49.5t30 92.5t35 139.5t44 204l90 426h705l-238 -1118h-252l195 920h-207l-94 -449q-25 -116 -56 -202.5t-65 -141t-75 -88t-81 -46.5t-88 -13q-71 0 -141 20z" />
<glyph unicode="&#x43c;" horiz-adv-x="1216" d="M-16 0l237 1118h340l6 -747l326 747h340l-238 -1118h-245l168 793h-3l-346 -793h-159l-11 793h-2l-168 -793h-245z" />
<glyph unicode="&#x43d;" horiz-adv-x="950" d="M-16 0l237 1118h252l-90 -426h242l90 426h252l-238 -1118h-252l105 494h-242l-104 -494h-252z" />
<glyph unicode="&#x43e;" horiz-adv-x="976" d="M33 229q0 51 12 103l94 450q16 76 50 139t90 115t141.5 81.5t193.5 29.5q170 0 251 -73t81 -187q0 -44 -14 -105l-94 -450q-16 -76 -50.5 -139t-90.5 -115t-141 -81.5t-191 -29.5q-173 0 -252.5 71.5t-79.5 190.5zM295 258q0 -92 111 -92q66 0 105.5 29.5t55.5 103.5 l111 516q6 30 6 47q0 47 -28.5 66.5t-82.5 19.5q-137 0 -163 -133l-111 -516q-4 -20 -4 -41z" />
<glyph unicode="&#x43f;" horiz-adv-x="950" d="M-16 0l237 1118h746l-238 -1118h-252l195 920h-242l-194 -920h-252z" />
<glyph unicode="&#x440;" d="M-59 -373l317 1491h252l-29 -125h2q44 74 111.5 114t136.5 40q104 0 170 -54t66 -165q0 -44 -11 -94l-116 -551q-32 -153 -134.5 -234.5t-226.5 -81.5q-147 0 -182 152l-104 -492h-252zM332 266q0 -49 28 -74.5t72 -25.5q53 0 95 34t55 97l108 512q4 20 4 39 q0 44 -27.5 68t-70.5 24q-51 0 -95.5 -35t-58.5 -100l-106 -504q-4 -20 -4 -35z" />
<glyph unicode="&#x441;" horiz-adv-x="894" d="M27 213q0 37 8 70l115 548q31 141 151.5 228.5t284.5 87.5q120 0 207.5 -61.5t87.5 -174.5q0 -24 -7 -59l-30 -139h-252q29 140 29 157q0 34 -21.5 52t-56.5 18q-48 0 -84 -29t-47 -86l-115 -536q-4 -16 -4 -35q0 -40 23 -60t63 -20q43 0 77 26t44 74l32 158h252 l-36 -170q-19 -94 -88 -163.5t-153.5 -100.5t-170.5 -31q-142 0 -225.5 66.5t-83.5 179.5z" />
<glyph unicode="&#x442;" horiz-adv-x="815" d="M96 920l43 198h768l-43 -198h-258l-194 -920h-252l194 920h-258z" />
<glyph unicode="&#x443;" horiz-adv-x="888" d="M-25 -365l41 191h93q28 0 49.5 25.5t21.5 60.5q0 121 -35 1206h281l-33 -858h4l326 858h264l-563 -1259q-61 -136 -129.5 -184t-185.5 -48q-71 0 -134 8z" />
<glyph unicode="&#x444;" horiz-adv-x="1452" d="M25 195q0 33 10 88l117 551q35 159 134.5 236t225.5 77q69 0 119 -40t63 -114l103 486h252l-105 -486h2q43 74 111 114t137 40q104 0 170 -54t66 -165q0 -46 -11 -94l-116 -551q-32 -153 -134.5 -234.5t-226.5 -81.5q-147 0 -182 152l-105 -492h-252l105 492 q-96 -152 -248 -152q-104 0 -169.5 58t-65.5 170zM297 266q0 -49 28 -74.5t72 -25.5q53 0 95 34t55 97l108 512q4 20 4 39q0 44 -27.5 68t-70.5 24q-51 0 -95 -35t-58 -100l-107 -504q-4 -20 -4 -35zM795 266q0 -49 28 -74.5t72 -25.5q53 0 94.5 34t54.5 97l109 512 q4 20 4 39q0 44 -27.5 68t-70.5 24q-51 0 -95.5 -35t-58.5 -100l-106 -504q-4 -20 -4 -35z" />
<glyph unicode="&#x445;" horiz-adv-x="866" d="M-102 0l411 559l-159 559h278l61 -309l193 309h279l-398 -559l174 -559h-293l-59 319l-195 -319h-292z" />
<glyph unicode="&#x446;" horiz-adv-x="989" d="M-18 0l237 1118h252l-195 -919h242l195 919h252l-195 -919h90l-100 -469h-238l58 270h-598z" />
<glyph unicode="&#x447;" horiz-adv-x="940" d="M129 672q0 55 10 104l72 342h252l-68 -317q-4 -20 -4 -45q0 -92 96 -92q93 0 125 18l93 436h251l-237 -1118h-252l104 492q-90 -35 -223 -35q-101 0 -160 53t-59 162z" />
<glyph unicode="&#x448;" horiz-adv-x="1433" d="M-16 0l237 1118h246l-195 -919h242l195 919h245l-194 -919h241l195 919h246l-238 -1118h-1220z" />
<glyph unicode="&#x449;" horiz-adv-x="1458" d="M-18 0l237 1118h246l-195 -919h242l195 919h245l-194 -919h241l195 919h246l-195 -919h84l-100 -471h-234l58 272h-1071z" />
<glyph unicode="&#x44a;" horiz-adv-x="1050" d="M84 920l43 198h451l-91 -426h162q114 0 194.5 -67.5t80.5 -190.5q0 -83 -27 -155t-71.5 -122t-100 -86.5t-113 -53.5t-110.5 -17h-414l195 920h-199zM383 199h82q96 0 144 58t48 134q0 54 -36 78.5t-95 24.5h-82z" />
<glyph unicode="&#x44b;" horiz-adv-x="1370" d="M-16 0l237 1118h252l-90 -426h162q114 0 194 -67t80 -191q0 -83 -27 -155t-71.5 -122t-100 -86.5t-113 -53.5t-110.5 -17h-413zM279 199h81q96 0 144.5 58t48.5 134q0 54 -36 78.5t-95 24.5h-82zM897 0l238 1118h251l-237 -1118h-252z" />
<glyph unicode="&#x44c;" horiz-adv-x="946" d="M-16 0l237 1118h252l-90 -426h162q114 0 194 -67t80 -191q0 -83 -27 -155t-71.5 -122t-100 -86.5t-113 -53.5t-110.5 -17h-413zM279 199h81q96 0 144.5 58t48.5 134q0 54 -36 78.5t-95 24.5h-82z" />
<glyph unicode="&#x44d;" horiz-adv-x="903" d="M23 203q0 29 6 59l28 135h252q-26 -128 -26 -149q0 -35 21.5 -54.5t55.5 -19.5q49 0 85 29t47 86l43 205h-160l43 198h160l28 133q4 20 4 35q0 40 -23 60t-63 20q-43 0 -77 -26t-44 -74l-18 -92h-252l23 104q19 94 88 163.5t153 100.5t170 31q142 0 226 -66.5t84 -179.5 q0 -33 -9 -70l-114 -548q-31 -141 -152 -228.5t-285 -87.5q-120 0 -207 61.5t-87 174.5z" />
<glyph unicode="&#x44e;" horiz-adv-x="1437" d="M-16 0l237 1118h252l-90 -426h199l18 90q17 77 51 140t89.5 115t141 81t193.5 29q171 0 251.5 -71.5t80.5 -186.5q0 -39 -14 -107l-95 -450q-15 -74 -50 -137.5t-90.5 -115.5t-141 -82t-191.5 -30q-173 0 -252 71.5t-79 190.5q0 51 12 103l33 162h-199l-104 -494h-252z M756 258q0 -92 110 -92q66 0 106 29.5t56 103.5l111 516q6 27 6 47q0 47 -28.5 66.5t-82.5 19.5q-138 0 -164 -133l-110 -516q-4 -16 -4 -41z" />
<glyph unicode="&#x44f;" horiz-adv-x="946" d="M-63 0l303 467q-113 74 -113 213q0 103 41 189.5t104.5 139t136 81t140.5 28.5h414l-238 -1118h-252l90 424h-98l-256 -424h-272zM393 719q0 -103 103 -103h108l66 310h-99q-72 0 -125 -56t-53 -151z" />
<glyph unicode="&#x451;" d="M31 219q0 47 12 103l98 471q38 181 161 267.5t300 86.5q150 0 236 -62t86 -190q0 -42 -13 -102l-55 -261h-518l-51 -243q-4 -20 -4 -31q0 -92 110 -92q62 0 105 32.5t55 90.5l14 63h252q-35 -200 -160.5 -292.5t-306.5 -92.5q-150 0 -235.5 62t-85.5 190zM336 1255 l47 224h223l-47 -224h-223zM379 717h266l23 108q4 20 4 31q0 44 -29 68t-82 24q-63 0 -105.5 -31.5t-54.5 -91.5zM698 1255l47 224h224l-47 -224h-224z" />
<glyph unicode="&#x452;" horiz-adv-x="980" d="M-14 0l270 1274h-113l35 164h113l28 135h252l-28 -135h223l-35 -164h-223l-53 -248q44 49 107.5 85t133.5 36q102 0 163 -52t61 -161q0 -43 -13 -103l-213 -1007q-12 -56 -39 -95.5t-67 -62t-86 -32t-103 -9.5q-84 0 -96 4l43 195h35q31 0 51 20t31 76l180 856 q10 42 10 68q0 46 -25.5 71t-74.5 25q-53 0 -92.5 -36.5t-52.5 -100.5l-170 -803h-252z" />
<glyph unicode="&#x453;" horiz-adv-x="788" d="M-18 0l237 1118h655l-40 -198h-404l-197 -920h-251zM494 1227l243 295h221l-323 -295h-141z" />
<glyph unicode="&#x454;" horiz-adv-x="894" d="M27 213q0 31 8 70l115 548q31 141 151.5 228.5t284.5 87.5q120 0 207.5 -61.5t87.5 -174.5q0 -24 -7 -59l-22 -104h-252q23 113 23 120q0 33 -22.5 52.5t-57.5 19.5q-48 0 -84 -29t-47 -86l-29 -133h160l-43 -198h-160l-43 -205q-4 -24 -4 -35q0 -40 23 -60t63 -20 q43 0 77 26t44 74l24 123h252l-28 -135q-19 -94 -88 -163.5t-153.5 -100.5t-170.5 -31q-142 0 -225.5 66.5t-83.5 179.5z" />
<glyph unicode="&#x455;" horiz-adv-x="911" d="M20 227q0 40 21 133h246q-19 -83 -19 -102q0 -92 101 -92q63 0 107 36.5t44 92.5q0 67 -86 131l-178 131q-115 83 -115 213q0 89 36 161.5t97 119t138 71.5t161 25q140 0 220.5 -68t80.5 -192q0 -50 -14 -117h-246q13 58 13 76q0 49 -25 75.5t-70 26.5q-57 0 -95 -33 t-38 -92q0 -46 70 -98l154 -111q69 -50 111 -113t42 -153q0 -49 -9.5 -95t-40 -100t-78.5 -93.5t-133.5 -66t-197.5 -26.5q-131 0 -214 67.5t-83 192.5z" />
<glyph unicode="&#x456;" horiz-adv-x="456" d="M-14 0l237 1118h252l-237 -1118h-252zM248 1227l53 252h252l-53 -252h-252z" />
<glyph unicode="&#x457;" horiz-adv-x="456" d="M-14 0l237 1118h252l-237 -1118h-252zM86 1255l47 224h223l-47 -224h-223zM451 1255l47 224h223l-47 -224h-223z" />
<glyph unicode="&#x458;" horiz-adv-x="456" d="M-190 -371l43 195h34q31 0 51 20.5t31 75.5l254 1198h252l-274 -1294q-12 -56 -39 -95.5t-67 -62t-86 -32t-103 -9.5q-84 0 -96 4zM246 1227l53 252h252l-53 -252h-252z" />
<glyph unicode="&#x459;" horiz-adv-x="1490" d="M-82 0l39 184q34 -6 55 -6q26 0 41.5 4t33 24.5t29.5 49.5t30 92.5t35 139.5t44 204l90 426h705l-90 -426h162q114 0 194 -67t80 -191q0 -83 -27 -155t-71.5 -122t-100 -86.5t-113 -53.5t-110.5 -17h-414l195 920h-207l-94 -449q-25 -116 -56 -202.5t-65 -141t-75 -88 t-81 -46.5t-88 -13q-71 0 -141 20zM825 199h82q96 0 144.5 58t48.5 134q0 54 -36 78.5t-95 24.5h-82z" />
<glyph unicode="&#x45a;" horiz-adv-x="1439" d="M-16 0l237 1118h252l-90 -426h242l90 426h252l-90 -426h161q114 0 194.5 -67.5t80.5 -190.5q0 -83 -27 -155t-71.5 -122t-100 -86.5t-113 -53.5t-110.5 -17h-414l105 494h-242l-104 -494h-252zM772 199h82q96 0 144.5 58t48.5 134q0 54 -36.5 78.5t-95.5 24.5h-81z" />
<glyph unicode="&#x45b;" horiz-adv-x="980" d="M-16 0l272 1274h-113l35 164h113l28 135h252l-28 -135h223l-35 -164h-223l-53 -248q41 48 105 84.5t134 36.5q103 0 163.5 -53.5t60.5 -163.5q0 -48 -11 -99l-178 -831h-252l170 793q4 16 4 51q0 96 -98 96q-53 0 -92.5 -36.5t-52.5 -100.5l-172 -803h-252z" />
<glyph unicode="&#x45c;" horiz-adv-x="870" d="M-16 0l237 1118h252l-88 -416l320 416h264l-361 -450l123 -668h-280l-64 434l-84 -115l-67 -319h-252zM512 1227l244 295h221l-324 -295h-141z" />
<glyph unicode="&#x45e;" horiz-adv-x="888" d="M-25 -365l41 191h93q28 0 49.5 25.5t21.5 60.5q0 121 -35 1206h281l-33 -858h4l326 858h264l-563 -1259q-61 -136 -129.5 -184t-185.5 -48q-71 0 -134 8zM391 1413q0 30 8 66h129q-4 -16 -4 -35q0 -43 27.5 -56.5t85.5 -13.5q70 0 110 21t54 84h131q-54 -252 -322 -252 q-111 0 -165 51t-54 135z" />
<glyph unicode="&#x45f;" horiz-adv-x="950" d="M-16 0l237 1118h246l-195 -919h254l195 919h246l-238 -1118h-283l-57 -270h-180l57 270h-282z" />
<glyph unicode="&#x490;" horiz-adv-x="921" d="M-16 0l315 1479h569l60 282h209l-111 -508h-494l-268 -1253h-280z" />
<glyph unicode="&#x491;" horiz-adv-x="788" d="M-16 0l237 1118h475l49 234h181l-92 -432h-404l-194 -920h-252z" />
<glyph unicode="&#x2000;" horiz-adv-x="978" />
<glyph unicode="&#x2001;" horiz-adv-x="1956" />
<glyph unicode="&#x2002;" horiz-adv-x="978" />
<glyph unicode="&#x2003;" horiz-adv-x="1956" />
<glyph unicode="&#x2004;" horiz-adv-x="652" />
<glyph unicode="&#x2005;" horiz-adv-x="489" />
<glyph unicode="&#x2006;" horiz-adv-x="326" />
<glyph unicode="&#x2007;" horiz-adv-x="326" />
<glyph unicode="&#x2008;" horiz-adv-x="244" />
<glyph unicode="&#x2009;" horiz-adv-x="391" />
<glyph unicode="&#x200a;" horiz-adv-x="108" />
<glyph unicode="&#x2010;" horiz-adv-x="665" d="M72 434l37 180h522l-37 -180h-522z" />
<glyph unicode="&#x2011;" horiz-adv-x="665" d="M72 434l37 180h522l-37 -180h-522z" />
<glyph unicode="&#x2012;" horiz-adv-x="665" d="M72 434l37 180h522l-37 -180h-522z" />
<glyph unicode="&#x2013;" horiz-adv-x="815" d="M35 434l37 180h706l-37 -180h-706z" />
<glyph unicode="&#x2014;" horiz-adv-x="1411" d="M35 434l37 180h1312l-36 -180h-1313z" />
<glyph unicode="&#x2018;" horiz-adv-x="489" d="M59 942l62 291q18 85 96 161t166 76h16l-20 -96q-123 0 -160 -170h152l-56 -262h-256z" />
<glyph unicode="&#x2019;" horiz-adv-x="473" d="M133 950l21 97q122 0 159 170h-151l55 262h256l-61 -291q-19 -85 -96.5 -161.5t-165.5 -76.5h-17z" />
<glyph unicode="&#x201a;" horiz-adv-x="333" d="M18 -266l21 96q123 0 160 170h-152l55 262h256l-61 -291q-18 -85 -96 -161t-166 -76h-17z" />
<glyph unicode="&#x201c;" horiz-adv-x="880" d="M59 942l62 291q18 85 96 161t166 76h16l-20 -96q-123 0 -160 -170h152l-56 -262h-256zM465 942l61 291q18 85 96 161t166 76h17l-21 -96q-122 0 -159 -170h151l-55 -262h-256z" />
<glyph unicode="&#x201d;" horiz-adv-x="880" d="M133 950l21 97q122 0 159 170h-151l55 262h256l-61 -291q-19 -85 -96.5 -161.5t-165.5 -76.5h-17zM539 950l20 97q123 0 160 170h-152l56 262h256l-62 -291q-19 -85 -96.5 -161.5t-165.5 -76.5h-16z" />
<glyph unicode="&#x201e;" horiz-adv-x="868" d="M84 -266l20 96q123 0 160 170h-151l55 262h256l-62 -291q-18 -85 -96 -161t-166 -76h-16zM471 -266l21 96q122 0 159 170h-151l55 262h256l-61 -291q-18 -85 -96.5 -161t-166.5 -76h-16z" />
<glyph unicode="&#x2020;" horiz-adv-x="1013" d="M111 905l47 219h317l88 416h252l-88 -416h317l-47 -219h-317l-229 -1083h-252l229 1083h-317z" />
<glyph unicode="&#x2022;" horiz-adv-x="1087" d="M162 664q0 118 68 224t175.5 168t221.5 62q136 0 222.5 -84.5t86.5 -214.5q0 -118 -68.5 -225t-177 -170.5t-223.5 -63.5q-135 0 -220 86.5t-85 217.5z" />
<glyph unicode="&#x2026;" horiz-adv-x="1638" d="M27 0l57 262h256l-57 -262h-256zM653 0l58 262h256l-58 -262h-256zM1280 0l57 262h256l-57 -262h-256z" />
<glyph unicode="&#x202f;" horiz-adv-x="391" />
<glyph unicode="&#x2030;" horiz-adv-x="2293" d="M109 954q0 60 22 164q14 66 27 110t41 95.5t65.5 82t99.5 51t144 20.5q140 0 196 -51.5t56 -145.5q0 -53 -23 -162q-12 -56 -23 -93t-30 -83t-45.5 -75.5t-65 -56.5t-93 -39.5t-124.5 -12.5q-138 0 -192.5 51t-54.5 145zM244 0l981 1505h137l-979 -1505h-139zM303 991 q0 -45 20 -67.5t68 -22.5q31 0 54 10.5t37.5 26.5t27 47t20 58t17.5 75q18 88 18 127q0 43 -19.5 65.5t-64.5 22.5q-31 0 -54.5 -10.5t-38.5 -26.5t-28 -46.5t-20.5 -57.5t-17.5 -74q-19 -93 -19 -127zM870 227q0 55 23 164q14 66 27 110t41 95.5t65.5 82t99.5 51t144 20.5 q140 0 196 -51.5t56 -145.5q0 -53 -23 -162q-12 -56 -23 -93t-30 -83t-45.5 -75.5t-65 -56.5t-93 -39.5t-124.5 -12.5q-138 0 -193 51t-55 145zM1065 264q0 -45 20 -67.5t68 -22.5q31 0 54 10.5t37.5 26.5t27 47t20 58t17.5 75q18 88 18 127q0 43 -19.5 65.5t-64.5 22.5 q-31 0 -54.5 -10.5t-39 -26.5t-28.5 -46.5t-20.5 -58t-17.5 -73.5q-18 -88 -18 -127zM1544 227q0 55 23 164q14 66 27 110t41 95.5t65.5 82t99.5 51t144 20.5q140 0 195.5 -51.5t55.5 -145.5q0 -57 -22 -162q-12 -56 -23 -93t-30 -83t-45.5 -75.5t-65 -56.5t-93 -39.5 t-124.5 -12.5q-138 0 -193 51t-55 145zM1739 264q0 -45 20 -67.5t68 -22.5q31 0 53.5 11t37.5 26.5t27.5 47t19.5 58t17 74.5q19 93 19 127q0 43 -19.5 65.5t-64.5 22.5q-31 0 -54.5 -10.5t-39 -26.5t-28.5 -46.5t-20.5 -58t-17.5 -73.5q-18 -88 -18 -127z" />
<glyph unicode="&#x2039;" horiz-adv-x="382" d="M18 403l45 209l359 258l-45 -215l-227 -135l159 -178l-47 -219z" />
<glyph unicode="&#x203a;" horiz-adv-x="382" d="M-41 123l47 219l238 178l-170 135l45 215l248 -258l-45 -209z" />
<glyph unicode="&#x205f;" horiz-adv-x="489" />
<glyph unicode="&#x20ac;" horiz-adv-x="1038" d="M20 469l103 195h76q0 19 10 67q2 11 7 30.5t7 26.5h-135l102 195h91q180 496 591 496q94 0 167 -21t104 -47l-53 -252q-66 82 -230 82q-233 0 -323 -258h456l-102 -195h-418q-13 -52 -14 -57q-2 -9 -7 -33t-6 -34h377l-100 -195h-295q-21 -266 213 -266q161 0 262 82 l-53 -256q-36 -24 -115.5 -43t-183.5 -19q-414 0 -375 502h-156z" />
<glyph unicode="&#x2122;" horiz-adv-x="1597" d="M82 1362l31 147h626l-30 -147h-236l-141 -666h-152l142 666h-240zM647 696l172 813h258l58 -483l258 483h249l-172 -813h-151l135 641h-2l-340 -641h-94l-82 641h-2l-135 -641h-152z" />
<glyph unicode="&#x25fc;" horiz-adv-x="1116" d="M0 0v1116h1116v-1116h-1116z" />
</font>
</defs>
</svg>
