<svg width="11" height="10" viewBox="0 0 11 10" fill="none" xmlns="http://www.w3.org/2000/svg">
<path d="M2.7044 8.96366C2.7396 8.9878 2.7812 8.99992 2.8228 8.99992C2.8631 8.99992 2.9034 8.98864 2.938 8.9659L5.5 7.28408L8.062 8.9659C8.1321 9.01222 8.2261 9.0112 8.2956 8.96376C8.3649 8.91631 8.3939 8.83289 8.3676 8.75665L7.4128 5.979L9.91849 4.26037C9.98809 4.21264 10.017 4.12857 9.98999 4.05205C9.96309 3.97553 9.88639 3.9238 9.79999 3.9238H6.6981L5.6895 1.12704C5.6622 1.05108 5.5859 1 5.5 1C5.4141 1 5.3378 1.05117 5.3104 1.12704L4.3018 3.9238H1.20001C1.11361 3.9238 1.03701 3.97553 1.01001 4.05205C0.983006 4.12857 1.01191 4.21264 1.08151 4.26037L3.5872 5.97891L2.6323 8.75656C2.6061 8.83289 2.6351 8.91622 2.7044 8.96366Z" stroke="black"/>
</svg>
