<svg width="9" height="8" viewBox="0 0 9 8" fill="none" xmlns="http://www.w3.org/2000/svg">
<g clip-path="url(#clip0_2346_2902)">
<path d="M3.33653 0.928633V0.928465H0.96439C0.908736 0.928465 0.865506 0.948649 0.842007 0.969534L3.33653 0.928633ZM3.33653 0.928633L3.34948 0.928298M3.33653 0.928633L3.34948 0.928298M3.34948 0.928298C3.3967 0.927075 3.43736 0.940793 3.46434 0.959014L3.34948 0.928298ZM3.49761 0.996496L3.49761 0.996495C3.49663 0.992959 3.49055 0.976722 3.46435 0.95902L3.49761 0.996496ZM3.49761 0.996496L3.49806 0.998126M3.49761 0.996496L3.49806 0.998126M3.49806 0.998126L3.69735 1.7067C3.758 1.92234 3.95467 2.07132 4.17868 2.07132M3.49806 0.998126L4.17868 2.07132M4.17868 2.07132H8.03582C8.0915 2.07132 8.13473 2.09153 8.15816 2.11236C8.16924 2.12221 8.17435 2.1306 8.17653 2.13529C8.17864 2.13981 8.17868 2.14212 8.17868 2.14275V6.99987C8.17868 7.00055 8.17863 7.00285 8.17654 7.00735C8.17436 7.01201 8.16928 7.02038 8.1582 7.03023L8.1581 7.03031M4.17868 2.07132L8.1581 7.03031M8.1581 7.03031C8.13474 7.05109 8.09156 7.0713 8.03582 7.0713H0.96439C0.90867 7.0713 0.865491 7.05111 0.842065 7.03028L0.841968 7.03019M8.1581 7.03031L0.841968 7.03019M0.841968 7.03019C0.830909 7.02037 0.825838 7.01202 0.823672 7.00737C0.821584 7.00289 0.821533 7.00058 0.821533 6.99987V0.999896M0.841968 7.03019L0.821533 0.999896M0.821533 0.999896C0.821533 0.999231 0.821576 0.996917 0.823677 0.99241M0.821533 0.999896L0.823677 0.99241M0.823677 0.99241C0.825854 0.987738 0.83094 0.979373 0.842003 0.969538L0.823677 0.99241Z" stroke="black" stroke-linecap="round" stroke-linejoin="round"/>
</g>
<defs>
<clipPath id="clip0_2346_2902">
<rect width="9" height="8" fill="white"/>
</clipPath>
</defs>
</svg>
