<svg width="30" height="23" viewBox="0 0 30 23" fill="none" xmlns="http://www.w3.org/2000/svg">
<path d="M0 21.375C0 21.8925 0.42 22.3125 0.9375 22.3125H29.0625C29.58 22.3125 30 21.8925 30 21.375V4.5C30 3.9825 29.58 3.5625 29.0625 3.5625H9.375V1.6875C9.375 1.17 8.955 0.75 8.4375 0.75H3.75C3.2325 0.75 2.8125 1.17 2.8125 1.6875V3.5625H0.9375C0.42 3.5625 0 3.9825 0 4.5V21.375ZM4.6875 2.625H7.5V3.5625H4.6875V2.625ZM1.875 5.4375H28.125V20.4375H1.875V5.4375Z" fill="black"/>
<path d="M18.75 7.3125C15.6483 7.3125 13.125 9.83578 13.125 12.9375C13.125 16.0392 15.6483 18.5625 18.75 18.5625C21.8517 18.5625 24.375 16.0392 24.375 12.9375C24.375 9.83578 21.8517 7.3125 18.75 7.3125ZM18.75 16.6875C16.6823 16.6875 15 15.0052 15 12.9375C15 10.8698 16.6823 9.1875 18.75 9.1875C20.8177 9.1875 22.5 10.8698 22.5 12.9375C22.5 15.0052 20.8177 16.6875 18.75 16.6875Z" fill="black"/>
<path d="M7.5 7.78125H4.6875C4.17 7.78125 3.75 8.20125 3.75 8.71875C3.75 9.23625 4.17 9.65625 4.6875 9.65625H7.5C8.0175 9.65625 8.4375 9.23625 8.4375 8.71875C8.4375 8.20125 8.0175 7.78125 7.5 7.78125Z" fill="black"/>
</svg>
