<svg width="20" height="28" viewBox="0 0 20 28" fill="none" xmlns="http://www.w3.org/2000/svg">
<path d="M16.7879 2.39395C15.0606 0.848492 12.6364 0 9.99999 0C7.36363 0 4.93938 0.848492 3.21211 2.39395C1.1212 4.27274 -7.3982e-06 7.09092 -7.3982e-06 10.5758C-7.3982e-06 18.1818 8.75759 27.1212 9.15153 27.4849C9.39395 27.7273 9.69696 27.8485 9.99999 27.8485C10.303 27.8485 10.6364 27.7273 10.8485 27.4849C11.2121 27.1212 20 18.1818 20 10.5758C19.9697 7.09092 18.8788 4.27274 16.7879 2.39395ZM9.9697 24.8788C9.15152 23.9697 7.8485 22.4545 6.57577 20.6364C3.8485 16.7576 2.39394 13.303 2.39394 10.6061C2.39394 3.0303 8.18182 2.42424 9.9697 2.42424C17 2.42424 17.5455 8.69697 17.5455 10.6061C17.5455 15.9394 12.1212 22.5151 9.9697 24.8788ZM9.9697 5.24242C7.30303 5.24242 5.15151 7.45455 5.15151 10.1515C5.15151 12.8485 7.30303 15.0606 9.9697 15.0606C12.6364 15.0606 14.7879 12.8485 14.7879 10.1515C14.7879 7.42424 12.6364 5.24242 9.9697 5.24242ZM9.9697 12.9091C8.48485 12.9091 7.27272 11.6667 7.27272 10.1212C7.27272 8.57577 8.48485 7.33334 9.9697 7.33334C11.4545 7.33334 12.6667 8.57577 12.6667 10.1212C12.6667 11.6667 11.4545 12.9091 9.9697 12.9091Z" fill="black"/>
</svg>
