<svg width="22" height="18" viewBox="0 0 22 18" fill="none" xmlns="http://www.w3.org/2000/svg">
<path d="M8.18212 1.07106C8.1733 1.07129 8.16447 1.07141 8.15564 1.07141H2.35707C2.17639 1.07141 2.02004 1.13753 1.91859 1.22976L8.18212 1.07106ZM8.18212 1.07106C8.33659 1.06697 8.47853 1.11199 8.58381 1.18472L8.18212 1.07106ZM8.76199 1.41908L8.76199 1.41908C8.7416 1.34396 8.6877 1.2565 8.58383 1.18473L8.76199 1.41908ZM8.76199 1.41908L8.76287 1.42228M8.76199 1.41908L8.76287 1.42228M8.76287 1.42228L9.25001 3.19371C9.36938 3.62776 9.76405 3.92856 10.2142 3.92856M8.76287 1.42228L10.2142 3.92856M10.2142 3.92856H19.6428C19.8235 3.92856 19.9799 3.99472 20.0812 4.08684C20.1796 4.1763 20.2142 4.27599 20.2142 4.35713V16.4999C20.2142 16.5812 20.1796 16.6808 20.0813 16.7701L20.0811 16.7703M10.2142 3.92856L20.0811 16.7703M20.0811 16.7703C19.9799 16.8623 19.8236 16.9285 19.6428 16.9285H2.35707C2.17626 16.9285 2.02002 16.8624 1.9187 16.7702L1.91851 16.7701M20.0811 16.7703L1.91851 16.7701M1.91851 16.7701C1.82029 16.6808 1.78564 16.5813 1.78564 16.4999V1.49998M1.91851 16.7701L1.78564 1.49998M1.78564 1.49998C1.78564 1.41874 1.82029 1.31912 1.91858 1.22977L1.78564 1.49998Z" stroke="black" stroke-width="2" stroke-linecap="round" stroke-linejoin="round"/>
</svg>
