<svg xmlns="http://www.w3.org/2000/svg" viewBox="0 0 14 20"><defs><style>.cls-1{isolation:isolate;}.cls-2{fill:#2572b9;fill-rule:evenodd;}</style></defs><title>Asset 1</title><g id="Layer_2" data-name="Layer 2"><g id="_29" data-name="29" class="cls-1"><g id="_29-2" data-name="29"><path class="cls-2" d="M12.17,5.62l1.77-3.47a.62.62,0,0,0,0-.61.64.64,0,0,0-.54-.3H1.27V.63A.63.63,0,0,0,.64,0,.63.63,0,0,0,0,.63V19.38A.63.63,0,0,0,.64,20a.63.63,0,0,0,.64-.62V10H13.36a.64.64,0,0,0,.54-.3.62.62,0,0,0,0-.61ZM1.27,8.75V2.5H12.33L10.89,5.35a.62.62,0,0,0,0,.56l1.45,2.85Z"/></g></g></g></svg>