<?xml version="1.0" encoding="utf-8"?>
<!-- Generator: Adobe Illustrator 16.0.0, SVG Export Plug-In . SVG Version: 6.00 Build 0)  -->
<!DOCTYPE svg PUBLIC "-//W3C//DTD SVG 1.1//EN" "http://www.w3.org/Graphics/SVG/1.1/DTD/svg11.dtd">
<svg version="1.1" id="Layer_1" xmlns="http://www.w3.org/2000/svg" xmlns:xlink="http://www.w3.org/1999/xlink" x="0px" y="0px"
	 width="85.04px" height="142.762px" viewBox="0 0 85.04 142.762" enable-background="new 0 0 85.04 142.762" xml:space="preserve">
<g>
	<path d="M55.272,14.393l-9.4-1.807l-4.623-8.393l-4.624,8.393l-9.4,1.807l6.543,6.992l-1.188,9.508l8.667-4.069l8.668,4.07
		l-1.188-9.509L55.272,14.393z M41.249,23.31l-4.796,2.251l0.657-5.262l-3.623-3.872l5.205-1l2.558-4.643l2.558,4.643l5.204,1
		L45.388,20.3l0.657,5.262L41.249,23.31z"/>
	<path d="M55.209,120.52h-2.454v-15.166l-3.546-8.158H48.3V36.564l-7.219-6.112l-0.039,0.046l-0.008-0.009l-6.836,6.109v60.598
		h-0.679l-3.546,8.158v15.166H28.39L1,137.483h40.71h0.178H82.6L55.209,120.52z M38.439,38.496l2.714-2.426l2.905,2.459v58.667
		h-2.579h-0.231h-2.81V38.496z M34.213,106.236L34.213,106.236l2.086-4.8h4.949h0.231h4.948l2.086,4.8v14.284h-6.625h-0.179h-7.496
		V106.236z M41.888,133.243H41.71H15.901l13.695-8.481h12.113h0.179h12.114l13.694,8.481H41.888z"/>
</g>
</svg>
